<svg width="221" height="24" viewBox="0 0 221 24" fill="none" xmlns="http://www.w3.org/2000/svg">
  <path d="M142.81 17.086C142.81 18.1881 142.626 19.1689 142.198 20.0235C141.771 20.878 141.218 21.616 140.421 22.1647C139.688 22.7765 138.77 23.2037 137.727 23.5096C136.687 23.8155 135.585 24 134.299 24C132.522 24 130.934 23.7572 129.647 23.3251C128.302 22.8347 127.079 22.0384 125.977 20.9363L128.365 18.6106C129.22 19.4651 130.142 20.0817 131.118 20.3876C132.099 20.6935 133.201 20.878 134.362 20.878C135.891 20.878 137.115 20.5721 137.974 19.9603C138.834 19.3486 139.261 18.4309 139.261 17.3287C139.261 16.2266 138.955 15.4303 138.343 14.8816C138.037 14.5758 137.731 14.3913 137.362 14.2699C136.993 14.1485 136.503 14.0271 135.77 13.9009L133.017 13.5319C131.118 13.2891 129.589 12.6142 128.55 11.6334C127.389 10.5313 126.836 9.06494 126.836 7.1665C126.836 6.12745 127.02 5.20979 127.385 4.35039C127.754 3.491 128.244 2.75784 128.914 2.14606C129.589 1.53429 130.385 1.0439 131.361 0.738013C132.342 0.247623 133.444 0.0631196 134.668 0.0631196C136.26 0.0631196 137.605 0.247623 138.766 0.674894C139.931 1.10216 140.97 1.77706 142.009 2.69472L139.683 4.96217C138.95 4.28727 138.154 3.79688 137.294 3.55412C136.435 3.30649 135.517 3.18511 134.541 3.18511C133.133 3.18511 132.094 3.55412 131.356 4.22416C130.623 4.89905 130.254 5.81671 130.254 6.85576C130.254 7.77342 130.56 8.51143 131.172 9.06008C131.784 9.60874 132.701 9.97775 133.803 10.1622L136.498 10.5313C137.6 10.7158 138.455 10.9585 139.13 11.2062C139.805 11.4489 140.353 11.8179 140.907 12.2452C142.13 13.4056 142.805 14.9982 142.805 17.0811M162.149 4.5349C161.78 3.6755 161.29 2.88408 160.619 2.26745C159.945 1.65567 159.148 1.16528 158.231 0.796278C157.313 0.427271 156.274 0.247623 155.109 0.247623H146.175V3.43273H154.866C156.153 3.43273 157.133 3.80174 157.867 4.47178C158.6 5.14667 159.027 6.1226 159.027 7.40927C159.027 8.69593 158.658 9.6136 157.867 10.2836C157.133 10.9585 156.089 11.2644 154.866 11.2644H146.175V23.6893H149.724V14.5078H155.05C156.211 14.5078 157.255 14.3233 158.172 13.9591C159.09 13.5901 159.886 13.0997 160.561 12.488C161.236 11.8762 161.722 11.143 162.091 10.2205C162.46 9.36112 162.639 8.38519 162.639 7.34615C162.702 6.36537 162.518 5.4477 162.149 4.53004M178.186 11.9976C178.186 13.1629 178.186 14.1388 178.123 14.9351C178.123 15.6682 178.06 16.3431 177.939 16.8918C177.817 17.4404 177.696 17.8725 177.511 18.2367C177.327 18.5426 177.084 18.9116 176.778 19.2175C176.351 19.6448 175.86 20.0138 175.249 20.2565C174.637 20.4993 174.025 20.6255 173.292 20.6255C172.617 20.6255 171.947 20.5041 171.335 20.2565C170.723 20.0089 170.233 19.6448 169.806 19.2175C169.5 18.9116 169.257 18.6057 169.073 18.2367C168.888 17.8677 168.767 17.4404 168.645 16.8918C168.582 16.4014 168.524 15.7265 168.461 14.9351C168.398 14.1388 168.398 13.158 168.398 11.9976C168.398 10.8371 168.398 9.85636 168.461 9.06008C168.461 8.32693 168.524 7.65203 168.645 7.10338C168.767 6.55472 168.888 6.1226 169.073 5.75845C169.257 5.45256 169.5 5.08355 169.806 4.77767C170.233 4.35039 170.723 3.98139 171.335 3.73862C171.947 3.49585 172.559 3.36961 173.292 3.36961C173.967 3.36961 174.637 3.491 175.249 3.73862C175.86 3.98624 176.351 4.35039 176.778 4.77767C177.084 5.08355 177.327 5.38944 177.511 5.75845C177.696 6.12745 177.817 6.55472 177.939 7.10338C178.002 7.59377 178.06 8.26866 178.123 9.06008C178.186 9.85636 178.186 10.8371 178.186 11.9976ZM181.799 11.9976C181.799 10.8954 181.735 9.85636 181.735 8.9387C181.672 8.02104 181.614 7.16164 181.488 6.42848C181.366 5.69533 181.119 4.95731 180.813 4.34554C180.507 3.67065 180.017 3.05887 179.468 2.51022C178.672 1.71394 177.754 1.10216 176.715 0.674894C175.676 0.247623 174.574 0 173.287 0C172 0 170.898 0.247623 169.859 0.674894C168.82 1.10216 167.903 1.71394 167.106 2.51022C166.494 3.12199 166.067 3.73377 165.761 4.34554C165.455 4.95731 165.213 5.69047 165.086 6.42848C164.965 7.22476 164.844 8.02104 164.844 8.9387C164.781 9.85636 164.781 10.8954 164.781 11.9976C164.781 13.1629 164.844 14.1388 164.844 15.0564C164.844 15.9741 164.965 16.8335 165.086 17.5667C165.208 18.2998 165.455 19.0378 165.761 19.6496C166.067 20.3245 166.558 20.9363 167.106 21.4849C167.903 22.2812 168.82 22.893 169.859 23.3202C170.898 23.7475 172.064 23.9951 173.287 23.9951C174.511 23.9951 175.676 23.7475 176.715 23.3202C177.754 22.893 178.672 22.2812 179.468 21.4849C180.08 20.8732 180.507 20.2614 180.813 19.6496C181.119 19.0378 181.362 18.3047 181.488 17.5667C181.609 16.7704 181.735 15.9741 181.735 15.0564C181.799 14.1388 181.799 13.0997 181.799 11.9976ZM197.467 13.3425C198.812 12.9735 199.914 12.2403 200.773 11.2013C201.691 10.1622 202.118 8.81246 202.118 7.09852C202.118 6.11774 201.934 5.20008 201.628 4.34554C201.259 3.48614 200.768 2.75298 200.157 2.14121C199.545 1.52944 198.749 1.03905 197.894 0.733158C196.976 0.364151 195.996 0.242768 194.893 0.242768H185.775V3.42302H194.651C195.816 3.42302 196.792 3.72891 197.53 4.4038C198.263 5.01558 198.632 5.93324 198.632 7.15679C198.632 8.38034 198.263 9.23973 197.53 9.85151C196.797 10.4633 195.816 10.7692 194.651 10.7692H185.775V23.6844H189.324V13.828H193.791L198.749 23.7427H202.91L197.462 13.3376L197.467 13.3425ZM220.481 3.42788V0.252478H203.953V3.43759H210.44V23.699H213.99V3.43759H220.476L220.481 3.42788Z" fill="white"/>
  <path d="M12.522 18.5716C8.59883 18.5716 6.1663 15.5807 6.1663 11.847C6.1663 8.11319 8.59397 5.11744 12.522 5.11744C16.4499 5.11744 18.8727 8.10833 18.8727 11.847C18.8727 15.7701 16.2557 18.5716 12.522 18.5716ZM12.522 23.9902C19.6205 23.9902 25.0439 18.9455 25.0439 12.0315C25.0439 5.11744 19.8098 0.0678711 12.522 0.0678711C5.23407 0.0678711 0 5.11744 0 12.0315C0 18.9455 5.41857 23.9902 12.522 23.9902Z" fill="white"/>
  <path d="M39.056 10.5313H34.3851V5.48655H39.056C40.7359 5.48655 42.0469 6.41878 42.0469 7.91423C42.0469 9.59418 40.7408 10.5264 39.056 10.5264M48.2132 23.6067L43.5423 15.0079C45.7855 14.2602 48.2132 12.017 48.2132 8.09387C48.2132 3.79689 45.2223 0.432129 40.1775 0.432129H28.4033V23.7912H34.3851V15.945H37.376L41.2991 23.7912H48.2132V23.6067Z" fill="white"/>
  <path d="M59.7982 0.257324H53.8164V23.6164H59.7982V0.257324Z" fill="white"/>
  <path d="M76.2436 23.9902C80.7299 23.9902 84.0898 22.1209 86.5175 19.5038V10.3466H75.3065L76.4281 15.5807H80.5406V17.45C79.7928 18.1978 77.9235 18.7561 76.2436 18.7561C72.5049 18.7561 69.7034 15.7652 69.7034 12.0315C69.7034 8.10348 72.3204 5.30194 76.2436 5.30194C78.4867 5.30194 80.356 6.79739 81.0989 8.29284L86.1436 5.6758C84.4637 2.87426 81.4728 0.0678711 76.2436 0.0678711C69.3295 0.0678711 63.5371 4.74357 63.5371 12.0315C63.7216 19.3193 69.3295 23.9902 76.2436 23.9902Z" fill="white"/>
  <path d="M102.778 18.5716C98.8547 18.5716 96.4222 15.5807 96.4222 11.847C96.4222 8.11319 98.8498 5.11744 102.778 5.11744C106.706 5.11744 109.129 8.10833 109.129 11.847C109.129 15.7701 106.696 18.5716 102.778 18.5716ZM102.778 23.9902C109.876 23.9902 115.3 18.9455 115.3 12.0315C115.3 5.11744 110.066 0.0678711 102.778 0.0678711C95.4899 0.0678711 90.2559 5.11258 90.2559 12.0315C90.2559 18.9503 95.6744 23.9902 102.778 23.9902Z" fill="white"/>
</svg>
