<svg width="20" height="20" viewBox="0 0 20 20" fill="none" xmlns="http://www.w3.org/2000/svg">
<g id="Icon set">
<path id="Vector" d="M15.8327 3.58303H10.5993L10.3327 2.74969C10.1598 2.26072 9.83914 1.83761 9.4151 1.53899C8.99106 1.24038 8.48465 1.08103 7.96602 1.08303H4.16602C3.50297 1.08303 2.86709 1.34642 2.39825 1.81526C1.92941 2.2841 1.66602 2.91999 1.66602 3.58303V14.4164C1.66602 15.0794 1.92941 15.7153 2.39825 16.1841C2.86709 16.653 3.50297 16.9164 4.16602 16.9164H15.8327C16.4957 16.9164 17.1316 16.653 17.6004 16.1841C18.0693 15.7153 18.3327 15.0794 18.3327 14.4164V6.08303C18.3327 5.41999 18.0693 4.7841 17.6004 4.31526C17.1316 3.84642 16.4957 3.58303 15.8327 3.58303ZM16.666 14.4164C16.666 14.6374 16.5782 14.8493 16.4219 15.0056C16.2657 15.1619 16.0537 15.2497 15.8327 15.2497H4.16602C3.945 15.2497 3.73304 15.1619 3.57676 15.0056C3.42048 14.8493 3.33268 14.6374 3.33268 14.4164V3.58303C3.33268 3.36201 3.42048 3.15005 3.57676 2.99377C3.73304 2.83749 3.945 2.74969 4.16602 2.74969H7.96602C8.14072 2.74924 8.31114 2.80371 8.45321 2.90539C8.59527 3.00708 8.70178 3.15084 8.75768 3.31636L9.20768 4.68303C9.26359 4.84854 9.3701 4.99231 9.51216 5.09399C9.65422 5.19568 9.82465 5.25014 9.99935 5.24969H15.8327C16.0537 5.24969 16.2657 5.33749 16.4219 5.49377C16.5782 5.65005 16.666 5.86201 16.666 6.08303V14.4164Z" fill="#0F6EBA"/>
</g>
</svg>
