<svg width="40" height="40" viewBox="0 0 40 40" fill="none" xmlns="http://www.w3.org/2000/svg">
<path d="M36.1837 33.8168L30.0003 27.6834C32.4005 24.6908 33.5628 20.8923 33.2483 17.0689C32.9339 13.2456 31.1664 9.68806 28.3095 7.12783C25.4526 4.5676 21.7233 3.19927 17.8885 3.3042C14.0537 3.40914 10.4049 4.97935 7.69223 7.69199C4.9796 10.4046 3.40938 14.0535 3.30445 17.8883C3.19951 21.7231 4.56784 25.4524 7.12807 28.3093C9.6883 31.1662 13.2458 32.9336 17.0692 33.2481C20.8925 33.5626 24.691 32.4003 27.6837 30.0001L33.817 36.1334C33.9719 36.2896 34.1563 36.4136 34.3594 36.4982C34.5625 36.5829 34.7803 36.6264 35.0003 36.6264C35.2203 36.6264 35.4382 36.5829 35.6413 36.4982C35.8444 36.4136 36.0287 36.2896 36.1837 36.1334C36.4841 35.8226 36.652 35.4073 36.652 34.9751C36.652 34.5429 36.4841 34.1275 36.1837 33.8168ZM18.3337 30.0001C16.0262 30.0001 13.7706 29.3158 11.852 28.0339C9.93344 26.7519 8.43809 24.9299 7.55507 22.7981C6.67204 20.6663 6.44101 18.3205 6.89117 16.0574C7.34133 13.7943 8.45247 11.7155 10.0841 10.0838C11.7157 8.45223 13.7945 7.34108 16.0576 6.89092C18.3207 6.44076 20.6665 6.6718 22.7983 7.55482C24.9301 8.43785 26.7522 9.93319 28.0341 11.8518C29.3161 13.7703 30.0003 16.026 30.0003 18.3334C30.0003 21.4276 28.7712 24.3951 26.5832 26.583C24.3953 28.7709 21.4279 30.0001 18.3337 30.0001Z" fill="#1D8BDA"/>
</svg>
