<svg width="40" height="40" viewBox="0 0 40 40" fill="none" xmlns="http://www.w3.org/2000/svg">
<path d="M10.7509 25.9968H29.2508C29.6651 25.9968 30.0008 26.3326 30.0008 26.7468C30.0008 27.1265 29.7187 27.4403 29.3526 27.4899L29.2508 27.4968H10.7509C10.3366 27.4968 10.0009 27.161 10.0009 26.7468C10.0009 26.3671 10.283 26.0533 10.6491 26.0036L10.7509 25.9968ZM10.7509 19.4998H29.2508C29.6651 19.4998 30.0008 19.8356 30.0008 20.2498C30.0008 20.6295 29.7187 20.9433 29.3526 20.993L29.2508 20.9998H10.7509C10.3366 20.9998 10.0009 20.664 10.0009 20.2498C10.0009 19.8701 10.283 19.5563 10.6491 19.5066L10.7509 19.4998ZM10.75 13L29.25 13C29.6642 13 30 13.3358 30 13.75C30 14.1297 29.7178 14.4435 29.3518 14.4931L29.25 14.5L10.75 14.5C10.3358 14.5 10 14.1642 10 13.75C10 13.3703 10.2822 13.0565 10.6482 13.0068L10.75 13Z" fill="#1D8BDA"/>
</svg>
