<svg width="48" height="48" viewBox="0 0 48 48" fill="none" xmlns="http://www.w3.org/2000/svg">
<path d="M15.3145 35.728C15.5134 35.728 15.7041 35.807 15.8448 35.9477C15.9854 36.0883 16.0645 36.2791 16.0645 36.478" stroke="#005CA2" stroke-width="3" stroke-linecap="round" stroke-linejoin="round"/>
<path d="M14.5645 36.478C14.5645 36.2791 14.6435 36.0883 14.7841 35.9477C14.9248 35.807 15.1155 35.728 15.3145 35.728" stroke="#005CA2" stroke-width="3" stroke-linecap="round" stroke-linejoin="round"/>
<path d="M15.3145 37.228C15.1155 37.228 14.9248 37.149 14.7841 37.0084C14.6435 36.8677 14.5645 36.6769 14.5645 36.478" stroke="#005CA2" stroke-width="3" stroke-linecap="round" stroke-linejoin="round"/>
<path d="M16.0645 36.478C16.0645 36.6769 15.9854 36.8677 15.8448 37.0084C15.7041 37.149 15.5134 37.228 15.3145 37.228" stroke="#005CA2" stroke-width="3" stroke-linecap="round" stroke-linejoin="round"/>
<path d="M24.3145 35.728C24.5134 35.728 24.7041 35.807 24.8448 35.9477C24.9854 36.0883 25.0645 36.2791 25.0645 36.478" stroke="#005CA2" stroke-width="3" stroke-linecap="round" stroke-linejoin="round"/>
<path d="M23.5645 36.478C23.5645 36.2791 23.6435 36.0883 23.7841 35.9477C23.9248 35.807 24.1155 35.728 24.3145 35.728" stroke="#005CA2" stroke-width="3" stroke-linecap="round" stroke-linejoin="round"/>
<path d="M24.3145 37.228C24.1155 37.228 23.9248 37.149 23.7841 37.0084C23.6435 36.8677 23.5645 36.6769 23.5645 36.478" stroke="#005CA2" stroke-width="3" stroke-linecap="round" stroke-linejoin="round"/>
<path d="M25.0645 36.478C25.0645 36.6769 24.9854 36.8677 24.8448 37.0084C24.7041 37.149 24.5134 37.228 24.3145 37.228" stroke="#005CA2" stroke-width="3" stroke-linecap="round" stroke-linejoin="round"/>
<path d="M33.3145 35.728C33.5134 35.728 33.7041 35.807 33.8448 35.9477C33.9854 36.0883 34.0645 36.2791 34.0645 36.478" stroke="#005CA2" stroke-width="3" stroke-linecap="round" stroke-linejoin="round"/>
<path d="M32.5645 36.478C32.5645 36.2791 32.6435 36.0883 32.7841 35.9477C32.9248 35.807 33.1155 35.728 33.3145 35.728" stroke="#005CA2" stroke-width="3" stroke-linecap="round" stroke-linejoin="round"/>
<path d="M33.3145 37.228C33.1155 37.228 32.9248 37.149 32.7841 37.0084C32.6435 36.8677 32.5645 36.6769 32.5645 36.478" stroke="#005CA2" stroke-width="3" stroke-linecap="round" stroke-linejoin="round"/>
<path d="M34.0645 36.478C34.0645 36.6769 33.9854 36.8677 33.8448 37.0084C33.7041 37.149 33.5134 37.228 33.3145 37.228" stroke="#005CA2" stroke-width="3" stroke-linecap="round" stroke-linejoin="round"/>
<path d="M12.3145 44.728C12.5134 44.728 12.7041 44.807 12.8448 44.9477C12.9854 45.0883 13.0645 45.2791 13.0645 45.478" stroke="#005CA2" stroke-width="3" stroke-linecap="round" stroke-linejoin="round"/>
<path d="M11.5645 45.478C11.5645 45.2791 11.6435 45.0883 11.7841 44.9477C11.9248 44.807 12.1155 44.728 12.3145 44.728" stroke="#005CA2" stroke-width="3" stroke-linecap="round" stroke-linejoin="round"/>
<path d="M12.3145 46.228C12.1155 46.228 11.9248 46.149 11.7841 46.0084C11.6435 45.8677 11.5645 45.6769 11.5645 45.478" stroke="#005CA2" stroke-width="3" stroke-linecap="round" stroke-linejoin="round"/>
<path d="M13.0645 45.478C13.0645 45.6769 12.9854 45.8677 12.8448 46.0084C12.7041 46.149 12.5134 46.228 12.3145 46.228" stroke="#005CA2" stroke-width="3" stroke-linecap="round" stroke-linejoin="round"/>
<path d="M21.3145 44.728C21.5134 44.728 21.7041 44.807 21.8448 44.9477C21.9854 45.0883 22.0645 45.2791 22.0645 45.478" stroke="#005CA2" stroke-width="3" stroke-linecap="round" stroke-linejoin="round"/>
<path d="M20.5645 45.478C20.5645 45.2791 20.6435 45.0883 20.7841 44.9477C20.9248 44.807 21.1155 44.728 21.3145 44.728" stroke="#005CA2" stroke-width="3" stroke-linecap="round" stroke-linejoin="round"/>
<path d="M21.3145 46.228C21.1155 46.228 20.9248 46.149 20.7841 46.0084C20.6435 45.8677 20.5645 45.6769 20.5645 45.478" stroke="#005CA2" stroke-width="3" stroke-linecap="round" stroke-linejoin="round"/>
<path d="M22.0645 45.478C22.0645 45.6769 21.9854 45.8677 21.8448 46.0084C21.7041 46.149 21.5134 46.228 21.3145 46.228" stroke="#005CA2" stroke-width="3" stroke-linecap="round" stroke-linejoin="round"/>
<path d="M30.3145 44.728C30.5134 44.728 30.7041 44.807 30.8448 44.9477C30.9854 45.0883 31.0645 45.2791 31.0645 45.478" stroke="#005CA2" stroke-width="3" stroke-linecap="round" stroke-linejoin="round"/>
<path d="M29.5645 45.478C29.5645 45.2791 29.6435 45.0883 29.7841 44.9477C29.9248 44.807 30.1155 44.728 30.3145 44.728" stroke="#005CA2" stroke-width="3" stroke-linecap="round" stroke-linejoin="round"/>
<path d="M30.3145 46.228C30.1155 46.228 29.9248 46.149 29.7841 46.0084C29.6435 45.8677 29.5645 45.6769 29.5645 45.478" stroke="#005CA2" stroke-width="3" stroke-linecap="round" stroke-linejoin="round"/>
<path d="M31.0645 45.478C31.0645 45.6769 30.9854 45.8677 30.8448 46.0084C30.7041 46.149 30.5134 46.228 30.3145 46.228" stroke="#005CA2" stroke-width="3" stroke-linecap="round" stroke-linejoin="round"/>
<path d="M18.3145 16.978C18.3144 17.4795 18.3458 17.9805 18.4085 18.478C18.3458 17.9805 18.3144 17.4795 18.3145 16.978C18.3182 16.2245 18.3939 15.4731 18.5405 14.734" stroke="#005CA2" stroke-width="3" stroke-linecap="round" stroke-linejoin="round"/>
<path d="M30.3143 28.978C32.5923 28.9807 34.8239 28.335 36.7485 27.1164C38.673 25.8977 40.2109 24.1564 41.1825 22.096C42.154 20.0357 42.5191 17.7413 42.2349 15.4812C41.9508 13.221 41.0292 11.0884 39.5779 9.33267C38.1266 7.5769 36.2055 6.27048 34.0392 5.56611C31.8729 4.86174 29.5508 4.78852 27.3444 5.35501C25.1381 5.92149 23.1385 7.10428 21.5795 8.76512C20.0204 10.426 18.9663 12.4963 18.5403 14.734C17.5257 14.2476 16.4146 13.9961 15.2894 13.998C14.1642 14 13.054 14.2554 12.0411 14.7454C11.0282 15.2353 10.1387 15.9472 9.43865 16.8281C8.73862 17.7089 8.24604 18.7362 7.99751 19.8336C7.74897 20.931 7.75087 22.0702 8.00305 23.1668C8.25524 24.2633 8.75123 25.2889 9.45419 26.1675C10.1571 27.046 11.049 27.7549 12.0635 28.2415C13.078 28.728 14.1892 28.9798 15.3143 28.978H30.3143Z" stroke="#005CA2" stroke-width="3" stroke-linecap="round" stroke-linejoin="round"/>
</svg>
