<svg width="48" height="48" viewBox="0 0 48 48" fill="none" xmlns="http://www.w3.org/2000/svg">
<g clip-path="url(#clip0)">
<path d="M22.5527 32.3679C22.5527 32.8694 22.5841 33.3704 22.6467 33.8679C22.5841 33.3704 22.5527 32.8694 22.5527 32.3679C22.5566 31.6144 22.6323 30.863 22.7787 30.1239" stroke="#005CA2" stroke-width="3" stroke-linecap="round" stroke-linejoin="round"/>
<path d="M34.5526 44.3679C36.8305 44.3706 39.0622 43.7249 40.9867 42.5063C42.9113 41.2876 44.4492 39.5463 45.4208 37.4859C46.3923 35.4256 46.7573 33.1312 46.4732 30.8711C46.189 28.6109 45.2675 26.4783 43.8162 24.7226C42.3648 22.9668 40.4438 21.6604 38.2775 20.956C36.1112 20.2516 33.7891 20.1784 31.5827 20.7449C29.3763 21.3114 27.3768 22.4942 25.8177 24.155C24.2587 25.8159 23.2046 27.8862 22.7786 30.1239C21.764 29.6375 20.6528 29.386 19.5277 29.3879C18.4025 29.3899 17.2923 29.6453 16.2794 30.1353C15.2665 30.6252 14.377 31.3371 13.6769 32.2179C12.9769 33.0988 12.4843 34.1261 12.2358 35.2235C11.9873 36.3208 11.9891 37.4601 12.2413 38.5567C12.4935 39.6532 12.9895 40.6788 13.6925 41.5574C14.3954 42.4359 15.2873 43.1448 16.3018 43.6314C17.3163 44.1179 18.4274 44.3697 19.5526 44.3679H34.5526Z" stroke="#005CA2" stroke-width="3" stroke-linecap="round" stroke-linejoin="round"/>
<path d="M12.0527 17.3679C12.0527 17.8694 12.0841 18.3704 12.1467 18.8679C12.0841 18.3704 12.0527 17.8694 12.0527 17.3679C12.0566 16.6144 12.1323 15.863 12.2787 15.1239" stroke="#005CA2" stroke-width="3" stroke-linecap="round" stroke-linejoin="round"/>
<path d="M35.6708 14.3519C34.9845 11.7157 33.4218 9.39136 31.2393 7.76107C29.0569 6.13079 26.3847 5.29158 23.6621 5.38141C20.9395 5.47123 18.3284 6.48474 16.2582 8.25532C14.188 10.0259 12.7818 12.4482 12.2708 15.1239C11.2562 14.6376 10.145 14.386 9.01987 14.388C7.89471 14.3899 6.78444 14.6454 5.77155 15.1353C4.75865 15.6252 3.86915 16.3371 3.16912 17.218C2.46909 18.0989 1.97651 19.1261 1.72798 20.2235C1.47944 21.3209 1.48134 22.4602 1.73352 23.5567C1.9857 24.6532 2.4817 25.6789 3.18465 26.5574C3.88761 27.436 4.77948 28.1448 5.794 28.6314C6.80852 29.118 7.91962 29.3697 9.04479 29.3679" stroke="#005CA2" stroke-width="3" stroke-linecap="round" stroke-linejoin="round"/>
</g>
<defs>
<clipPath id="clip0">
<rect width="48" height="48" fill="white"/>
</clipPath>
</defs>
</svg>
