<svg width="48" height="48" viewBox="0 0 48 48" fill="none" xmlns="http://www.w3.org/2000/svg">
<path d="M10.4648 41.478C10.6638 41.478 10.8545 41.557 10.9952 41.6977C11.1358 41.8383 11.2148 42.0291 11.2148 42.228" stroke="#005CA2" stroke-width="3" stroke-linecap="round" stroke-linejoin="round"/>
<path d="M9.71484 42.228C9.71484 42.0291 9.79386 41.8383 9.93451 41.6977C10.0752 41.557 10.2659 41.478 10.4648 41.478" stroke="#005CA2" stroke-width="3" stroke-linecap="round" stroke-linejoin="round"/>
<path d="M10.4648 42.978C10.2659 42.978 10.0752 42.899 9.93451 42.7584C9.79386 42.6177 9.71484 42.4269 9.71484 42.228" stroke="#005CA2" stroke-width="3" stroke-linecap="round" stroke-linejoin="round"/>
<path d="M11.2148 42.228C11.2148 42.4269 11.1358 42.6177 10.9952 42.7584C10.8545 42.899 10.6638 42.978 10.4648 42.978" stroke="#005CA2" stroke-width="3" stroke-linecap="round" stroke-linejoin="round"/>
<path d="M19.4648 16.728C19.4648 17.2295 19.4962 17.7305 19.5588 18.228C19.4962 17.7305 19.4648 17.2295 19.4648 16.728C19.4686 15.9745 19.5443 15.2231 19.6908 14.484" stroke="#005CA2" stroke-width="3" stroke-linecap="round" stroke-linejoin="round"/>
<path d="M31.4647 28.728C33.7427 28.7307 35.9743 28.085 37.8989 26.8664C39.8234 25.6477 41.3613 23.9064 42.3329 21.846C43.3044 19.7857 43.6694 17.4913 43.3853 15.2312C43.1012 12.971 42.1796 10.8384 40.7283 9.08267C39.277 7.3269 37.3559 6.02048 35.1896 5.31611C33.0233 4.61174 30.7012 4.53852 28.4948 5.10501C26.2885 5.67149 24.2889 6.85428 22.7298 8.51512C21.1708 10.176 20.1167 12.2463 19.6907 14.484C18.6761 13.9976 17.565 13.7461 16.4398 13.748C15.3146 13.75 14.2044 14.0054 13.1915 14.4954C12.1786 14.9853 11.2891 15.6972 10.589 16.5781C9.88901 17.4589 9.39643 18.4862 9.1479 19.5836C8.89936 20.681 8.90126 21.8202 9.15344 22.9168C9.40563 24.0133 9.90162 25.0389 10.6046 25.9175C11.3075 26.796 12.1994 27.5049 13.2139 27.9915C14.2284 28.478 15.3395 28.7298 16.4647 28.728H31.4647Z" stroke="#005CA2" stroke-width="3" stroke-linecap="round" stroke-linejoin="round"/>
<path d="M17.9641 34.728L10.9941 41.698" stroke="#005CA2" stroke-width="3" stroke-linecap="round" stroke-linejoin="round"/>
<path d="M19.4648 41.478C19.6638 41.478 19.8545 41.557 19.9952 41.6977C20.1358 41.8383 20.2148 42.0291 20.2148 42.228" stroke="#005CA2" stroke-width="3" stroke-linecap="round" stroke-linejoin="round"/>
<path d="M18.7148 42.228C18.7148 42.0291 18.7939 41.8383 18.9345 41.6977C19.0752 41.557 19.2659 41.478 19.4648 41.478" stroke="#005CA2" stroke-width="3" stroke-linecap="round" stroke-linejoin="round"/>
<path d="M19.4648 42.978C19.2659 42.978 19.0752 42.899 18.9345 42.7584C18.7939 42.6177 18.7148 42.4269 18.7148 42.228" stroke="#005CA2" stroke-width="3" stroke-linecap="round" stroke-linejoin="round"/>
<path d="M20.2148 42.228C20.2148 42.4269 20.1358 42.6177 19.9952 42.7584C19.8545 42.899 19.6638 42.978 19.4648 42.978" stroke="#005CA2" stroke-width="3" stroke-linecap="round" stroke-linejoin="round"/>
<path d="M26.9641 34.728L19.9941 41.698" stroke="#005CA2" stroke-width="3" stroke-linecap="round" stroke-linejoin="round"/>
<path d="M28.4648 41.478C28.6638 41.478 28.8545 41.557 28.9952 41.6977C29.1358 41.8383 29.2148 42.0291 29.2148 42.228" stroke="#005CA2" stroke-width="3" stroke-linecap="round" stroke-linejoin="round"/>
<path d="M27.7148 42.228C27.7148 42.0291 27.7939 41.8383 27.9345 41.6977C28.0752 41.557 28.2659 41.478 28.4648 41.478" stroke="#005CA2" stroke-width="3" stroke-linecap="round" stroke-linejoin="round"/>
<path d="M28.4648 42.978C28.2659 42.978 28.0752 42.899 27.9345 42.7584C27.7939 42.6177 27.7148 42.4269 27.7148 42.228" stroke="#005CA2" stroke-width="3" stroke-linecap="round" stroke-linejoin="round"/>
<path d="M29.2148 42.228C29.2148 42.4269 29.1358 42.6177 28.9952 42.7584C28.8545 42.899 28.6638 42.978 28.4648 42.978" stroke="#005CA2" stroke-width="3" stroke-linecap="round" stroke-linejoin="round"/>
<path d="M35.9641 34.728L28.9941 41.698" stroke="#005CA2" stroke-width="3" stroke-linecap="round" stroke-linejoin="round"/>
</svg>
