<svg width="48" height="48" viewBox="0 0 48 48" fill="none" xmlns="http://www.w3.org/2000/svg">
<path d="M18.8184 34.368L12.8184 40.368H21.8184L15.8184 46.368" stroke="#FF9900" stroke-width="3" stroke-linecap="round" stroke-linejoin="round"/>
<path d="M33.8184 34.368L27.8184 40.368H36.8184L30.8184 46.368" stroke="#FF9900" stroke-width="3" stroke-linecap="round" stroke-linejoin="round"/>
<path d="M18.8184 16.368C18.8183 16.8695 18.8497 17.3705 18.9124 17.868C18.8497 17.3705 18.8183 16.8695 18.8184 16.368C18.8212 15.6145 18.8969 14.863 19.0444 14.124" stroke="#005CA2" stroke-width="3" stroke-linecap="round" stroke-linejoin="round"/>
<path d="M30.8182 28.368C33.0962 28.3708 35.3278 27.725 37.2524 26.5064C39.1769 25.2877 40.7148 23.5464 41.6864 21.4861C42.6579 19.4257 43.023 17.1313 42.7388 14.8712C42.4547 12.611 41.5331 10.4785 40.0818 8.72268C38.6305 6.96691 36.7094 5.66049 34.5431 4.95613C32.3768 4.25176 30.0547 4.17854 27.8484 4.74502C25.642 5.31151 23.6424 6.49429 22.0834 8.15514C20.5243 9.81598 19.4702 11.8863 19.0442 14.124C18.0296 13.6376 16.9185 13.3861 15.7933 13.3881C14.6681 13.39 13.5579 13.6455 12.545 14.1354C11.5321 14.6253 10.6426 15.3372 9.94256 16.2181C9.24253 17.0989 8.74995 18.1262 8.50141 19.2236C8.25288 20.321 8.25477 21.4602 8.50696 22.5568C8.75914 23.6533 9.25513 24.679 9.95809 25.5575C10.6611 26.436 11.5529 27.1449 12.5674 27.6315C13.582 28.1181 14.6931 28.3698 15.8182 28.368H30.8182Z" stroke="#005CA2" stroke-width="3" stroke-linecap="round" stroke-linejoin="round"/>
</svg>
