<svg width="20" height="20" viewBox="0 0 20 20" fill="none" xmlns="http://www.w3.org/2000/svg">
<g clip-path="url(#clip0)">
<path d="M3.47852 9.99905C3.47852 8.70908 3.86105 7.44808 4.57774 6.37552C5.29443 5.30296 6.31309 4.46702 7.50489 3.97342C8.69668 3.47981 10.0081 3.35071 11.2733 3.60245C12.5384 3.85418 13.7005 4.47544 14.6126 5.38766C15.5247 6.29988 16.1458 7.46208 16.3973 8.72729C16.6489 9.9925 16.5196 11.3039 16.0258 12.4956C15.532 13.6873 14.6959 14.7059 13.6232 15.4224C12.5505 16.1389 11.2895 16.5213 9.99952 16.5211C8.27052 16.5189 6.61295 15.8311 5.39046 14.6084C4.16796 13.3857 3.48037 11.7281 3.47852 9.99905H3.47852Z" fill="#FF9900"/>
<path d="M9.99945 20C9.88408 20 9.77344 19.9542 9.69186 19.8726C9.61028 19.791 9.56445 19.6804 9.56445 19.565V17.826C9.56445 17.7106 9.61028 17.6 9.69186 17.5184C9.77344 17.4368 9.88408 17.391 9.99945 17.391C10.1148 17.391 10.2255 17.4368 10.307 17.5184C10.3886 17.6 10.4345 17.7106 10.4345 17.826V19.565C10.4345 19.6804 10.3886 19.791 10.307 19.8726C10.2255 19.9542 10.1148 20 9.99945 20Z" fill="#FF9900"/>
<path d="M17.8256 10.4349C17.7103 10.4349 17.5996 10.3891 17.518 10.3075C17.4365 10.226 17.3906 10.1153 17.3906 9.99994C17.3906 9.88457 17.4365 9.77393 17.518 9.69235C17.5996 9.61077 17.7103 9.56494 17.8256 9.56494H19.5646C19.6218 9.56494 19.6783 9.57619 19.7311 9.59805C19.7839 9.61991 19.8318 9.65196 19.8722 9.69235C19.9126 9.73274 19.9447 9.7807 19.9665 9.83347C19.9884 9.88625 19.9996 9.94282 19.9996 9.99994C19.9996 10.0571 19.9884 10.1136 19.9665 10.1664C19.9447 10.2192 19.9126 10.2671 19.8722 10.3075C19.8318 10.3479 19.7839 10.38 19.7311 10.4018C19.6783 10.4237 19.6218 10.4349 19.5646 10.4349H17.8256Z" fill="#FF9900"/>
<path d="M9.99945 2.609C9.88408 2.609 9.77344 2.56317 9.69186 2.48159C9.61028 2.40001 9.56445 2.28937 9.56445 2.174V0.435C9.56445 0.319631 9.61028 0.208987 9.69186 0.127409C9.77344 0.0458302 9.88408 0 9.99945 0C10.1148 0 10.2255 0.0458302 10.307 0.127409C10.3886 0.208987 10.4345 0.319631 10.4345 0.435V2.174C10.4345 2.28937 10.3886 2.40001 10.307 2.48159C10.2255 2.56317 10.1148 2.609 9.99945 2.609Z" fill="#FF9900"/>
<path d="M0.435 10.4349C0.319631 10.4349 0.208987 10.3891 0.127409 10.3075C0.0458302 10.226 0 10.1153 0 9.99994C0 9.88457 0.0458302 9.77393 0.127409 9.69235C0.208987 9.61077 0.319631 9.56494 0.435 9.56494H2.174C2.23113 9.56494 2.28769 9.57619 2.34047 9.59805C2.39324 9.61991 2.4412 9.65196 2.48159 9.69235C2.52199 9.73274 2.55403 9.7807 2.57589 9.83347C2.59775 9.88625 2.609 9.94282 2.609 9.99994C2.609 10.0571 2.59775 10.1136 2.57589 10.1664C2.55403 10.2192 2.52199 10.2671 2.48159 10.3075C2.4412 10.3479 2.39324 10.38 2.34047 10.4018C2.28769 10.4237 2.23113 10.4349 2.174 10.4349H0.435Z" fill="#FF9900"/>
<path d="M3.23775 17.199C3.18057 17.1991 3.12393 17.188 3.07108 17.1662C3.01822 17.1444 2.97019 17.1124 2.92975 17.072C2.88911 17.0317 2.85694 16.9837 2.83513 16.9308C2.81332 16.8779 2.80231 16.8212 2.80275 16.764C2.80259 16.7068 2.81372 16.6502 2.83552 16.5973C2.85731 16.5444 2.88933 16.4964 2.92975 16.456L4.15975 15.226C4.24143 15.1443 4.35222 15.0984 4.46775 15.0984C4.58327 15.0984 4.69406 15.1443 4.77575 15.226C4.85743 15.3077 4.90332 15.4184 4.90332 15.534C4.90332 15.6495 4.85743 15.7603 4.77575 15.842L3.54575 17.072C3.5053 17.1124 3.45728 17.1444 3.40442 17.1662C3.35156 17.188 3.29492 17.1991 3.23775 17.199Z" fill="#FF9900"/>
<path d="M16.7648 17.2C16.7077 17.2001 16.651 17.189 16.5982 17.1672C16.5453 17.1454 16.4973 17.1134 16.4568 17.073L15.2268 15.842C15.1453 15.7603 15.0995 15.6495 15.0996 15.5341C15.0997 15.4187 15.1456 15.308 15.2273 15.2265C15.309 15.1449 15.4198 15.0991 15.5352 15.0992C15.6506 15.0993 15.7613 15.1453 15.8428 15.227L17.0728 16.457C17.134 16.5177 17.1757 16.5952 17.1926 16.6797C17.2095 16.7642 17.2009 16.8518 17.1679 16.9314C17.1349 17.0109 17.0789 17.0789 17.0071 17.1265C16.9353 17.1742 16.851 17.1994 16.7648 17.199V17.2Z" fill="#FF9900"/>
<path d="M15.5359 4.90297C15.4497 4.90342 15.3653 4.8782 15.2936 4.83055C15.2218 4.78289 15.1658 4.71494 15.1328 4.63536C15.0997 4.55578 15.0911 4.46817 15.1081 4.38369C15.125 4.2992 15.1667 4.22167 15.2279 4.16097L16.4579 2.92997C16.5394 2.84828 16.6501 2.80234 16.7655 2.80225C16.8809 2.80215 16.9917 2.84792 17.0734 2.92947C17.155 3.01102 17.201 3.12169 17.2011 3.23712C17.2012 3.35255 17.1554 3.46328 17.0739 3.54497L15.8439 4.77297C15.8038 4.81406 15.7559 4.84673 15.703 4.86905C15.6501 4.89137 15.5933 4.90291 15.5359 4.90297Z" fill="#FF9900"/>
<path d="M4.46602 4.90298C4.40885 4.90315 4.35221 4.89201 4.29935 4.87022C4.24649 4.84842 4.19847 4.8164 4.15802 4.77598L2.92902 3.54498C2.86787 3.48428 2.82618 3.40675 2.80924 3.32227C2.79231 3.23778 2.80091 3.15017 2.83394 3.07059C2.86698 2.99101 2.92295 2.92307 2.99473 2.87541C3.06652 2.82775 3.15086 2.80254 3.23702 2.80298C3.29407 2.80268 3.3506 2.81375 3.40332 2.83556C3.45603 2.85737 3.50386 2.88947 3.54402 2.92998L4.77402 4.15898C4.83502 4.21982 4.87659 4.29741 4.89344 4.3819C4.91029 4.46639 4.90167 4.55398 4.86868 4.63356C4.83569 4.71315 4.77981 4.78115 4.70812 4.82894C4.63644 4.87672 4.55218 4.90215 4.46602 4.90198V4.90298Z" fill="#FF9900"/>
</g>
<defs>
<clipPath id="clip0">
<rect width="20" height="20" fill="white"/>
</clipPath>
</defs>
</svg>
