<svg width="21" height="14" viewBox="0 0 21 14" fill="none" xmlns="http://www.w3.org/2000/svg">
<g clip-path="url(#clip0)">
<path d="M7.75195 5.625C7.75195 4.127 9.92695 0.899997 10.362 0.269997C10.4195 0.186667 10.4965 0.118554 10.5862 0.0715057C10.6759 0.0244571 10.7757 -0.00012207 10.877 -0.00012207C10.9782 -0.00012207 11.078 0.0244571 11.1677 0.0715057C11.2574 0.118554 11.3344 0.186667 11.392 0.269997C11.827 0.899997 14.002 4.13 14.002 5.625C14.002 6.4538 13.6727 7.24865 13.0867 7.83471C12.5006 8.42076 11.7058 8.75 10.877 8.75C10.0482 8.75 9.2533 8.42076 8.66724 7.83471C8.08119 7.24865 7.75195 6.4538 7.75195 5.625V5.625Z" fill="#1877F2"/>
<path d="M14.627 10.625C14.627 9.127 16.802 5.9 17.237 5.27C17.2945 5.18667 17.3715 5.11855 17.4612 5.07151C17.5509 5.02446 17.6507 4.99988 17.752 4.99988C17.8532 4.99988 17.953 5.02446 18.0427 5.07151C18.1324 5.11855 18.2094 5.18667 18.267 5.27C18.703 5.9 20.877 9.128 20.877 10.625C20.877 11.4538 20.5477 12.2487 19.9617 12.8347C19.3756 13.4208 18.5808 13.75 17.752 13.75C16.9232 13.75 16.1283 13.4208 15.5422 12.8347C14.9562 12.2487 14.627 11.4538 14.627 10.625V10.625Z" fill="#1877F2"/>
<path d="M0.876953 10.625C0.876953 9.12697 3.05195 5.89997 3.48795 5.26997C3.54542 5.18664 3.62227 5.11852 3.7119 5.07146C3.80152 5.0244 3.90123 4.99982 4.00245 4.99982C4.10368 4.99982 4.20339 5.0244 4.29301 5.07146C4.38263 5.11852 4.45948 5.18664 4.51695 5.26997C4.95195 5.89997 7.12695 9.12997 7.12695 10.625C7.12695 11.4538 6.79771 12.2486 6.21166 12.8347C5.62561 13.4207 4.83075 13.75 4.00195 13.75C3.17315 13.75 2.3783 13.4207 1.79224 12.8347C1.20619 12.2486 0.876953 11.4538 0.876953 10.625H0.876953Z" fill="#1877F2"/>
</g>
<defs>
<clipPath id="clip0">
<rect width="20" height="13.75" fill="white" transform="translate(0.876953)"/>
</clipPath>
</defs>
</svg>
