<svg width="48" height="48" viewBox="0 0 48 48" fill="none" xmlns="http://www.w3.org/2000/svg">
<path d="M24 1.5V16.5" stroke="#005CA2" stroke-width="3" stroke-linecap="round" stroke-linejoin="round"/>
<path d="M31.5 4.5L24 10.5L16.5 4.5" stroke="#005CA2" stroke-width="3" stroke-linecap="round" stroke-linejoin="round"/>
<path d="M4.51367 12.75L17.5037 20.25" stroke="#005CA2" stroke-width="3" stroke-linecap="round" stroke-linejoin="round"/>
<path d="M10.8613 7.75403L12.3073 17.25L3.36133 20.746" stroke="#005CA2" stroke-width="3" stroke-linecap="round" stroke-linejoin="round"/>
<path d="M4.51367 35.25L17.5037 27.75" stroke="#005CA2" stroke-width="3" stroke-linecap="round" stroke-linejoin="round"/>
<path d="M3.36133 27.254L12.3073 30.75L10.8613 40.246" stroke="#005CA2" stroke-width="3" stroke-linecap="round" stroke-linejoin="round"/>
<path d="M24 46.5V31.5" stroke="#005CA2" stroke-width="3" stroke-linecap="round" stroke-linejoin="round"/>
<path d="M16.5 43.5L24 37.5L31.5 43.5" stroke="#005CA2" stroke-width="3" stroke-linecap="round" stroke-linejoin="round"/>
<path d="M43.4861 35.25L30.4961 27.75" stroke="#005CA2" stroke-width="3" stroke-linecap="round" stroke-linejoin="round"/>
<path d="M37.1374 40.246L35.6914 30.75L44.6374 27.254" stroke="#005CA2" stroke-width="3" stroke-linecap="round" stroke-linejoin="round"/>
<path d="M43.4861 12.75L30.4961 20.25" stroke="#005CA2" stroke-width="3" stroke-linecap="round" stroke-linejoin="round"/>
<path d="M44.6374 20.746L35.6914 17.25L37.1374 7.75403" stroke="#005CA2" stroke-width="3" stroke-linecap="round" stroke-linejoin="round"/>
<path d="M23.9999 16.5L17.5039 20.25V27.75L23.9999 31.5L30.4959 27.75V20.25L23.9999 16.5Z" stroke="#005CA2" stroke-width="3" stroke-linecap="round" stroke-linejoin="round"/>
</svg>
