<svg width="48" height="48" viewBox="0 0 48 48" fill="none" xmlns="http://www.w3.org/2000/svg">
    <path d="M10.5 24C10.5 27.5804 11.9223 31.0142 14.4541 33.5459C16.9858 36.0777 20.4196 37.5 24 37.5C27.5804 37.5 31.0142 36.0777 33.5459 33.5459C36.0777 31.0142 37.5 27.5804 37.5 24C37.5 20.4196 36.0777 16.9858 33.5459 14.4541C31.0142 11.9223 27.5804 10.5 24 10.5C20.4196 10.5 16.9858 11.9223 14.4541 14.4541C11.9223 16.9858 10.5 20.4196 10.5 24V24Z" stroke="#FFFFFF" stroke-width="3" stroke-linecap="round" stroke-linejoin="round"/>
    <path d="M24 4.5V1.5" stroke="#FFFFFF" stroke-width="3" stroke-linecap="round" stroke-linejoin="round"/>
    <path d="M37.7871 10.212L39.9091 8.08997" stroke="#FFFFFF" stroke-width="3" stroke-linecap="round" stroke-linejoin="round"/>
    <path d="M43.5 24H46.5" stroke="#FFFFFF" stroke-width="3" stroke-linecap="round" stroke-linejoin="round"/>
    <path d="M37.7871 37.788L39.9091 39.91" stroke="#FFFFFF" stroke-width="3" stroke-linecap="round" stroke-linejoin="round"/>
    <path d="M24 43.5V46.5" stroke="#FFFFFF" stroke-width="3" stroke-linecap="round" stroke-linejoin="round"/>
    <path d="M10.2118 37.788L8.08984 39.91" stroke="#FFFFFF" stroke-width="3" stroke-linecap="round" stroke-linejoin="round"/>
    <path d="M4.5 24H1.5" stroke="#FFFFFF" stroke-width="3" stroke-linecap="round" stroke-linejoin="round"/>
    <path d="M10.2118 10.212L8.08984 8.08997" stroke="#FFFFFF" stroke-width="3" stroke-linecap="round" stroke-linejoin="round"/>
</svg>
