<svg width="21" height="15" viewBox="0 0 21 15" fill="none" xmlns="http://www.w3.org/2000/svg">
<g clip-path="url(#clip0)">
<path d="M1.54243 6.66701C1.45273 6.67048 1.36326 6.65582 1.27936 6.62389C1.19547 6.59196 1.11888 6.54342 1.05419 6.48119C0.989498 6.41896 0.938035 6.34431 0.902882 6.26171C0.867729 6.17912 0.849609 6.09027 0.849609 6.00051C0.849609 5.91074 0.867729 5.8219 0.902882 5.73931C0.938035 5.65671 0.989498 5.58206 1.05419 5.51983C1.11888 5.45759 1.19547 5.40906 1.27936 5.37713C1.36326 5.3452 1.45273 5.33053 1.54243 5.33401H17.5424C17.938 5.33401 18.3247 5.21671 18.6536 4.99695C18.9825 4.77718 19.2388 4.46483 19.3902 4.09938C19.5416 3.73392 19.5812 3.33179 19.504 2.94383C19.4268 2.55587 19.2364 2.1995 18.9566 1.9198C18.6769 1.64009 18.3206 1.44961 17.9326 1.37244C17.5447 1.29527 17.1425 1.33487 16.7771 1.48625C16.4116 1.63762 16.0993 1.89397 15.8795 2.22287C15.6597 2.55177 15.5424 2.93845 15.5424 3.33401C15.5358 3.50631 15.4626 3.66933 15.3384 3.78887C15.2141 3.90841 15.0484 3.97519 14.8759 3.97519C14.7035 3.97519 14.5378 3.90841 14.4135 3.78887C14.2892 3.66933 14.2161 3.50631 14.2094 3.33401C14.2094 2.6748 14.4049 2.0304 14.7711 1.48229C15.1374 0.934184 15.6579 0.506985 16.2669 0.254718C16.876 0.00245121 17.5461 -0.0635533 18.1927 0.0650512C18.8392 0.193656 19.4331 0.511093 19.8992 0.977222C20.3653 1.44335 20.6828 2.03723 20.8114 2.68377C20.94 3.33031 20.874 4.00047 20.6217 4.60949C20.3695 5.21852 19.9423 5.73906 19.3941 6.1053C18.846 6.47153 18.2016 6.66701 17.5424 6.66701H1.54243Z" fill="black"/>
<path d="M12.2076 14.667C11.3238 14.6659 10.4765 14.3143 9.8516 13.6893C9.22674 13.0642 8.87536 12.2168 8.87457 11.333C8.87109 11.2433 8.88576 11.1538 8.91769 11.0699C8.94962 10.986 8.99815 10.9094 9.06039 10.8448C9.12262 10.7801 9.19727 10.7286 9.27987 10.6935C9.36246 10.6583 9.4513 10.6402 9.54107 10.6402C9.63084 10.6402 9.71968 10.6583 9.80227 10.6935C9.88487 10.7286 9.95952 10.7801 10.0218 10.8448C10.084 10.9094 10.1325 10.986 10.1644 11.0699C10.1964 11.1538 10.211 11.2433 10.2076 11.333C10.2076 11.7286 10.3249 12.1152 10.5446 12.4441C10.7644 12.773 11.0768 13.0294 11.4422 13.1808C11.8077 13.3321 12.2098 13.3717 12.5978 13.2946C12.9857 13.2174 13.3421 13.0269 13.6218 12.7472C13.9015 12.4675 14.092 12.1111 14.1691 11.7232C14.2463 11.3352 14.2067 10.9331 14.0553 10.5676C13.904 10.2022 13.6476 9.88982 13.3187 9.67006C12.9898 9.4503 12.6031 9.333 12.2076 9.333H1.54157C1.36927 9.32632 1.20625 9.25318 1.08671 9.12892C0.967166 9.00466 0.900391 8.83893 0.900391 8.6665C0.900391 8.49407 0.967166 8.32834 1.08671 8.20408C1.20625 8.07982 1.36927 8.00668 1.54157 8H12.2076C12.6453 8 13.0788 8.08622 13.4832 8.25375C13.8877 8.42127 14.2552 8.66682 14.5647 8.97636C14.8743 9.2859 15.1198 9.65339 15.2873 10.0578C15.4548 10.4623 15.5411 10.8957 15.5411 11.3335C15.5411 11.7713 15.4548 12.2047 15.2873 12.6092C15.1198 13.0136 14.8743 13.3811 14.5647 13.6906C14.2552 14.0002 13.8877 14.2457 13.4832 14.4133C13.0788 14.5808 12.6453 14.667 12.2076 14.667Z" fill="black"/>
</g>
<defs>
<clipPath id="clip0">
<rect width="20" height="14.667" fill="white" transform="translate(0.875)"/>
</clipPath>
</defs>
</svg>
