<svg width="48" height="48" viewBox="0 0 48 48" fill="none" xmlns="http://www.w3.org/2000/svg">
<path d="M31.5 7.5V1.5" stroke="#FF9900" stroke-width="3" stroke-linecap="round" stroke-linejoin="round"/>
<path d="M40.5 16.5H46.5" stroke="#FF9900" stroke-width="3" stroke-linecap="round" stroke-linejoin="round"/>
<path d="M25.1365 10.136L20.8945 5.89404" stroke="#FF9900" stroke-width="3" stroke-linecap="round" stroke-linejoin="round"/>
<path d="M37.8633 10.136L42.1053 5.89404" stroke="#FF9900" stroke-width="3" stroke-linecap="round" stroke-linejoin="round"/>
<path d="M38.9991 21.468C39.674 20.4635 40.1394 19.3332 40.3675 18.1448C40.5955 16.9563 40.5816 15.7341 40.3264 14.5511C40.0713 13.3682 39.5802 12.2488 38.8825 11.26C38.1849 10.2712 37.295 9.43327 36.266 8.79629C35.2371 8.1593 34.0903 7.73637 32.8941 7.55278C31.698 7.36919 30.4771 7.42871 29.3045 7.72779C28.1319 8.02686 27.0316 8.55935 26.0695 9.2934C25.1074 10.0274 24.3032 10.948 23.7051 12" stroke="#FF9900" stroke-width="3" stroke-linecap="round" stroke-linejoin="round"/>
<path d="M1.70618 27.682C1.22561 24.604 1.96089 21.4597 3.75657 18.914C5.55224 16.3683 8.26754 14.6207 11.3284 14.0407C14.3892 13.4607 17.5556 14.0937 20.1582 15.806C22.7607 17.5183 24.5953 20.1756 25.2742 23.216C26.6631 22.55 28.2236 22.3285 29.743 22.5818C31.2624 22.8351 32.6667 23.5507 33.7644 24.6312C34.8622 25.7118 35.6001 27.1045 35.8774 28.6197C36.1548 30.1349 35.9581 31.6987 35.3142 33.098" stroke="#005CA2" stroke-width="3" stroke-linecap="round" stroke-linejoin="round"/>
<path d="M25.4994 25.4599C25.4995 25.9614 25.4681 26.4624 25.4054 26.9599C25.4681 26.4624 25.4995 25.9614 25.4994 25.4599C25.4968 24.7064 25.4211 23.9549 25.2734 23.2159" stroke="#005CA2" stroke-width="3" stroke-linecap="round" stroke-linejoin="round"/>
<path d="M1.5 40.5H25.5C26.2956 40.5 27.0587 40.8161 27.6213 41.3787C28.1839 41.9413 28.5 42.7044 28.5 43.5C28.5 44.2956 28.1839 45.0587 27.6213 45.6213C27.0587 46.1839 26.2956 46.5 25.5 46.5H24" stroke="#005CA2" stroke-width="3" stroke-linecap="round" stroke-linejoin="round"/>
<path d="M1.5 34.5H18C18.7956 34.5 19.5587 34.1839 20.1213 33.6213C20.6839 33.0587 21 32.2956 21 31.5C21 30.7044 20.6839 29.9413 20.1213 29.3787C19.5587 28.8161 18.7956 28.5 18 28.5H16.5" stroke="#005CA2" stroke-width="3" stroke-linecap="round" stroke-linejoin="round"/>
</svg>
