<svg width="13" height="22" viewBox="0 0 13 22" fill="none" xmlns="http://www.w3.org/2000/svg">
<g clip-path="url(#clip0_341_6910)">
<path d="M12.3704 19.985C12.3704 20.221 12.2766 20.4474 12.1097 20.6143C11.9428 20.7812 11.7164 20.875 11.4803 20.875H1.71036C1.41862 20.875 1.13882 20.7591 0.932526 20.5528C0.726236 20.3465 0.610352 20.0667 0.610352 19.775V2.16504C0.610352 1.8733 0.726236 1.5935 0.932526 1.38721C1.13882 1.18092 1.41862 1.06494 1.71036 1.06494H11.2504C11.5421 1.06494 11.8219 1.18092 12.0282 1.38721C12.2345 1.5935 12.3504 1.8733 12.3504 2.16504L12.3704 19.985Z" stroke="#143C6D" stroke-linecap="round" stroke-linejoin="round"/>
<path d="M7.59941 19.4449H5.39941" stroke="#143C6D" stroke-linecap="round" stroke-linejoin="round"/>
<path d="M12.3699 17.975H0.629883" stroke="#143C6D" stroke-linecap="round" stroke-linejoin="round"/>
<path d="M12.3699 3.29492H0.629883" stroke="#143C6D" stroke-linecap="round" stroke-linejoin="round"/>
</g>
<defs>
<clipPath id="clip0_341_6910">
<rect width="12.74" height="20.81" fill="white" transform="translate(0.129883 0.594971)"/>
</clipPath>
</defs>
</svg>
