<svg xmlns="http://www.w3.org/2000/svg" width="32" height="32" viewBox="0 0 32 32" fill="none">
<g clip-path="url(#clip0_4238_79162)">
<path d="M13.36 32C5.76 30.6332 0 24.0402 0 16.0804C0 7.23618 7.2 0 16 0C24.8 0 32 7.23618 32 16.0804C32 24.0402 26.24 30.6332 18.64 32L17.76 31.2764H14.24L13.36 32Z" fill="url(#paint0_linear_4238_79162)"/>
<path d="M22.2399 20.4802L22.9599 16.0002H18.7199V12.8802C18.7199 11.6002 19.1999 10.6402 21.1199 10.6402H23.1999V6.56023C22.0799 6.40023 20.7999 6.24023 19.6799 6.24023C15.9999 6.24023 13.4399 8.48023 13.4399 12.4802V16.0002H9.43994V20.4802H13.4399V31.7602C14.3199 31.9202 15.1999 32.0002 16.0799 32.0002C16.9599 32.0002 17.8399 31.9202 18.7199 31.7602V20.4802H22.2399Z" fill="white"/>
</g>
<defs>
<linearGradient id="paint0_linear_4238_79162" x1="16.0008" y1="31.0423" x2="16.0008" y2="-0.00592384" gradientUnits="userSpaceOnUse">
<stop stop-color="#0062E0"/>
<stop offset="1" stop-color="#19AFFF"/>
</linearGradient>
<clipPath id="clip0_4238_79162">
<rect width="32" height="32" fill="white"/>
</clipPath>
</defs>
</svg>