<svg id="quote" xmlns="http://www.w3.org/2000/svg" viewBox="0 0 100 70" fill="none">
<g opacity="0.15" clip-path="url(#clip0_656_4423)">
<path d="M14.875 61.25L23.3333 46.6667C16.9167 46.6667 11.4236 44.3819 6.85417 39.8125C2.28472 35.2431 0 29.75 0 23.3333C0 16.9167 2.28472 11.4236 6.85417 6.85417C11.4236 2.28472 16.9167 0 23.3333 0C29.75 0 35.2431 2.28472 39.8125 6.85417C44.3819 11.4236 46.6667 16.9167 46.6667 23.3333C46.6667 25.5694 46.3993 27.6354 45.8646 29.5312C45.3299 31.4271 44.5278 33.25 43.4583 35L24.9375 67.0833C24.4514 67.9583 23.7708 68.6632 22.8958 69.1979C22.0208 69.7326 21.0486 70 19.9792 70C17.7431 70 16.066 69.0278 14.9479 67.0833C13.8299 65.1389 13.8056 63.1944 14.875 61.25ZM67.375 61.25L75.8333 46.6667C69.4167 46.6667 63.9236 44.3819 59.3542 39.8125C54.7847 35.2431 52.5 29.75 52.5 23.3333C52.5 16.9167 54.7847 11.4236 59.3542 6.85417C63.9236 2.28472 69.4167 0 75.8333 0C82.25 0 87.7431 2.28472 92.3125 6.85417C96.882 11.4236 99.1667 16.9167 99.1667 23.3333C99.1667 25.5694 98.8993 27.6354 98.3646 29.5312C97.8299 31.4271 97.0278 33.25 95.9583 35L77.4375 67.0833C76.9514 67.9583 76.2708 68.6632 75.3958 69.1979C74.5208 69.7326 73.5486 70 72.4792 70C70.2431 70 68.566 69.0278 67.4479 67.0833C66.3299 65.1389 66.3056 63.1944 67.375 61.25Z" fill="#4E9196"/>
</g>
<defs>
<clipPath id="clip0_656_4423">
<rect width="99.5556" height="70" fill="white"/>
</clipPath>
</defs>
</svg>