<svg xmlns="http://www.w3.org/2000/svg" xmlns:xlink="http://www.w3.org/1999/xlink" width="150px" height="36px" viewBox="0 0 149 36" version="1.1">
<defs>
<filter id="alpha" filterUnits="objectBoundingBox" x="0%" y="0%" width="100%" height="100%">
  <feColorMatrix type="matrix" in="SourceGraphic" values="0 0 0 0 1 0 0 0 0 1 0 0 0 0 1 0 0 0 1 0"/>
</filter>
<mask id="mask0">
  <g filter="url(#alpha)">
<rect x="0" y="0" width="149" height="36" style="fill:rgb(0%,0%,0%);fill-opacity:0.2;stroke:none;"/>
  </g>
</mask>
<clipPath id="clip1">
  <rect x="0" y="0" width="149" height="36"/>
</clipPath>
<g id="surface5" clip-path="url(#clip1)">
<path style=" stroke:none;fill-rule:nonzero;fill:rgb(0%,30.196078%,25.098039%);fill-opacity:1;" d="M 31.929688 6.90625 L 24.171875 5.90625 L 31.929688 8 Z M 31.929688 6.90625 "/>
</g>
<mask id="mask1">
  <g filter="url(#alpha)">
<rect x="0" y="0" width="149" height="36" style="fill:rgb(0%,0%,0%);fill-opacity:0.2;stroke:none;"/>
  </g>
</mask>
<clipPath id="clip2">
  <rect x="0" y="0" width="149" height="36"/>
</clipPath>
<g id="surface8" clip-path="url(#clip2)">
<path style=" stroke:none;fill-rule:nonzero;fill:rgb(0%,30.196078%,25.098039%);fill-opacity:1;" d="M 20.960938 2.714844 L 9.203125 8 L 22.203125 3.242188 L 22.203125 3.230469 C 21.972656 2.742188 21.421875 2.507812 20.960938 2.714844 Z M 20.960938 2.714844 "/>
</g>
<mask id="mask2">
  <g filter="url(#alpha)">
<rect x="0" y="0" width="149" height="36" style="fill:rgb(0%,0%,0%);fill-opacity:0.2;stroke:none;"/>
  </g>
</mask>
<clipPath id="clip3">
  <rect x="0" y="0" width="149" height="36"/>
</clipPath>
<g id="surface11" clip-path="url(#clip3)">
<path style=" stroke:none;fill-rule:nonzero;fill:rgb(100%,100%,100%);fill-opacity:1;" d="M 30.957031 1.648438 L 10.226562 1.648438 C 9.6875 1.648438 9.242188 2.085938 9.242188 2.625 L 9.242188 2.84375 C 9.242188 2.304688 9.675781 1.867188 10.226562 1.867188 L 30.957031 1.867188 C 31.496094 1.867188 31.941406 2.304688 31.941406 2.84375 L 31.941406 2.625 C 31.929688 2.097656 31.496094 1.648438 30.957031 1.648438 Z M 30.957031 1.648438 "/>
</g>
<mask id="mask3">
  <g filter="url(#alpha)">
<rect x="0" y="0" width="149" height="36" style="fill:rgb(0%,0%,0%);fill-opacity:0.2;stroke:none;"/>
  </g>
</mask>
<clipPath id="clip4">
  <rect x="0" y="0" width="149" height="36"/>
</clipPath>
<g id="surface14" clip-path="url(#clip4)">
<path style=" stroke:none;fill-rule:nonzero;fill:rgb(24.313725%,15.294118%,13.72549%);fill-opacity:1;" d="M 35.417969 17.210938 L 36.429688 23.371094 L 35.417969 27.164062 Z M 35.417969 17.210938 "/>
</g>
<mask id="mask4">
  <g filter="url(#alpha)">
<rect x="0" y="0" width="149" height="36" style="fill:rgb(0%,0%,0%);fill-opacity:0.2;stroke:none;"/>
  </g>
</mask>
<clipPath id="clip5">
  <rect x="0" y="0" width="149" height="36"/>
</clipPath>
<g id="surface17" clip-path="url(#clip5)">
<path style=" stroke:none;fill-rule:nonzero;fill:rgb(24.313725%,15.294118%,13.72549%);fill-opacity:1;" d="M 24.261719 6.160156 L 25.15625 6.40625 L 25.71875 10.214844 Z M 24.261719 6.160156 "/>
</g>
<mask id="mask5">
  <g filter="url(#alpha)">
<rect x="0" y="0" width="149" height="36" style="fill:rgb(0%,0%,0%);fill-opacity:0.2;stroke:none;"/>
  </g>
</mask>
<clipPath id="clip6">
  <rect x="0" y="0" width="149" height="36"/>
</clipPath>
<g id="surface20" clip-path="url(#clip6)">
<path style=" stroke:none;fill-rule:nonzero;fill:rgb(100%,100%,100%);fill-opacity:1;" d="M 39.125 9.957031 L 19.925781 4.761719 C 19.441406 4.632812 18.941406 4.953125 18.800781 5.480469 L 14.277344 22.457031 C 14.265625 22.480469 14.265625 22.507812 14.265625 22.546875 L 18.75 5.699219 C 18.890625 5.171875 19.402344 4.851562 19.875 4.980469 L 39.074219 10.175781 C 39.535156 10.304688 39.804688 10.777344 39.714844 11.28125 L 39.753906 11.152344 C 39.878906 10.625 39.613281 10.085938 39.125 9.957031 Z M 39.125 9.957031 "/>
</g>
<mask id="mask6">
  <g filter="url(#alpha)">
<rect x="0" y="0" width="149" height="36" style="fill:rgb(0%,0%,0%);fill-opacity:0.2;stroke:none;"/>
  </g>
</mask>
<clipPath id="clip7">
  <rect x="0" y="0" width="149" height="36"/>
</clipPath>
<g id="surface23" clip-path="url(#clip7)">
<path style=" stroke:none;fill-rule:nonzero;fill:rgb(100%,100%,100%);fill-opacity:1;" d="M 1.546875 12.089844 C 1.367188 11.578125 1.597656 11.023438 2.058594 10.855469 L 22.316406 3.433594 C 22.777344 3.269531 23.300781 3.539062 23.492188 4.039062 L 23.429688 3.847656 C 23.25 3.332031 22.714844 3.0625 22.242188 3.230469 L 1.980469 10.648438 C 1.507812 10.816406 1.277344 11.382812 1.46875 11.886719 L 7.4375 28.410156 C 7.4375 28.410156 7.4375 28.421875 7.453125 28.421875 Z M 1.546875 12.089844 "/>
</g>
<mask id="mask7">
  <g filter="url(#alpha)">
<rect x="0" y="0" width="149" height="36" style="fill:rgb(0%,0%,0%);fill-opacity:0.2;stroke:none;"/>
  </g>
</mask>
<clipPath id="clip8">
  <rect x="0" y="0" width="149" height="36"/>
</clipPath>
<g id="surface26" clip-path="url(#clip8)">
<path style=" stroke:none;fill-rule:nonzero;fill:rgb(10.196078%,13.72549%,49.411765%);fill-opacity:1;" d="M 34.433594 33.027344 L 6.75 33.027344 C 6.210938 33.027344 5.765625 32.578125 5.765625 32.039062 L 5.765625 32.253906 C 5.765625 32.796875 6.210938 33.246094 6.75 33.246094 L 34.449219 33.246094 C 34.984375 33.246094 35.433594 32.796875 35.433594 32.253906 L 35.433594 32.039062 C 35.417969 32.589844 34.984375 33.027344 34.433594 33.027344 Z M 34.433594 33.027344 "/>
</g>
<mask id="mask8">
  <g filter="url(#alpha)">
<rect x="0" y="0" width="149" height="36" style="fill:rgb(0%,0%,0%);fill-opacity:0.2;stroke:none;"/>
  </g>
</mask>
<clipPath id="clip9">
  <rect x="0" y="0" width="149" height="36"/>
</clipPath>
<g id="surface29" clip-path="url(#clip9)">
<path style=" stroke:none;fill-rule:nonzero;fill:rgb(100%,100%,100%);fill-opacity:1;" d="M 6.75 10.429688 L 34.449219 10.429688 C 34.984375 10.429688 35.433594 10.882812 35.433594 11.421875 L 35.433594 11.203125 C 35.433594 10.664062 34.984375 10.214844 34.449219 10.214844 L 6.75 10.214844 C 6.210938 10.214844 5.765625 10.664062 5.765625 11.203125 L 5.765625 11.421875 C 5.765625 10.867188 6.199219 10.429688 6.75 10.429688 Z M 6.75 10.429688 "/>
</g>
<mask id="mask9">
  <g filter="url(#alpha)">
<rect x="0" y="0" width="149" height="36" style="fill:rgb(0%,0%,0%);fill-opacity:0.2;stroke:none;"/>
  </g>
</mask>
<clipPath id="clip10">
  <rect x="0" y="0" width="149" height="36"/>
</clipPath>
<g id="surface32" clip-path="url(#clip10)">
<path style=" stroke:none;fill-rule:nonzero;fill:rgb(10.196078%,13.72549%,49.411765%);fill-opacity:1;" d="M 14.480469 22.726562 L 14.480469 22.945312 L 17.253906 22.945312 C 17.28125 22.867188 17.292969 22.804688 17.308594 22.726562 Z M 14.480469 22.726562 "/>
<path style=" stroke:none;fill-rule:nonzero;fill:rgb(10.196078%,13.72549%,49.411765%);fill-opacity:1;" d="M 14.480469 26.878906 C 11.632812 26.878906 9.304688 24.578125 9.253906 21.722656 C 9.253906 21.761719 9.253906 21.800781 9.253906 21.839844 C 9.253906 24.746094 11.59375 27.097656 14.480469 27.097656 C 17.5 27.097656 19.492188 24.964844 19.492188 21.953125 C 19.492188 21.929688 19.492188 21.902344 19.492188 21.878906 C 19.429688 24.824219 17.460938 26.878906 14.480469 26.878906 Z M 16.488281 19.226562 C 15.9375 18.699219 15.25 18.445312 14.480469 18.445312 C 12.769531 18.445312 11.375 19.898438 11.375 21.621094 C 11.375 21.660156 11.375 21.699219 11.375 21.734375 C 11.441406 20.0625 12.792969 18.664062 14.46875 18.664062 C 15.234375 18.664062 15.925781 18.933594 16.476562 19.445312 L 18.074219 17.839844 C 18.035156 17.800781 17.996094 17.773438 17.957031 17.738281 Z M 16.488281 19.226562 "/>
</g>
<mask id="mask10">
  <g filter="url(#alpha)">
<rect x="0" y="0" width="149" height="36" style="fill:rgb(0%,0%,0%);fill-opacity:0.2;stroke:none;"/>
  </g>
</mask>
<clipPath id="clip11">
  <rect x="0" y="0" width="149" height="36"/>
</clipPath>
<g id="surface35" clip-path="url(#clip11)">
<path style=" stroke:none;fill-rule:nonzero;fill:rgb(10.196078%,13.72549%,49.411765%);fill-opacity:1;" d="M 30.5625 18.328125 L 30.5625 18.109375 C 30.5625 18.355469 30.371094 18.546875 30.128906 18.546875 L 21.84375 18.546875 L 21.84375 18.765625 L 30.128906 18.765625 C 30.371094 18.765625 30.5625 18.574219 30.5625 18.328125 Z M 30.128906 26.878906 L 21.84375 26.878906 L 21.84375 27.097656 L 30.128906 27.097656 C 30.371094 27.097656 30.5625 26.90625 30.5625 26.660156 L 30.5625 26.441406 C 30.5625 26.6875 30.371094 26.878906 30.128906 26.878906 Z M 31.445312 22.714844 L 21.84375 22.714844 L 21.84375 22.933594 L 31.445312 22.933594 C 31.6875 22.933594 31.878906 22.738281 31.878906 22.496094 L 31.878906 22.277344 C 31.878906 22.519531 31.6875 22.714844 31.445312 22.714844 Z M 31.445312 22.714844 "/>
</g>
<radialGradient id="radial0" gradientUnits="userSpaceOnUse" cx="78.666" cy="5360.2637" fx="78.666" fy="5360.2637" r="292.0192" gradientTransform="matrix(0.12782,0,0,-0.128605,0,693.565933)">
<stop offset="0" style="stop-color:rgb(100%,100%,100%);stop-opacity:0.101961;"/>
<stop offset="1" style="stop-color:rgb(100%,100%,100%);stop-opacity:0;"/>
</radialGradient>
<clipPath id="clip12">
  <rect x="0" y="0" width="149" height="36"/>
</clipPath>
<g id="surface38" clip-path="url(#clip12)">
<path style=" stroke:none;fill-rule:nonzero;fill:rgb(20%,20%,20%);fill-opacity:1;" d="M 107.625 29.066406 L 106 29.066406 L 106 17.066406 L 107.984375 17.066406 L 114.128906 26.390625 L 114.207031 26.390625 L 114.128906 24.078125 L 114.128906 17.054688 L 115.753906 17.054688 L 115.753906 29.054688 L 114.054688 29.054688 L 107.625 19.292969 L 107.546875 19.292969 L 107.625 21.605469 Z M 107.625 29.066406 "/>
<path style=" stroke:none;fill-rule:nonzero;fill:rgb(20%,20%,20%);fill-opacity:1;" d="M 121.902344 29.335938 C 120.636719 29.335938 119.589844 28.925781 118.757812 28.101562 C 117.941406 27.277344 117.519531 26.238281 117.519531 24.964844 C 117.519531 23.714844 117.914062 22.675781 118.71875 21.839844 C 119.523438 21.003906 120.546875 20.589844 121.785156 20.589844 C 123.066406 20.589844 124.085938 20.988281 124.855469 21.773438 C 125.609375 22.558594 125.992188 23.664062 125.992188 25.078125 L 125.980469 25.246094 L 119.179688 25.246094 C 119.207031 26.058594 119.484375 26.699219 120.023438 27.1875 C 120.558594 27.675781 121.210938 27.921875 121.964844 27.921875 C 123 27.921875 123.820312 27.433594 124.40625 26.441406 L 125.851562 27.113281 C 125.46875 27.804688 124.917969 28.347656 124.242188 28.730469 C 123.5625 29.117188 122.769531 29.335938 121.902344 29.335938 Z M 119.308594 23.988281 L 124.265625 23.988281 C 124.214844 23.421875 123.972656 22.945312 123.539062 22.570312 C 123.089844 22.199219 122.503906 22.007812 121.761719 22.007812 C 121.148438 22.007812 120.625 22.1875 120.175781 22.546875 C 119.742188 22.894531 119.449219 23.382812 119.308594 23.988281 Z M 119.308594 23.988281 "/>
<path style=" stroke:none;fill-rule:nonzero;fill:rgb(20%,20%,20%);fill-opacity:1;" d="M 139.554688 20.863281 L 136.769531 29.066406 L 135.105469 29.066406 L 132.945312 22.765625 L 130.8125 29.066406 L 129.175781 29.066406 L 126.386719 20.863281 L 128.089844 20.863281 L 130.019531 27.058594 L 130.03125 27.058594 L 132.167969 20.863281 L 133.839844 20.863281 L 135.976562 27.058594 L 135.988281 27.058594 L 137.890625 20.863281 Z M 139.554688 20.863281 "/>
<path style=" stroke:none;fill-rule:nonzero;fill:rgb(20%,20%,20%);fill-opacity:1;" d="M 147.234375 26.789062 C 147.234375 27.511719 146.902344 28.101562 146.25 28.601562 C 145.585938 29.09375 144.757812 29.335938 143.757812 29.335938 C 142.890625 29.335938 142.125 29.117188 141.457031 28.695312 C 140.792969 28.269531 140.332031 27.703125 140.039062 26.996094 L 141.484375 26.40625 C 141.703125 26.894531 142.007812 27.277344 142.417969 27.550781 C 142.828125 27.820312 143.273438 27.960938 143.746094 27.960938 C 144.269531 27.960938 144.691406 27.859375 145.050781 27.640625 C 145.394531 27.433594 145.574219 27.175781 145.574219 26.878906 C 145.574219 26.351562 145.152344 25.96875 144.308594 25.722656 L 142.828125 25.375 C 141.140625 24.976562 140.296875 24.207031 140.296875 23.0625 C 140.296875 22.316406 140.613281 21.710938 141.253906 21.261719 C 141.894531 20.808594 142.710938 20.578125 143.722656 20.578125 C 144.488281 20.578125 145.179688 20.746094 145.792969 21.09375 C 146.40625 21.441406 146.839844 21.902344 147.09375 22.480469 L 145.652344 23.046875 C 145.484375 22.699219 145.214844 22.429688 144.847656 22.238281 C 144.476562 22.042969 144.066406 21.941406 143.605469 21.941406 C 143.183594 21.941406 142.800781 22.042969 142.46875 22.238281 C 142.136719 22.429688 141.96875 22.6875 141.96875 22.96875 C 141.96875 23.433594 142.429688 23.78125 143.363281 23.972656 L 144.667969 24.296875 C 146.378906 24.734375 147.234375 25.554688 147.234375 26.789062 Z M 147.234375 26.789062 "/>
</g>
<clipPath id="clip13">
  <rect x="0" y="0" width="149" height="36"/>
</clipPath>
<g id="surface41" clip-path="url(#clip13)">
<path style=" stroke:none;fill-rule:nonzero;fill:rgb(20%,20%,20%);fill-opacity:1;" d="M 45.425781 7.976562 L 45.425781 10.703125 L 44.570312 10.703125 L 44.570312 4.347656 L 48.480469 4.347656 L 48.480469 5.132812 L 45.425781 5.132812 L 45.425781 7.214844 L 48.175781 7.214844 L 48.175781 7.976562 Z M 45.425781 7.976562 "/>
<path style=" stroke:none;fill-rule:nonzero;fill:rgb(20%,20%,20%);fill-opacity:1;" d="M 55.921875 7.523438 C 55.921875 8.464844 55.589844 9.25 54.925781 9.890625 C 54.257812 10.535156 53.441406 10.855469 52.46875 10.855469 C 51.5 10.855469 50.679688 10.535156 50.015625 9.890625 C 49.351562 9.261719 49.019531 8.476562 49.019531 7.523438 C 49.019531 6.585938 49.351562 5.800781 50.015625 5.160156 C 50.679688 4.515625 51.5 4.195312 52.46875 4.195312 C 53.441406 4.195312 54.257812 4.515625 54.925781 5.160156 C 55.589844 5.800781 55.921875 6.585938 55.921875 7.523438 Z M 49.914062 7.523438 C 49.914062 8.257812 50.15625 8.863281 50.640625 9.351562 C 51.140625 9.828125 51.742188 10.070312 52.484375 10.070312 C 53.210938 10.070312 53.824219 9.828125 54.3125 9.351562 C 54.808594 8.875 55.050781 8.269531 55.050781 7.523438 C 55.050781 6.777344 54.808594 6.175781 54.3125 5.699219 C 53.824219 5.222656 53.210938 4.980469 52.484375 4.980469 C 51.753906 4.980469 51.140625 5.222656 50.640625 5.699219 C 50.15625 6.1875 49.914062 6.792969 49.914062 7.523438 Z M 49.914062 7.523438 "/>
<path style=" stroke:none;fill-rule:nonzero;fill:rgb(20%,20%,20%);fill-opacity:1;" d="M 60.703125 10.703125 L 56.945312 10.703125 L 56.945312 4.347656 L 57.800781 4.347656 L 57.800781 9.929688 L 60.703125 9.929688 Z M 60.703125 10.703125 "/>
<path style=" stroke:none;fill-rule:nonzero;fill:rgb(20%,20%,20%);fill-opacity:1;" d="M 65.367188 10.703125 L 61.609375 10.703125 L 61.609375 4.347656 L 62.464844 4.347656 L 62.464844 9.929688 L 65.367188 9.929688 Z M 65.367188 10.703125 "/>
<path style=" stroke:none;fill-rule:nonzero;fill:rgb(20%,20%,20%);fill-opacity:1;" d="M 72.679688 7.523438 C 72.679688 8.464844 72.347656 9.25 71.679688 9.890625 C 71.015625 10.535156 70.199219 10.855469 69.226562 10.855469 C 68.257812 10.855469 67.4375 10.535156 66.773438 9.890625 C 66.109375 9.261719 65.777344 8.476562 65.777344 7.523438 C 65.777344 6.585938 66.109375 5.800781 66.773438 5.160156 C 67.4375 4.515625 68.257812 4.195312 69.226562 4.195312 C 70.199219 4.195312 71.015625 4.515625 71.679688 5.160156 C 72.347656 5.800781 72.679688 6.585938 72.679688 7.523438 Z M 66.671875 7.523438 C 66.671875 8.257812 66.914062 8.863281 67.398438 9.351562 C 67.898438 9.828125 68.5 10.070312 69.238281 10.070312 C 69.96875 10.070312 70.582031 9.828125 71.066406 9.351562 C 71.566406 8.875 71.808594 8.269531 71.808594 7.523438 C 71.808594 6.777344 71.566406 6.175781 71.066406 5.699219 C 70.582031 5.222656 69.96875 4.980469 69.238281 4.980469 C 68.511719 4.980469 67.898438 5.222656 67.398438 5.699219 C 66.914062 6.1875 66.671875 6.792969 66.671875 7.523438 Z M 66.671875 7.523438 "/>
<path style=" stroke:none;fill-rule:nonzero;fill:rgb(20%,20%,20%);fill-opacity:1;" d="M 80.515625 4.347656 L 81.410156 4.347656 L 79.632812 10.703125 L 78.75 10.703125 L 77.304688 6.507812 L 77.265625 6.507812 L 75.824219 10.703125 L 74.941406 10.703125 L 73.074219 4.347656 L 73.96875 4.347656 L 75.386719 9.351562 L 75.425781 9.351562 L 76.882812 5.210938 L 77.6875 5.210938 L 79.144531 9.351562 L 79.183594 9.351562 Z M 80.515625 4.347656 "/>
<path style=" stroke:none;fill-rule:nonzero;fill:rgb(20%,20%,20%);fill-opacity:1;" d="M 90.675781 7.523438 C 90.675781 8.464844 90.34375 9.25 89.679688 9.890625 C 89.015625 10.535156 88.195312 10.855469 87.222656 10.855469 C 86.253906 10.855469 85.433594 10.535156 84.769531 9.890625 C 84.105469 9.261719 83.773438 8.476562 83.773438 7.523438 C 83.773438 6.585938 84.105469 5.800781 84.769531 5.160156 C 85.433594 4.515625 86.253906 4.195312 87.222656 4.195312 C 88.195312 4.195312 89.015625 4.515625 89.679688 5.160156 C 90.34375 5.800781 90.675781 6.585938 90.675781 7.523438 Z M 84.667969 7.523438 C 84.667969 8.257812 84.910156 8.863281 85.398438 9.351562 C 85.894531 9.828125 86.496094 10.070312 87.238281 10.070312 C 87.964844 10.070312 88.578125 9.828125 89.066406 9.351562 C 89.5625 8.875 89.804688 8.269531 89.804688 7.523438 C 89.804688 6.777344 89.5625 6.175781 89.066406 5.699219 C 88.578125 5.222656 87.964844 4.980469 87.238281 4.980469 C 86.507812 4.980469 85.894531 5.222656 85.398438 5.699219 C 84.910156 6.1875 84.667969 6.792969 84.667969 7.523438 Z M 84.667969 7.523438 "/>
<path style=" stroke:none;fill-rule:nonzero;fill:rgb(20%,20%,20%);fill-opacity:1;" d="M 92.554688 10.703125 L 91.699219 10.703125 L 91.699219 4.347656 L 92.746094 4.347656 L 95.992188 9.300781 L 96.03125 9.300781 L 95.992188 8.078125 L 95.992188 4.347656 L 96.847656 4.347656 L 96.847656 10.703125 L 95.953125 10.703125 L 92.542969 5.519531 L 92.503906 5.519531 L 92.542969 6.742188 Z M 92.554688 10.703125 "/>
</g>
</defs>
<g id="surface1">
<path style=" stroke:none;fill-rule:nonzero;fill:rgb(4.705882%,61.568627%,34.509804%);fill-opacity:1;" d="M 31.929688 23.085938 C 31.929688 23.625 31.496094 24.0625 30.945312 24.0625 L 10.226562 24.0625 C 9.6875 24.0625 9.242188 23.625 9.242188 23.085938 L 9.242188 2.625 C 9.242188 2.085938 9.675781 1.648438 10.226562 1.648438 L 30.957031 1.648438 C 31.496094 1.648438 31.941406 2.085938 31.941406 2.625 Z M 31.929688 23.085938 "/>
<use xlink:href="#surface5" mask="url(#mask0)"/>
<use xlink:href="#surface8" mask="url(#mask1)"/>
<use xlink:href="#surface11" mask="url(#mask2)"/>
<path style=" stroke:none;fill-rule:nonzero;fill:rgb(91.764706%,26.27451%,20.784314%);fill-opacity:1;" d="M 14.277344 22.457031 C 14.136719 22.984375 14.417969 23.523438 14.902344 23.652344 L 34.089844 28.835938 C 34.574219 28.964844 35.074219 28.640625 35.214844 28.113281 L 39.738281 11.140625 C 39.878906 10.613281 39.597656 10.070312 39.113281 9.941406 L 19.925781 4.761719 C 19.441406 4.632812 18.941406 4.953125 18.800781 5.480469 Z M 14.277344 22.457031 "/>
<use xlink:href="#surface14" mask="url(#mask3)"/>
<use xlink:href="#surface17" mask="url(#mask4)"/>
<use xlink:href="#surface20" mask="url(#mask5)"/>
<path style=" stroke:none;fill-rule:nonzero;fill:rgb(100%,75.686275%,2.745098%);fill-opacity:1;" d="M 29.398438 20.359375 C 29.578125 20.875 29.347656 21.425781 28.886719 21.59375 L 8.628906 29.015625 C 8.15625 29.183594 7.632812 28.910156 7.4375 28.398438 L 1.46875 11.886719 C 1.289062 11.371094 1.519531 10.816406 1.980469 10.648438 L 22.242188 3.230469 C 22.714844 3.0625 23.238281 3.332031 23.429688 3.847656 Z M 29.398438 20.359375 "/>
<use xlink:href="#surface23" mask="url(#mask6)"/>
<path style=" stroke:none;fill-rule:nonzero;fill:rgb(25.882353%,52.156863%,95.686275%);fill-opacity:1;" d="M 35.417969 32.253906 C 35.417969 32.796875 34.972656 33.246094 34.433594 33.246094 L 6.75 33.246094 C 6.210938 33.246094 5.765625 32.796875 5.765625 32.253906 L 5.765625 11.191406 C 5.765625 10.648438 6.210938 10.199219 6.75 10.199219 L 34.449219 10.199219 C 34.984375 10.199219 35.433594 10.648438 35.433594 11.191406 Z M 35.417969 32.253906 "/>
<path style=" stroke:none;fill-rule:nonzero;fill:rgb(100%,100%,100%);fill-opacity:1;" d="M 30.128906 18.546875 L 21.84375 18.546875 L 21.84375 16.347656 L 30.128906 16.347656 C 30.371094 16.347656 30.5625 16.539062 30.5625 16.785156 L 30.5625 18.097656 C 30.5625 18.355469 30.371094 18.546875 30.128906 18.546875 Z M 30.128906 26.878906 L 21.84375 26.878906 L 21.84375 24.679688 L 30.128906 24.679688 C 30.371094 24.679688 30.5625 24.875 30.5625 25.117188 L 30.5625 26.429688 C 30.5625 26.6875 30.371094 26.878906 30.128906 26.878906 Z M 31.445312 22.714844 L 21.84375 22.714844 L 21.84375 20.515625 L 31.445312 20.515625 C 31.6875 20.515625 31.878906 20.707031 31.878906 20.953125 L 31.878906 22.277344 C 31.878906 22.519531 31.6875 22.714844 31.445312 22.714844 Z M 31.445312 22.714844 "/>
<use xlink:href="#surface26" mask="url(#mask7)"/>
<use xlink:href="#surface29" mask="url(#mask8)"/>
<path style=" stroke:none;fill-rule:nonzero;fill:rgb(100%,100%,100%);fill-opacity:1;" d="M 14.429688 20.746094 L 14.429688 22.726562 L 17.253906 22.726562 C 17.027344 23.933594 15.964844 24.808594 14.429688 24.808594 C 12.71875 24.808594 11.324219 23.355469 11.324219 21.632812 C 11.324219 19.910156 12.71875 18.457031 14.429688 18.457031 C 15.199219 18.457031 15.886719 18.726562 16.4375 19.242188 L 17.933594 17.738281 C 17.027344 16.886719 15.835938 16.359375 14.429688 16.359375 C 11.542969 16.359375 9.203125 18.714844 9.203125 21.621094 C 9.203125 24.527344 11.542969 26.878906 14.429688 26.878906 C 17.449219 26.878906 19.441406 24.746094 19.441406 21.734375 C 19.441406 21.390625 19.414062 21.054688 19.363281 20.734375 Z M 14.429688 20.746094 "/>
<use xlink:href="#surface32" mask="url(#mask9)"/>
<use xlink:href="#surface35" mask="url(#mask10)"/>
<path style=" stroke:none;fill-rule:nonzero;fill:url(#radial0);" d="M 39.125 9.957031 L 31.929688 8 L 31.929688 2.625 C 31.929688 2.085938 31.496094 1.648438 30.945312 1.648438 L 10.226562 1.648438 C 9.6875 1.648438 9.242188 2.085938 9.242188 2.625 L 9.242188 7.976562 L 1.96875 10.636719 C 1.496094 10.804688 1.265625 11.371094 1.457031 11.871094 L 5.75 23.753906 L 5.75 32.242188 C 5.75 32.78125 6.199219 33.234375 6.734375 33.234375 L 34.433594 33.234375 C 34.972656 33.234375 35.417969 32.78125 35.417969 32.242188 L 35.417969 27.367188 L 39.738281 11.125 C 39.878906 10.625 39.613281 10.085938 39.125 9.957031 Z M 39.125 9.957031 "/>
<path style=" stroke:none;fill-rule:nonzero;fill:rgb(91.764706%,26.27451%,20.784314%);fill-opacity:1;" d="M 67.589844 24.386719 C 67.589844 27.214844 65.394531 29.285156 62.695312 29.285156 C 60 29.285156 57.800781 27.203125 57.800781 24.386719 C 57.800781 21.542969 60 19.484375 62.695312 19.484375 C 65.394531 19.484375 67.589844 21.542969 67.589844 24.386719 Z M 65.445312 24.386719 C 65.445312 22.625 64.164062 21.414062 62.695312 21.414062 C 61.226562 21.414062 59.949219 22.625 59.949219 24.386719 C 59.949219 26.132812 61.226562 27.355469 62.695312 27.355469 C 64.164062 27.355469 65.445312 26.132812 65.445312 24.386719 Z M 65.445312 24.386719 "/>
<path style=" stroke:none;fill-rule:nonzero;fill:rgb(98.431373%,73.72549%,1.960784%);fill-opacity:1;" d="M 78.136719 24.386719 C 78.136719 27.214844 75.9375 29.285156 73.242188 29.285156 C 70.542969 29.285156 68.34375 27.203125 68.34375 24.386719 C 68.34375 21.542969 70.542969 19.484375 73.242188 19.484375 C 75.9375 19.484375 78.136719 21.542969 78.136719 24.386719 Z M 75.988281 24.386719 C 75.988281 22.625 74.710938 21.414062 73.242188 21.414062 C 71.769531 21.414062 70.492188 22.625 70.492188 24.386719 C 70.492188 26.132812 71.769531 27.355469 73.242188 27.355469 C 74.710938 27.355469 75.988281 26.132812 75.988281 24.386719 Z M 75.988281 24.386719 "/>
<path style=" stroke:none;fill-rule:nonzero;fill:rgb(25.882353%,52.156863%,95.686275%);fill-opacity:1;" d="M 88.246094 19.78125 L 88.246094 28.589844 C 88.246094 32.21875 86.125 33.695312 83.621094 33.695312 C 81.253906 33.695312 79.835938 32.101562 79.300781 30.800781 L 81.164062 30.019531 C 81.5 30.816406 82.316406 31.753906 83.621094 31.753906 C 85.230469 31.753906 86.226562 30.75 86.226562 28.875 L 86.226562 28.167969 L 86.152344 28.167969 C 85.679688 28.757812 84.746094 29.285156 83.582031 29.285156 C 81.140625 29.285156 78.917969 27.148438 78.917969 24.398438 C 78.917969 21.632812 81.152344 19.472656 83.582031 19.472656 C 84.746094 19.472656 85.664062 19.988281 86.152344 20.566406 L 86.226562 20.566406 L 86.226562 19.769531 Z M 86.367188 24.410156 C 86.367188 22.6875 85.21875 21.425781 83.761719 21.425781 C 82.277344 21.425781 81.050781 22.6875 81.050781 24.410156 C 81.050781 26.121094 82.289062 27.367188 83.761719 27.367188 C 85.21875 27.355469 86.367188 26.121094 86.367188 24.410156 Z M 86.367188 24.410156 "/>
<path style=" stroke:none;fill-rule:nonzero;fill:rgb(20.392157%,65.882353%,32.54902%);fill-opacity:1;" d="M 91.597656 14.625 L 91.597656 29.003906 L 89.511719 29.003906 L 89.511719 14.625 Z M 91.597656 14.625 "/>
<path style=" stroke:none;fill-rule:nonzero;fill:rgb(91.764706%,26.27451%,20.784314%);fill-opacity:1;" d="M 99.738281 26.003906 L 101.398438 27.125 C 100.863281 27.921875 99.570312 29.296875 97.335938 29.296875 C 94.5625 29.296875 92.503906 27.148438 92.503906 24.398438 C 92.503906 21.480469 94.585938 19.5 97.105469 19.5 C 99.636719 19.5 100.875 21.53125 101.273438 22.625 L 101.488281 23.175781 L 94.96875 25.890625 C 95.46875 26.878906 96.25 27.382812 97.335938 27.382812 C 98.421875 27.355469 99.175781 26.816406 99.738281 26.003906 Z M 94.625 24.242188 L 98.984375 22.417969 C 98.742188 21.800781 98.023438 21.375 97.167969 21.375 C 96.082031 21.375 94.5625 22.339844 94.625 24.242188 Z M 94.625 24.242188 "/>
<path style=" stroke:none;fill-rule:nonzero;fill:rgb(25.882353%,52.156863%,95.686275%);fill-opacity:1;" d="M 49.902344 23.113281 L 49.902344 21.027344 L 56.867188 21.027344 C 56.929688 21.390625 56.96875 21.824219 56.96875 22.289062 C 56.96875 23.84375 56.546875 25.785156 55.179688 27.148438 C 53.851562 28.539062 52.152344 29.285156 49.902344 29.285156 C 45.734375 29.285156 42.21875 25.863281 42.21875 21.671875 C 42.21875 17.480469 45.722656 14.058594 49.902344 14.058594 C 52.214844 14.058594 53.851562 14.972656 55.089844 16.15625 L 53.632812 17.621094 C 52.75 16.785156 51.550781 16.128906 49.902344 16.128906 C 46.859375 16.128906 44.46875 18.597656 44.46875 21.660156 C 44.46875 24.71875 46.847656 27.1875 49.902344 27.1875 C 51.882812 27.1875 53.007812 26.390625 53.722656 25.671875 C 54.3125 25.078125 54.695312 24.242188 54.847656 23.097656 Z M 49.902344 23.113281 "/>
<use xlink:href="#surface38"/>
<use xlink:href="#surface41"/>
</g>
</svg>