<svg width="90" height="20" viewBox="0 0 90 20" fill="none" xmlns="http://www.w3.org/2000/svg">
<g clip-path="url(#clip0_2590_161825)">
<path fill-rule="evenodd" clip-rule="evenodd" d="M10.0003 14.7066C12.886 14.7066 14.9061 12.5905 14.9061 9.62794C14.9061 6.8059 13.0297 4.54925 10.0003 4.54925C6.97091 4.54925 5.09446 6.8059 5.09446 9.62794C5.09446 12.45 6.97091 14.7066 10.0003 14.7066ZM10.0003 18.7983C4.51799 18.7983 0.333984 14.9893 0.333984 9.7701C0.333984 4.54925 4.51799 0.740234 10.0003 0.740234C15.6263 0.740234 19.6666 4.40708 19.6666 9.7701C19.6666 14.9893 15.4826 18.7983 10.0003 18.7983Z" fill="white"/>
<path fill-rule="evenodd" clip-rule="evenodd" d="M30.4863 8.64115H26.8804V4.83213H30.4863C31.7846 4.83213 32.7939 5.53805 32.7939 6.66556C32.7939 7.93523 31.7846 8.64115 30.4863 8.64115ZM37.5543 18.5158L33.9485 12.0253C35.6795 11.4632 37.5543 9.76866 37.5543 6.80609C37.5543 3.56246 35.2468 1.02148 31.3518 1.02148H22.2637V18.658H26.8804V12.7329H29.188L32.2174 18.658H37.5543V18.5158Z" fill="white"/>
<path fill-rule="evenodd" clip-rule="evenodd" d="M41.1553 18.5157H45.772V0.880859H41.1553V18.5157Z" fill="white"/>
<path fill-rule="evenodd" clip-rule="evenodd" d="M67.1307 15.4125V8.49879L58.4702 8.4969V12.45H62.514V13.8618C61.9358 14.4239 60.4938 14.8488 59.1955 14.8488C56.3098 14.8488 54.146 12.5905 54.146 9.7701C54.146 6.8059 56.1661 4.68978 59.1955 4.68978C60.9266 4.68978 62.3686 5.81892 62.9467 6.94806L66.8417 4.97247C65.5434 2.85635 63.2341 0.740234 59.1955 0.740234C53.8569 0.740234 49.3855 4.26656 49.3855 9.7701C49.5292 15.272 53.8569 18.7983 59.1955 18.7983C62.6577 18.7983 65.2543 17.3881 67.1307 15.4125Z" fill="white"/>
<path fill-rule="evenodd" clip-rule="evenodd" d="M79.6807 14.7066C76.6513 14.7066 74.7749 12.45 74.7749 9.62794C74.7749 6.8059 76.6513 4.54925 79.6807 4.54925C82.7101 4.54925 84.5866 6.8059 84.5866 9.62794C84.5866 12.5905 82.7101 14.7066 79.6807 14.7066ZM79.6807 18.7983C85.163 18.7983 89.347 14.9893 89.347 9.7701C89.347 4.40708 85.3067 0.740234 79.6807 0.740234C74.1984 0.740234 70.0144 4.54925 70.0144 9.7701C70.0144 14.9893 74.1984 18.7983 79.6807 18.7983Z" fill="white"/>
</g>
<defs>
<clipPath id="clip0_2590_161825">
<rect width="90" height="18.5294" fill="white" transform="translate(0 0.735352)"/>
</clipPath>
</defs>
</svg>
