<svg width="110" height="18" viewBox="0 0 110 18" fill="none" xmlns="http://www.w3.org/2000/svg">
<g clip-path="url(#clip0_5882_2782)">
<path d="M5.81309 12.0449C3.99185 12.0449 2.86259 10.6528 2.86259 8.91507C2.86259 7.17505 3.9896 5.78303 5.81309 5.78303C7.63433 5.78303 8.76134 7.17505 8.76134 8.91507C8.76359 10.741 7.54868 12.0449 5.81309 12.0449ZM5.81309 14.5668C9.10845 14.5668 11.6262 12.2189 11.6262 9.00094C11.6262 5.69716 9.19636 3.43286 5.81309 3.43286C2.51547 3.43286 0 5.78077 0 9.00094C0.00225401 12.2189 2.51773 14.5668 5.81309 14.5668Z" fill="white"/>
<path d="M18.1351 8.305H15.9667V5.9571H18.1351C18.9149 5.9571 19.5235 6.39097 19.5235 7.08698C19.5213 7.86886 18.9149 8.305 18.1351 8.305ZM22.3839 14.3928L20.2155 10.3908C21.2569 10.0428 22.3839 8.99875 22.3839 7.17285C22.3839 5.17295 20.9954 3.60693 18.6535 3.60693H13.1875V14.4787H15.9644V10.8269H17.3529L19.1741 14.4787H22.3839V14.3928Z" fill="white"/>
<path d="M27.7613 3.521H24.9844V14.3928H27.7613V3.521Z" fill="white"/>
<path d="M35.3932 14.5667C37.4759 14.5667 39.0357 13.6967 40.1627 12.4787V8.219H34.9582L35.4788 10.655H37.388V11.525C37.0409 11.8731 36.1731 12.1329 35.3932 12.1329C33.6576 12.1329 32.357 10.7409 32.357 9.00314C32.357 7.17498 33.5719 5.87109 35.3932 5.87109C36.4345 5.87109 37.3023 6.5671 37.6472 7.26311L39.9891 6.0451C39.2092 4.74121 37.8208 3.43506 35.3909 3.43506C32.1812 3.43506 29.4922 5.61122 29.4922 9.00314C29.5823 12.3928 32.1835 14.5667 35.3932 14.5667Z" fill="white"/>
<path d="M47.7115 12.0449C45.8903 12.0449 44.761 10.6528 44.761 8.91507C44.761 7.17505 45.888 5.78303 47.7115 5.78303C49.5328 5.78303 50.6598 7.17505 50.6598 8.91507C50.662 10.741 49.5328 12.0449 47.7115 12.0449ZM47.7115 14.5668C51.0069 14.5668 53.5246 12.2189 53.5246 9.00094C53.5246 5.69716 51.0948 3.43286 47.7115 3.43286C44.4139 3.43286 41.8984 5.78077 41.8984 9.00094C41.9007 12.2189 44.4162 14.5668 47.7115 14.5668Z" fill="white"/>
<path d="M67.377 11.7903C67.377 12.3598 67.2823 12.8637 67.0614 13.3066C66.8405 13.7496 66.5565 14.1269 66.1486 14.4117C65.7699 14.728 65.2988 14.9495 64.7623 15.1054C64.2259 15.2636 63.6601 15.3585 62.9975 15.3585C62.0846 15.3585 61.2641 15.232 60.6037 15.0105C59.9117 14.7574 59.2806 14.3484 58.7148 13.7789L59.9433 12.579C60.3851 13.0219 60.8562 13.336 61.361 13.4942C61.8659 13.6524 62.4317 13.7473 63.0313 13.7473C63.8202 13.7473 64.449 13.5891 64.8908 13.2727C65.3326 12.9564 65.5512 12.4841 65.5512 11.9146C65.5512 11.3452 65.3935 10.9361 65.0779 10.6514C64.9201 10.4932 64.7623 10.3983 64.573 10.335C64.3837 10.2718 64.1312 10.2085 63.7526 10.1452L62.3348 9.9554C61.3588 9.82886 60.5699 9.48085 60.0357 8.97692C59.4361 8.40746 59.1544 7.65044 59.1544 6.67196C59.1544 6.13413 59.249 5.66184 59.4384 5.21892C59.6277 4.77601 59.8802 4.39637 60.225 4.08226C60.5721 3.76589 60.9801 3.51506 61.485 3.35687C61.9899 3.10378 62.5557 3.00887 63.1868 3.00887C64.005 3.00887 64.6992 3.10378 65.2965 3.32524C65.8961 3.54669 66.4303 3.8947 66.9668 4.36699L65.7699 5.53529C65.3912 5.18729 64.9832 4.93419 64.5415 4.8099C64.0997 4.68336 63.6286 4.62008 63.1237 4.62008C62.4001 4.62008 61.8637 4.80991 61.485 5.15791C61.1063 5.50592 60.9193 5.97821 60.9193 6.51603C60.9193 6.99058 61.077 7.36797 61.3926 7.6527C61.7082 7.93743 62.1793 8.12725 62.7473 8.22216L64.1335 8.41198C64.6992 8.50689 65.141 8.63344 65.4881 8.75998C65.8353 8.88653 66.117 9.07635 66.401 9.29781C67.0321 9.89665 67.377 10.7169 67.377 11.7903ZM77.3329 5.31609C77.1436 4.87318 76.8912 4.46416 76.5463 4.14779C76.1992 3.83143 75.7912 3.58059 75.3179 3.39077C74.8445 3.20095 74.3103 3.10604 73.7108 3.10604H69.1126V4.74889H73.5868C74.2495 4.74889 74.7521 4.93871 75.1308 5.28672C75.5095 5.63472 75.7281 6.13865 75.7281 6.80302C75.7281 7.46514 75.5388 7.93969 75.1308 8.28769C74.7521 8.6357 74.2179 8.79388 73.5868 8.79388H69.1126V15.2049H70.9406V10.4684H73.6815C74.2788 10.4684 74.8152 10.3735 75.2886 10.1836C75.7619 9.99382 76.1699 9.74073 76.517 9.42662C76.8641 9.11025 77.1143 8.73061 77.3036 8.25832C77.493 7.8154 77.5877 7.31147 77.5877 6.77365C77.617 6.26294 77.5223 5.79065 77.3329 5.31609ZM85.5871 9.16901C85.5871 9.7701 85.5871 10.274 85.5556 10.6853C85.5556 11.065 85.524 11.4107 85.4609 11.6954C85.3978 11.9802 85.3347 12.2016 85.24 12.3892C85.1453 12.5474 85.0191 12.7372 84.8613 12.8954C84.6404 13.1168 84.388 13.3066 84.0747 13.4332C83.7591 13.5597 83.4458 13.623 83.0671 13.623C82.72 13.623 82.3752 13.5597 82.0596 13.4332C81.744 13.3066 81.4938 13.1168 81.273 12.8954C81.1152 12.7372 80.9889 12.579 80.8943 12.3892C80.7996 12.1994 80.7365 11.9779 80.6734 11.6954C80.6418 11.4423 80.6103 11.0943 80.5787 10.6853C80.5472 10.274 80.5472 9.7701 80.5472 9.16901C80.5472 8.56791 80.5472 8.06398 80.5787 7.6527C80.5787 7.27306 80.6103 6.92731 80.6734 6.64258C80.7365 6.35785 80.7996 6.13639 80.8943 5.94883C80.9889 5.79065 81.1152 5.60083 81.273 5.44264C81.4938 5.22118 81.7463 5.03136 82.0596 4.90481C82.3752 4.77827 82.6907 4.71499 83.0671 4.71499C83.4143 4.71499 83.7614 4.77827 84.0747 4.90481C84.3902 5.03136 84.6427 5.22118 84.8613 5.44264C85.0191 5.60083 85.1453 5.75901 85.24 5.94883C85.3347 6.13865 85.3978 6.36011 85.4609 6.64258C85.4925 6.89567 85.524 7.24368 85.5556 7.6527C85.5871 8.06398 85.5871 8.56791 85.5871 9.16901ZM87.4444 9.16901C87.4444 8.59954 87.4129 8.06398 87.4129 7.58942C87.3813 7.11487 87.3498 6.67422 87.2866 6.29458C87.2235 5.91493 87.0973 5.53529 86.9395 5.22118C86.7817 4.87318 86.5293 4.55907 86.2475 4.27434C85.8373 3.86306 85.3662 3.54895 84.8298 3.3275C84.2933 3.10604 83.7276 2.97949 83.0649 2.97949C82.4045 2.97949 81.8365 3.10604 81.3 3.3275C80.7635 3.54895 80.2925 3.86532 79.8822 4.27434C79.5667 4.59071 79.3458 4.90482 79.1902 5.22118C79.0325 5.53755 78.9062 5.91493 78.8431 6.29458C78.78 6.70585 78.7169 7.11487 78.7169 7.58942C78.6854 8.06398 78.6854 8.59954 78.6854 9.16901C78.6854 9.7701 78.7169 10.274 78.7169 10.7486C78.7169 11.2231 78.78 11.6638 78.8431 12.0434C78.9062 12.4231 79.0325 12.8027 79.1902 13.1168C79.348 13.4648 79.6005 13.7789 79.8822 14.0637C80.2925 14.4749 80.7635 14.7891 81.3 15.0105C81.8365 15.232 82.4338 15.3585 83.0649 15.3585C83.696 15.3585 84.2933 15.232 84.8298 15.0105C85.3662 14.7891 85.8373 14.4727 86.2475 14.0637C86.5631 13.7473 86.784 13.4332 86.9395 13.1168C87.0973 12.8005 87.2235 12.4231 87.2866 12.0434C87.3498 11.6322 87.4129 11.2231 87.4129 10.7486C87.4444 10.274 87.4444 9.73847 87.4444 9.16901ZM95.5093 9.86501C96.2012 9.67519 96.7693 9.29555 97.211 8.75998C97.6844 8.22216 97.9053 7.52841 97.9053 6.64484C97.9053 6.13865 97.8106 5.66636 97.6528 5.22344C97.4635 4.78053 97.211 4.40315 96.8977 4.08678C96.5822 3.77041 96.1742 3.51731 95.7324 3.36139C95.2591 3.17157 94.7564 3.1083 94.1884 3.1083H89.4956V4.75115H94.0622C94.6618 4.75115 95.1644 4.90933 95.5431 5.25734C95.9217 5.57371 96.1111 6.046 96.1111 6.67874C96.1111 7.27984 95.9217 7.75213 95.5431 8.06849C95.1644 8.38486 94.6618 8.54305 94.0622 8.54305H89.4956V15.2071H91.3236V10.1226H93.6227L96.1742 15.2388H98.3155L95.5093 9.86501ZM107.354 4.74663V3.10378H98.8474V4.74663H102.188V15.2003H104.016V4.74663H107.354Z" fill="white"/>
</g>
<defs>
<clipPath id="clip0_5882_2782">
<rect width="110" height="17.0974" fill="white" transform="translate(0 0.451172)"/>
</clipPath>
</defs>
</svg>
