<svg width="103" height="24" viewBox="0 0 103 24" fill="none" xmlns="http://www.w3.org/2000/svg">
<path d="M6.58 18.66L6.9 17.5C6.96668 17.3133 7.06 17.1533 7.18 17.02C7.3 16.8867 7.45332 16.8133 7.64 16.8L10.3 16.6C10.5 16.5867 10.6767 16.6267 10.83 16.72C10.9833 16.8133 11.0933 16.9467 11.16 17.12L11.42 17.9C11.98 17.5533 12.4833 17.1567 12.93 16.71C13.3767 16.2633 13.74 15.7533 14.02 15.18L13.82 15.02C13.6467 14.9133 13.5267 14.78 13.46 14.62C13.3933 14.46 13.3733 14.2933 13.4 14.12L14 11.48C14.0267 11.2933 14.11 11.15 14.25 11.05C14.39 10.95 14.5467 10.8933 14.72 10.88C14.6533 10.5333 14.5633 10.1867 14.45 9.84C14.3367 9.49332 14.1933 9.14668 14.02 8.8C13.9133 8.88 13.7933 8.92 13.66 8.92C13.5267 8.92 13.3933 8.87332 13.26 8.78L11.02 7.46C10.8733 7.36668 10.7667 7.23668 10.7 7.07C10.6333 6.90332 10.6133 6.72668 10.64 6.54L10.82 5.82C10.38 5.60667 9.92332 5.45 9.45 5.35C8.97668 5.25 8.49332 5.2 8 5.2C7.78668 5.2 7.58 5.20333 7.38 5.21C7.18 5.21667 6.97332 5.23333 6.76 5.26L7.44 6.7C7.52 6.87332 7.53332 7.05332 7.48 7.24C7.42668 7.42668 7.32 7.58668 7.16 7.72L5.18 9.48C5.02 9.57332 4.84668 9.63 4.66 9.65C4.47332 9.67 4.29332 9.62668 4.12 9.52L2.22 8.4C1.87333 8.94668 1.61667 9.52332 1.45 10.13C1.28333 10.7367 1.2 11.36 1.2 12C1.2 12.24 1.22667 12.6 1.28 13.08L3.16 12.9C3.34668 12.8733 3.52332 12.91 3.69 13.01C3.85668 13.11 3.98 13.2533 4.06 13.44L5.02 15.9C5.1 16.0733 5.12332 16.24 5.09 16.4C5.05668 16.56 4.96668 16.7067 4.82 16.84L4.06 17.56C4.43332 17.8267 4.83 18.05 5.25 18.23C5.67 18.41 6.11332 18.5533 6.58 18.66ZM8.16 15C7.96 15.0133 7.78332 14.9733 7.63 14.88C7.47668 14.7867 7.36 14.6533 7.28 14.48L6.08 11.82C6.01332 11.6467 6.01 11.4733 6.07 11.3C6.13 11.1267 6.24 10.9867 6.4 10.88L8.56 8.98C8.69332 8.84668 8.85332 8.78332 9.04 8.79C9.22668 8.79668 9.40668 8.84668 9.58 8.94L11.94 10.36C12.1 10.4533 12.2133 10.5833 12.28 10.75C12.3467 10.9167 12.36 11.0933 12.32 11.28L11.72 14.08C11.6667 14.24 11.57 14.38 11.43 14.5C11.29 14.62 11.1467 14.6867 11 14.7L8.16 15ZM8 20C6.89332 20 5.85332 19.79 4.88 19.37C3.90668 18.95 3.06 18.38 2.34 17.66C1.62 16.94 1.05 16.0933 0.63 15.12C0.21 14.1467 0 13.1067 0 12C0 10.8933 0.21 9.85332 0.63 8.88C1.05 7.90668 1.62 7.06 2.34 6.34C3.06 5.62 3.90668 5.05 4.88 4.63C5.85332 4.21 6.89332 4 8 4C9.10668 4 10.1467 4.21 11.12 4.63C12.0933 5.05 12.94 5.62 13.66 6.34C14.38 7.06 14.95 7.90668 15.37 8.88C15.79 9.85332 16 10.8933 16 12C16 13.1067 15.79 14.1467 15.37 15.12C14.95 16.0933 14.38 16.94 13.66 17.66C12.94 18.38 12.0933 18.95 11.12 19.37C10.1467 19.79 9.10668 20 8 20Z" fill="white"/>
<path d="M21 14.797V5.52887H27.1365V7.14445H22.9595V9.35287H26.7292V10.9685H22.9595V14.797H21Z" fill="white"/>
<path d="M31.0488 14.9328C30.3458 14.9328 29.7379 14.7834 29.225 14.4847C28.7151 14.183 28.3214 13.7637 28.0439 13.2267C27.7663 12.6866 27.6275 12.0606 27.6275 11.3486C27.6275 10.6306 27.7663 10.003 28.0439 9.46601C28.3214 8.92597 28.7151 8.50661 29.225 8.20793C29.7379 7.90624 30.3458 7.75539 31.0488 7.75539C31.7517 7.75539 32.3581 7.90624 32.868 8.20793C33.3809 8.50661 33.7761 8.92597 34.0537 9.46601C34.3312 10.003 34.47 10.6306 34.47 11.3486C34.47 12.0606 34.3312 12.6866 34.0537 13.2267C33.7761 13.7637 33.3809 14.183 32.868 14.4847C32.3581 14.7834 31.7517 14.9328 31.0488 14.9328ZM31.0578 13.4394C31.3776 13.4394 31.6446 13.3488 31.8588 13.1678C32.073 12.9838 32.2344 12.7334 32.343 12.4166C32.4547 12.0998 32.5105 11.7393 32.5105 11.335C32.5105 10.9307 32.4547 10.5702 32.343 10.2534C32.2344 9.93665 32.073 9.68625 31.8588 9.50221C31.6446 9.31818 31.3776 9.22616 31.0578 9.22616C30.735 9.22616 30.4635 9.31818 30.2432 9.50221C30.026 9.68625 29.8616 9.93665 29.75 10.2534C29.6413 10.5702 29.587 10.9307 29.587 11.335C29.587 11.7393 29.6413 12.0998 29.75 12.4166C29.8616 12.7334 30.026 12.9838 30.2432 13.1678C30.4635 13.3488 30.735 13.4394 31.0578 13.4394Z" fill="white"/>
<path d="M38.8642 14.9328C38.1522 14.9328 37.5398 14.7819 37.0269 14.4802C36.517 14.1755 36.1248 13.7531 35.8503 13.2131C35.5787 12.673 35.443 12.0515 35.443 11.3486C35.443 10.6366 35.5802 10.0121 35.8548 9.47506C36.1323 8.93502 36.5261 8.51416 37.0359 8.21246C37.5458 7.90775 38.1522 7.75539 38.8552 7.75539C39.4616 7.75539 39.9926 7.86551 40.4481 8.08575C40.9037 8.30598 41.2642 8.61522 41.5297 9.01346C41.7952 9.4117 41.9415 9.87933 41.9687 10.4164H40.1494C40.0981 10.0694 39.9624 9.79033 39.7421 9.57914C39.5249 9.36494 39.2398 9.25784 38.8868 9.25784C38.5882 9.25784 38.3272 9.3393 38.1039 9.50221C37.8837 9.66211 37.7117 9.89593 37.588 10.2037C37.4643 10.5114 37.4025 10.884 37.4025 11.3214C37.4025 11.7649 37.4628 12.1421 37.5835 12.4528C37.7072 12.7636 37.8807 13.0004 38.1039 13.1633C38.3272 13.3262 38.5882 13.4077 38.8868 13.4077C39.1071 13.4077 39.3047 13.3624 39.4797 13.2719C39.6577 13.1814 39.804 13.0502 39.9186 12.8782C40.0363 12.7032 40.1132 12.4935 40.1494 12.2492H41.9687C41.9385 12.7801 41.7937 13.2478 41.5342 13.652C41.2778 14.0533 40.9233 14.3671 40.4707 14.5933C40.0182 14.8196 39.4827 14.9328 38.8642 14.9328Z" fill="white"/>
<path d="M43.203 14.797V7.8459H45.1308V14.797H43.203ZM44.1714 6.94986C43.8848 6.94986 43.6389 6.85482 43.4338 6.66475C43.2316 6.47167 43.1306 6.24087 43.1306 5.97236C43.1306 5.70687 43.2316 5.47909 43.4338 5.28902C43.6389 5.09593 43.8848 4.99939 44.1714 4.99939C44.458 4.99939 44.7024 5.09593 44.9046 5.28902C45.1097 5.47909 45.2123 5.70687 45.2123 5.97236C45.2123 6.24087 45.1097 6.47167 44.9046 6.66475C44.7024 6.85482 44.458 6.94986 44.1714 6.94986Z" fill="white"/>
<path d="M51.006 10.2263V11.7559H46.7792V10.2263H51.006Z" fill="white"/>
<path d="M59.1292 7.8459L56.699 14.797H54.5268L52.0966 7.8459H54.1331L55.5767 12.8194H55.6491L57.0882 7.8459H59.1292Z" fill="white"/>
<path d="M60.1519 14.797V5.52887H62.0798V9.01346H62.1386C62.2231 8.82641 62.3453 8.63634 62.5052 8.44326C62.6681 8.24715 62.8793 8.08424 63.1387 7.95451C63.4012 7.82176 63.727 7.75539 64.1162 7.75539C64.6231 7.75539 65.0907 7.88814 65.5191 8.15363C65.9475 8.4161 66.2899 8.81283 66.5464 9.34382C66.8028 9.87179 66.931 10.534 66.931 11.3305C66.931 12.1059 66.8058 12.7605 66.5554 13.2945C66.308 13.8255 65.9701 14.2283 65.5417 14.5028C65.1163 14.7744 64.6397 14.9101 64.1117 14.9101C63.7376 14.9101 63.4193 14.8483 63.1568 14.7246C62.8974 14.6009 62.6847 14.4455 62.5187 14.2585C62.3528 14.0684 62.2261 13.8768 62.1386 13.6837H62.0526V14.797H60.1519ZM62.039 11.3214C62.039 11.7348 62.0964 12.0953 62.211 12.403C62.3256 12.7108 62.4916 12.9506 62.7088 13.1226C62.926 13.2915 63.19 13.376 63.5008 13.376C63.8145 13.376 64.08 13.29 64.2972 13.118C64.5145 12.9431 64.6789 12.7017 64.7905 12.394C64.9052 12.0832 64.9625 11.7257 64.9625 11.3214C64.9625 10.9202 64.9067 10.5672 64.795 10.2625C64.6834 9.95777 64.519 9.71943 64.3018 9.54747C64.0845 9.3755 63.8175 9.28952 63.5008 9.28952C63.187 9.28952 62.9215 9.37248 62.7043 9.53842C62.4901 9.70435 62.3256 9.93967 62.211 10.2444C62.0964 10.5491 62.039 10.9081 62.039 11.3214Z" fill="white"/>
<path d="M71.1488 14.797V13.385L74.4478 10.3304C74.7284 10.0588 74.9637 9.81447 75.1538 9.59725C75.3469 9.38002 75.4932 9.16733 75.5928 8.95916C75.6923 8.74797 75.7421 8.52019 75.7421 8.27582C75.7421 8.00429 75.6802 7.77047 75.5566 7.57437C75.4329 7.37525 75.2639 7.22289 75.0497 7.1173C74.8355 7.00869 74.5926 6.95438 74.3211 6.95438C74.0375 6.95438 73.7901 7.01171 73.5789 7.12635C73.3677 7.241 73.2048 7.40542 73.0902 7.61962C72.9755 7.83383 72.9182 8.08876 72.9182 8.38443H71.0583C71.0583 7.77802 71.1955 7.25156 71.4701 6.80504C71.7446 6.35853 72.1293 6.01309 72.6241 5.76872C73.1188 5.52434 73.689 5.40215 74.3347 5.40215C74.9984 5.40215 75.5762 5.51982 76.0679 5.75514C76.5627 5.98745 76.9474 6.31026 77.2219 6.72359C77.4965 7.13691 77.6337 7.61057 77.6337 8.14458C77.6337 8.49454 77.5643 8.83999 77.4256 9.1809C77.2898 9.52182 77.0469 9.90045 76.697 10.3168C76.347 10.7301 75.8537 11.2264 75.2171 11.8057L73.864 13.1316V13.195H77.7559V14.797H71.1488Z" fill="white"/>
<path d="M82.8097 15.0006C82.0313 14.9976 81.3616 14.806 80.8004 14.4259C80.2423 14.0458 79.8124 13.4952 79.5107 12.7741C79.212 12.0531 79.0642 11.1857 79.0672 10.172C79.0672 9.16129 79.2165 8.29995 79.5152 7.58795C79.8169 6.87594 80.2468 6.3344 80.8049 5.96331C81.3661 5.58921 82.0344 5.40215 82.8097 5.40215C83.5851 5.40215 84.2518 5.58921 84.81 5.96331C85.3711 6.33741 85.8025 6.88047 86.1042 7.59247C86.4059 8.30146 86.5553 9.16129 86.5523 10.172C86.5523 11.1887 86.4014 12.0576 86.0997 12.7786C85.801 13.4997 85.3726 14.0503 84.8145 14.4304C84.2563 14.8106 83.5881 15.0006 82.8097 15.0006ZM82.8097 13.376C83.3407 13.376 83.7646 13.109 84.0814 12.575C84.3981 12.041 84.555 11.24 84.552 10.172C84.552 9.46903 84.4796 8.88373 84.3348 8.4161C84.193 7.94847 83.9909 7.597 83.7284 7.36167C83.4689 7.12635 83.1627 7.00869 82.8097 7.00869C82.2817 7.00869 81.8594 7.27267 81.5426 7.80064C81.2258 8.32861 81.0659 9.11906 81.0629 10.172C81.0629 10.884 81.1338 11.4783 81.2756 11.955C81.4204 12.4287 81.624 12.7847 81.8865 13.023C82.149 13.2583 82.4567 13.376 82.8097 13.376Z" fill="white"/>
<path d="M87.9495 14.797V13.385L91.2485 10.3304C91.5291 10.0588 91.7644 9.81447 91.9545 9.59725C92.1476 9.38002 92.2939 9.16733 92.3935 8.95916C92.493 8.74797 92.5428 8.52019 92.5428 8.27582C92.5428 8.00429 92.481 7.77047 92.3573 7.57437C92.2336 7.37525 92.0646 7.22289 91.8504 7.1173C91.6362 7.00869 91.3934 6.95438 91.1218 6.95438C90.8382 6.95438 90.5908 7.01171 90.3797 7.12635C90.1685 7.241 90.0056 7.40542 89.8909 7.61962C89.7763 7.83383 89.7189 8.08876 89.7189 8.38443H87.859C87.859 7.77802 87.9963 7.25156 88.2708 6.80504C88.5453 6.35853 88.93 6.01309 89.4248 5.76872C89.9196 5.52434 90.4898 5.40215 91.1354 5.40215C91.7991 5.40215 92.3769 5.51982 92.8687 5.75514C93.3634 5.98745 93.7481 6.31026 94.0226 6.72359C94.2972 7.13691 94.4345 7.61057 94.4345 8.14458C94.4345 8.49454 94.3651 8.83999 94.2263 9.1809C94.0905 9.52182 93.8477 9.90045 93.4977 10.3168C93.1477 10.7301 92.6544 11.2264 92.0179 11.8057L90.6648 13.1316V13.195H94.5566V14.797H87.9495Z" fill="white"/>
<path d="M99.5335 14.9237C99.0568 14.9207 98.5967 14.8407 98.1533 14.6839C97.7128 14.527 97.3176 14.272 96.9676 13.9191C96.6176 13.5661 96.3401 13.0984 96.1349 12.5162C95.9328 11.9339 95.8317 11.2189 95.8317 10.3711C95.8347 9.59272 95.9237 8.89731 96.0987 8.28487C96.2767 7.6694 96.5301 7.14747 96.859 6.71906C97.1908 6.29065 97.5876 5.96482 98.0492 5.74156C98.5108 5.51529 99.0282 5.40215 99.6014 5.40215C100.22 5.40215 100.766 5.52283 101.24 5.76419C101.713 6.00253 102.093 6.32685 102.38 6.73716C102.67 7.14747 102.845 7.60756 102.905 8.11742H100.973C100.897 7.79461 100.739 7.54118 100.497 7.35715C100.256 7.17311 99.9574 7.0811 99.6014 7.0811C98.998 7.0811 98.5394 7.34357 98.2257 7.86852C97.9149 8.39348 97.7565 9.10699 97.7505 10.0091H97.8138C97.9526 9.73452 98.1397 9.5007 98.375 9.30762C98.6133 9.11151 98.8834 8.96217 99.1851 8.8596C99.4898 8.754 99.8111 8.70121 100.149 8.70121C100.698 8.70121 101.187 8.83094 101.615 9.0904C102.044 9.34684 102.382 9.69982 102.629 10.1494C102.876 10.5989 103 11.1133 103 11.6925C103 12.3201 102.854 12.8782 102.561 13.3669C102.271 13.8557 101.866 14.2388 101.344 14.5164C100.825 14.791 100.221 14.9267 99.5335 14.9237ZM99.5245 13.385C99.8262 13.385 100.096 13.3126 100.335 13.1678C100.573 13.023 100.76 12.8269 100.896 12.5795C101.031 12.3321 101.099 12.0546 101.099 11.7468C101.099 11.4391 101.031 11.1631 100.896 10.9187C100.763 10.6743 100.579 10.4797 100.344 10.3349C100.108 10.1901 99.8397 10.1177 99.538 10.1177C99.3118 10.1177 99.1021 10.1599 98.909 10.2444C98.7189 10.3289 98.5515 10.4465 98.4067 10.5974C98.2649 10.7482 98.1533 10.9232 98.0718 11.1223C97.9903 11.3184 97.9496 11.5281 97.9496 11.7514C97.9496 12.05 98.0175 12.3231 98.1533 12.5705C98.292 12.8179 98.4791 13.0155 98.7144 13.1633C98.9527 13.3111 99.2228 13.385 99.5245 13.385Z" fill="white"/>
<rect x="21" y="18.0006" width="82" height="1" fill="white"/>
</svg>