<svg width="30" height="26" viewBox="0 0 30 26" fill="none" xmlns="http://www.w3.org/2000/svg">
<path d="M11.8272 3.99027C10.6761 2.75483 8.99191 2.15369 7.04914 2.15369C5.28458 2.15369 3.68508 2.69955 2.56031 3.81339C1.42679 4.94381 0.873169 6.24283 0.873169 7.79059C0.87317 9.33836 1.3333 10.5323 2.27109 11.5508C3.20888 12.5693 4.62579 13.3625 6.80374 13.3625C7.23758 13.3625 7.724 13.3059 8.133 13.1718C8.34481 15.1839 7.7985 17.1905 6.96296 18.8322C6.25743 20.2197 4.376 22.3133 2.18053 23.7644L2.26671 23.9164C5.97258 22.5317 8.36818 20.6882 10.3139 17.9865C12.1047 15.499 13.5041 12.4657 13.5041 9.17529C13.5041 7.01394 12.9753 5.23401 11.8257 3.99166L11.8272 3.99027Z" fill="#FF6400" stroke="#FF6400" stroke-width="0.5"/>
<path d="M27.4498 3.99027C26.2987 2.75483 24.6145 2.15369 22.6717 2.15369C20.9071 2.15369 19.3076 2.69955 18.1829 3.81339C17.0493 4.94381 16.4957 6.24283 16.4957 7.79059C16.4957 9.33836 16.9559 10.5323 17.8936 11.5508C18.8314 12.5693 20.2483 13.3625 22.4263 13.3625C22.8601 13.3625 23.3466 13.3059 23.7556 13.1718C23.9674 15.1839 23.4211 17.1905 22.5855 18.8322C21.88 20.2197 19.9986 22.3133 17.8031 23.7644L17.8893 23.9164C21.5951 22.5317 23.9907 20.6882 25.9364 17.9865C27.7273 15.499 29.1267 12.4657 29.1267 9.17529C29.1267 7.01394 28.5979 5.23401 27.4483 3.99166L27.4498 3.99027Z" fill="#FF6400" stroke="#FF6400" stroke-width="0.5"/>
</svg>
