<svg width="23" height="20" viewBox="0 0 23 20" fill="none" xmlns="http://www.w3.org/2000/svg">
<path d="M9.36982 3.40869C8.50652 2.4821 7.24336 2.03125 5.78628 2.03125C4.46285 2.03125 3.26323 2.44065 2.41966 3.27603C1.56951 4.12384 1.1543 5.0981 1.1543 6.25893C1.1543 7.41975 1.4994 8.31524 2.20274 9.07911C2.90608 9.84297 3.96876 10.4379 5.60222 10.4379C5.9276 10.4379 6.29242 10.3954 6.59917 10.2949C6.75803 11.8039 6.34829 13.3089 5.72164 14.5402C5.19249 15.5808 3.78142 17.151 2.13481 18.2393L2.19945 18.3533C4.97886 17.3147 6.77556 15.9321 8.23483 13.9059C9.57797 12.0402 10.6275 9.76524 10.6275 7.29745C10.6275 5.67644 10.2309 4.3415 9.36872 3.40973L9.36982 3.40869Z" fill="#0519D2" stroke="#0519D2" stroke-width="0.375"/>
<path d="M21.0866 3.40869C20.2233 2.4821 18.9602 2.03125 17.5031 2.03125C16.1797 2.03125 14.98 2.44065 14.1365 3.27603C13.2863 4.12384 12.8711 5.0981 12.8711 6.25893C12.8711 7.41975 13.2162 8.31524 13.9195 9.07911C14.6229 9.84297 15.6856 10.4379 17.319 10.4379C17.6444 10.4379 18.0092 10.3954 18.316 10.2949C18.4748 11.8039 18.0651 13.3089 17.4384 14.5402C16.9093 15.5808 15.4982 17.151 13.8516 18.2393L13.9162 18.3533C16.6957 17.3147 18.4924 15.9321 19.9516 13.9059C21.2948 12.0402 22.3443 9.76524 22.3443 7.29745C22.3443 5.67644 21.9477 4.3415 21.0855 3.40973L21.0866 3.40869Z" fill="#0519D2" stroke="#0519D2" stroke-width="0.375"/>
</svg>
