<svg width="32" height="32" viewBox="0 0 32 32" fill="none" xmlns="http://www.w3.org/2000/svg">
<path d="M13.2501 8.46283C12.2781 7.47883 10.8558 7.00004 9.21526 7.00004C7.72519 7.00004 6.3745 7.4348 5.4247 8.32194C4.4675 9.22229 4 10.2569 4 11.4897C4 12.7224 4.38856 13.6734 5.18047 14.4846C5.97238 15.2958 7.16888 15.9276 9.00803 15.9276C9.37438 15.9276 9.78514 15.8824 10.1305 15.7757C10.3094 17.3782 9.84805 18.9764 9.14249 20.284C8.5467 21.3891 6.95795 23.0566 5.10399 24.2123L5.17677 24.3334C8.30617 23.2305 10.3291 21.7622 11.9721 19.6104C13.4844 17.6292 14.6661 15.2132 14.6661 12.5925C14.6661 10.8711 14.2196 9.45343 13.2488 8.46393L13.2501 8.46283Z" fill="white"/>
<path d="M26.5839 8.46283C25.6119 7.47883 24.1897 7.00004 22.5491 7.00004C21.0591 7.00004 19.7084 7.4348 18.7586 8.32194C17.8014 9.22229 17.3339 10.2569 17.3339 11.4897C17.3339 12.7224 17.7224 13.6734 18.5143 14.4846C19.3063 15.2958 20.5028 15.9276 22.3419 15.9276C22.7083 15.9276 23.119 15.8824 23.4644 15.7757C23.6433 17.3782 23.1819 18.9764 22.4764 20.284C21.8806 21.3891 20.2918 23.0566 18.4379 24.2123L18.5106 24.3334C21.64 23.2305 23.663 21.7622 25.306 19.6104C26.8183 17.6292 28 15.2132 28 12.5925C28 10.8711 27.5535 9.45343 26.5827 8.46393L26.5839 8.46283Z" fill="white"/>
</svg>
