<svg width="40" height="40" viewBox="0 0 40 40" fill="none" xmlns="http://www.w3.org/2000/svg">
<circle cx="20" cy="20" r="20" fill="#131418"/>
<path d="M26.0404 16.1073C27.841 17.399 30.0467 18.159 32.4291 18.159V13.5583C31.9783 13.5584 31.5285 13.5112 31.0874 13.4174V17.0388C28.7053 17.0388 26.4998 16.2788 24.6987 14.9872V24.3759C24.6987 29.0726 20.9048 32.8798 16.2251 32.8798C14.4789 32.8798 12.856 32.35 11.5078 31.4415C13.0465 33.0204 15.1924 33.9999 17.5665 33.9999C22.2465 33.9999 26.0406 30.1927 26.0406 25.4958V16.1073H26.0404ZM27.6955 11.4657C26.7753 10.4568 26.1711 9.15304 26.0404 7.71162V7.11987H24.769C25.089 8.95191 26.1806 10.5171 27.6955 11.4657ZM14.4677 27.8374C13.9536 27.1609 13.6758 26.3333 13.677 25.4824C13.677 23.3343 15.4123 21.5926 17.5532 21.5926C17.9522 21.5925 18.3488 21.6538 18.7291 21.7749V17.0713C18.2847 17.0102 17.8362 16.9843 17.388 16.9938V20.6548C17.0074 20.5337 16.6107 20.4722 16.2116 20.4726C14.0707 20.4726 12.3355 22.2141 12.3355 24.3625C12.3355 25.8815 13.2028 27.1967 14.4677 27.8374Z" fill="#FF004F"/>
<path d="M24.6958 14.9871C26.4969 16.2787 28.7024 17.0387 31.0846 17.0387V13.4173C29.7548 13.1331 28.5777 12.4357 27.6926 11.4657C26.1776 10.517 25.0861 8.95182 24.7661 7.11987H21.4264V25.4956C21.4188 27.6379 19.6865 29.3725 17.5502 29.3725C16.2913 29.3725 15.1729 28.7702 14.4646 27.8374C13.1998 27.1967 12.3324 25.8815 12.3324 24.3626C12.3324 22.2144 14.0676 20.4727 16.2085 20.4727C16.6187 20.4727 17.014 20.5368 17.3849 20.6549V16.9939C12.7874 17.0892 9.08984 20.8592 9.08984 25.4957C9.08984 27.8103 10.0106 29.9085 11.505 31.4416C12.8532 32.35 14.4762 32.8799 16.2223 32.8799C20.9021 32.8799 24.6959 29.0726 24.6959 24.3759L24.6958 14.9871Z" fill="white"/>
<path d="M31.0863 13.4174V12.4382C29.8872 12.4401 28.7117 12.1031 27.6944 11.4658C28.5949 12.4552 29.7808 13.1375 31.0863 13.4174ZM24.7678 7.11998C24.7373 6.9449 24.7138 6.76866 24.6976 6.59175V6H20.0864V24.3759C20.079 26.5179 18.3467 28.2525 16.2102 28.2525C15.583 28.2525 14.9908 28.1031 14.4663 27.8376C15.1746 28.7703 16.293 29.3725 17.5519 29.3725C19.688 29.3725 21.4207 27.6381 21.4281 25.4958V7.11998H24.7678ZM17.3868 16.994V15.9515C17.0015 15.8987 16.6131 15.8722 16.2241 15.8724C11.5439 15.8723 7.75 19.6796 7.75 24.3759C7.75 27.3203 9.24107 29.9151 11.5069 31.4415C10.0124 29.9085 9.09168 27.8102 9.09168 25.4957C9.09168 20.8593 12.7891 17.0893 17.3868 16.994Z" fill="#00F2EA"/>
</svg>
