<svg width="24" height="24" viewBox="0 0 24 24" fill="none" xmlns="http://www.w3.org/2000/svg">
<g clip-path="url(#clip0_5988_9141)">
<path d="M12 24C18.6274 24 24 18.6274 24 12C24 5.37258 18.6274 0 12 0C5.37258 0 0 5.37258 0 12C0 18.6274 5.37258 24 12 24Z" fill="white"/>
<path d="M12 6.57524C13.8575 6.57524 14.0639 6.57524 14.801 6.60473C15.4792 6.63421 15.833 6.75215 16.0983 6.8406C16.4226 6.95854 16.6585 7.10596 16.8944 7.37131C17.1303 7.60718 17.2777 7.84306 17.4251 8.16738C17.5136 8.40325 17.6315 8.78655 17.661 9.46468C17.6905 10.2018 17.6905 10.4082 17.6905 12.2657C17.6905 14.1232 17.6905 14.3295 17.661 15.0666C17.6315 15.7448 17.5136 16.0986 17.4251 16.3639C17.3072 16.6883 17.1597 16.9241 16.8944 17.16C16.6585 17.3959 16.4226 17.5433 16.0983 17.6907C15.8625 17.7792 15.4792 17.8971 14.801 17.9266C14.0639 17.9561 13.8575 17.9561 12 17.9561C10.1425 17.9561 9.93615 17.9561 9.19905 17.9266C8.52092 17.8971 8.16711 17.7792 7.90176 17.6907C7.57743 17.5728 7.34157 17.4254 7.10569 17.16C6.86982 16.9241 6.7224 16.6883 6.57498 16.3639C6.48652 16.1281 6.36859 15.7448 6.33911 15.0666C6.30962 14.3295 6.30962 14.1232 6.30962 12.2657C6.30962 10.4082 6.30962 10.2018 6.33911 9.46468C6.36859 8.78655 6.48652 8.43274 6.57498 8.16738C6.69291 7.84306 6.84034 7.60718 7.10569 7.37131C7.34157 7.13544 7.57743 6.98802 7.90176 6.8406C8.13763 6.75215 8.52092 6.63421 9.19905 6.60473C9.93615 6.57524 10.172 6.57524 12 6.57524ZM12 5.33691C10.1131 5.33691 9.87719 5.33691 9.14009 5.3664C8.40299 5.39588 7.90176 5.51382 7.4595 5.69072C7.01724 5.86763 6.60447 6.1035 6.22117 6.48679C5.83788 6.87008 5.60201 7.25338 5.4251 7.72512C5.2482 8.16738 5.13026 8.66861 5.10077 9.40571C5.07129 10.1428 5.07129 10.3787 5.07129 12.2657C5.07129 14.1526 5.07129 14.3885 5.10077 15.1256C5.13026 15.8627 5.2482 16.3639 5.4251 16.8062C5.60201 17.2485 5.83788 17.6612 6.22117 18.0445C6.60447 18.4278 6.98775 18.6637 7.4595 18.8406C7.90176 19.0175 8.40299 19.1354 9.14009 19.1649C9.87719 19.1944 10.1131 19.1944 12 19.1944C13.887 19.1944 14.1229 19.1944 14.86 19.1649C15.5971 19.1354 16.0983 19.0175 16.5406 18.8406C16.9828 18.6637 17.3956 18.4278 17.7789 18.0445C18.1622 17.6612 18.3981 17.2779 18.575 16.8062C18.7519 16.3639 18.8698 15.8627 18.8993 15.1256C18.9288 14.3885 18.9288 14.1526 18.9288 12.2657C18.9288 10.3787 18.9288 10.1428 18.8993 9.40571C18.8698 8.66861 18.7519 8.16738 18.575 7.72512C18.3981 7.28286 18.1622 6.87008 17.7789 6.48679C17.3956 6.1035 17.0123 5.86763 16.5406 5.69072C16.0983 5.51382 15.5971 5.39588 14.86 5.3664C14.1229 5.33691 13.887 5.33691 12 5.33691Z" fill="#32353D"/>
<path d="M12.0002 8.698C10.0247 8.698 8.43262 10.2901 8.43262 12.2656C8.43262 14.241 10.0247 15.8331 12.0002 15.8331C13.9756 15.8331 15.5677 14.241 15.5677 12.2656C15.5677 10.2901 13.9756 8.698 12.0002 8.698ZM12.0002 14.5653C10.7324 14.5653 9.70043 13.5334 9.70043 12.2656C9.70043 10.9978 10.7324 9.96581 12.0002 9.96581C13.268 9.96581 14.2999 10.9978 14.2999 12.2656C14.2999 13.5334 13.2975 14.5653 12.0002 14.5653Z" fill="#32353D"/>
<path d="M16.5408 8.55114C16.5408 9.02288 16.1575 9.37669 15.7152 9.37669C15.2435 9.37669 14.8896 8.9934 14.8896 8.55114C14.8896 8.0794 15.2729 7.72559 15.7152 7.72559C16.1869 7.72559 16.5408 8.10888 16.5408 8.55114Z" fill="#32353D"/>
</g>
<defs>
<clipPath id="clip0_5988_9141">
<rect width="24" height="24" fill="white"/>
</clipPath>
</defs>
</svg>
