<svg width="24" height="24" viewBox="0 0 24 24" fill="none" xmlns="http://www.w3.org/2000/svg">
<circle cx="12" cy="12" r="12" fill="white"/>
<path d="M14.8177 8.99184C15.8983 9.7668 17.2216 10.2228 18.6509 10.2228V8.04996C17.8531 7.87941 17.1468 7.46099 16.6158 6.87901C15.7068 6.30976 15.0519 5.37065 14.8598 4.27148H12.856V15.2969C12.8515 16.5823 11.8121 17.623 10.5303 17.623C9.77497 17.623 9.10393 17.2617 8.67895 16.702C7.92005 16.3176 7.39963 15.5284 7.39963 14.6171C7.39963 13.3282 8.44076 12.2832 9.7253 12.2832C9.97141 12.2832 10.2086 12.3216 10.4311 12.3925V10.1959C7.67262 10.2531 5.4541 12.5151 5.4541 15.297C5.4541 16.6857 6.00656 17.9446 6.90321 18.8645C7.71212 19.4096 8.68589 19.7275 9.73357 19.7275C12.5415 19.7275 14.8178 17.4431 14.8178 14.6251L14.8177 8.99184Z" fill="#32353D"/>
<path d="M18.6512 8.05007V7.46255C17.9317 7.46364 17.2264 7.26144 16.616 6.87906C17.1564 7.47275 17.8679 7.88212 18.6512 8.05007ZM14.8601 4.2716C14.8418 4.16655 14.8277 4.0608 14.818 3.95466V3.59961H12.0512V14.6252C12.0468 15.9103 11.0075 16.9511 9.72556 16.9511C9.34921 16.9511 8.99388 16.8614 8.67921 16.7021C9.10419 17.2618 9.77523 17.6231 10.5306 17.6231C11.8122 17.6231 12.8518 16.5824 12.8563 15.2971V4.2716H14.8601ZM10.4315 10.196V9.57053C10.2003 9.53882 9.96725 9.52291 9.73389 9.52302C6.92576 9.52297 4.64941 11.8074 4.64941 14.6252C4.64941 16.3918 5.54406 17.9487 6.90353 18.8645C6.00688 17.9447 5.45442 16.6857 5.45442 15.2971C5.45442 12.5152 7.67288 10.2532 10.4315 10.196Z" fill="#32353D"/>
</svg>
