<svg width="36" height="36" viewBox="0 0 36 36" fill="none" xmlns="http://www.w3.org/2000/svg">
<circle cx="18" cy="18" r="18" fill="#373737"/>
<path d="M18.9284 8.01667C19.9965 8 21.0564 8.00833 22.1163 8C22.1815 9.27498 22.6299 10.575 23.5431 11.475C24.4562 12.3999 25.7444 12.8249 27 12.9666V16.3249C25.8259 16.2832 24.6437 16.0332 23.5757 15.5166C23.111 15.2999 22.6788 15.0249 22.2549 14.7416C22.2467 17.1749 22.263 19.6082 22.2386 22.0332C22.1734 23.1998 21.7983 24.3581 21.1379 25.3165C20.0698 26.9164 18.2191 27.9581 16.3194 27.9914C15.1535 28.0581 13.9876 27.7331 12.9929 27.1331C11.346 26.1414 10.1883 24.3248 10.017 22.3748C10.0007 21.9582 9.99258 21.5415 10.0089 21.1332C10.1556 19.5499 10.922 18.0332 12.1124 16.9999C13.4658 15.7999 15.3573 15.2249 17.1266 15.5666C17.1429 16.7999 17.094 18.0332 17.094 19.2665C16.2868 18.9999 15.341 19.0749 14.6317 19.5749C14.1181 19.9165 13.7267 20.4415 13.5229 21.0332C13.3517 21.4582 13.4006 21.9248 13.4087 22.3748C13.6044 23.7415 14.8926 24.8915 16.2623 24.7665C17.1755 24.7581 18.0479 24.2165 18.5208 23.4248C18.6757 23.1498 18.8469 22.8665 18.855 22.5415C18.9366 21.0498 18.9039 19.5665 18.9121 18.0749C18.9203 14.7166 18.9039 11.3666 18.9284 8.01667Z" fill="white"/>
</svg>
