<svg width="16" height="16" viewBox="0 0 16 16" fill="none" xmlns="http://www.w3.org/2000/svg">
<rect width="16" height="16" rx="8" fill="#E41E1F"/>
<g clip-path="url(#clip0_5769_60321)">
<path d="M11 4.50135H11.5V5.00135C11.5 5.13396 11.5527 5.26114 11.6465 5.35491C11.7402 5.44868 11.8674 5.50135 12 5.50135C12.1326 5.50135 12.2598 5.44868 12.3536 5.35491C12.4473 5.26114 12.5 5.13396 12.5 5.00135V4.50135H13C13.1326 4.50135 13.2598 4.44868 13.3536 4.35491C13.4473 4.26114 13.5 4.13396 13.5 4.00135C13.5 3.86875 13.4473 3.74157 13.3536 3.6478C13.2598 3.55403 13.1326 3.50135 13 3.50135H12.5V3.00135C12.5 2.86875 12.4473 2.74157 12.3536 2.6478C12.2598 2.55403 12.1326 2.50135 12 2.50135C11.8674 2.50135 11.7402 2.55403 11.6465 2.6478C11.5527 2.74157 11.5 2.86875 11.5 3.00135V3.50135H11C10.8674 3.50135 10.7402 3.55403 10.6465 3.6478C10.5527 3.74157 10.5 3.86875 10.5 4.00135C10.5 4.13396 10.5527 4.26114 10.6465 4.35491C10.7402 4.44868 10.8674 4.50135 11 4.50135ZM7.5 6.50135C7.5 6.63396 7.55268 6.76114 7.64645 6.85491C7.74022 6.94868 7.8674 7.00135 8 7.00135C8.13261 7.00135 8.25979 6.94868 8.35356 6.85491C8.44733 6.76114 8.5 6.63396 8.5 6.50135C8.5 6.36875 8.55268 6.24157 8.64645 6.1478C8.74022 6.05403 8.86739 6.00135 9 6.00135H9.5C9.63261 6.00135 9.75979 6.05403 9.85356 6.1478C9.94732 6.24157 10 6.36875 10 6.50135V7.00135C10 7.13396 9.85356 7.35491 9.85356 7.35491C9.85356 7.35491 9.63261 7.50135 9.5 7.50135H9.25C9.11739 7.50135 8.99022 7.55403 8.89645 7.6478C8.80268 7.74157 8.75 7.86875 8.75 8.00135C8.75 8.13396 8.80268 8.26114 8.89645 8.35491C8.99022 8.44868 9.11739 8.50135 9.25 8.50135H9.5C9.63261 8.50135 9.75979 8.55403 9.85356 8.6478C9.94732 8.74157 10 8.86875 10 9.00135V9.50135C10 9.63396 9.94732 9.76114 9.85356 9.85491C9.75979 9.94868 9.63261 10.0014 9.5 10.0014H9C8.86739 10.0014 8.74022 9.94868 8.64645 9.85491C8.55268 9.76114 8.5 9.63396 8.5 9.50135C8.5 9.36875 8.44733 9.24157 8.35356 9.1478C8.25979 9.05403 8.13261 9.00135 8 9.00135C7.8674 9.00135 7.74022 9.05403 7.64645 9.1478C7.55268 9.24157 7.5 9.36875 7.5 9.50135C7.5 9.89918 7.65804 10.2807 7.93934 10.562C8.22065 10.8433 8.60218 11.0014 9 11.0014H9.5C9.89783 11.0014 10.2794 10.8433 10.5607 10.562C10.842 10.2807 11 9.89918 11 9.50135V9.00135C10.9978 8.63133 10.8589 8.27517 10.61 8.00135C10.8589 7.72754 10.9978 7.37138 11 7.00135V6.50135C11 6.10353 10.842 5.722 10.5607 5.44069C10.2794 5.15939 9.89783 5.00135 9.5 5.00135H9C8.60218 5.00135 8.22065 5.15939 7.93934 5.44069C7.65804 5.722 7.5 6.10353 7.5 6.50135ZM5.5 5.50135V10.5014C5.5 10.634 5.55268 10.7611 5.64645 10.8549C5.74022 10.9487 5.8674 11.0014 6 11.0014C6.13261 11.0014 6.25979 10.9487 6.35356 10.8549C6.44732 10.7611 6.5 10.634 6.5 10.5014V5.50135C6.5 5.36875 6.44732 5.24157 6.35356 5.1478C6.25979 5.05403 6.13261 5.00135 6 5.00135C5.8674 5.00135 5.74022 5.05403 5.64645 5.1478C5.55268 5.24157 5.5 5.36875 5.5 5.50135ZM12.8 6.50135C12.7357 6.51447 12.6745 6.54014 12.6201 6.5769C12.5656 6.61365 12.519 6.66077 12.4828 6.71556C12.4466 6.77035 12.4215 6.83174 12.409 6.89622C12.3965 6.9607 12.3969 7.02701 12.41 7.09135C12.6052 8.03946 12.4895 9.02524 12.0801 9.90237C11.6706 10.7795 10.9892 11.5012 10.1371 11.9604C9.28491 12.4196 8.30741 12.5917 7.34966 12.4513C6.39191 12.3109 5.50496 11.8653 4.82049 11.1809C4.13601 10.4964 3.6905 9.60945 3.55007 8.6517C3.40964 7.69395 3.58179 6.71644 4.04097 5.86429C4.50014 5.01213 5.22186 4.33075 6.09899 3.9213C6.97612 3.51184 7.9619 3.39613 8.91 3.59135C9.04261 3.61788 9.18032 3.59063 9.29285 3.51562C9.40537 3.4406 9.48348 3.32396 9.51 3.19135C9.53652 3.05875 9.50928 2.92103 9.43427 2.80851C9.35925 2.69599 9.24261 2.61788 9.11 2.59135C8.74409 2.52318 8.37212 2.49302 8 2.50135C6.91221 2.50135 5.84884 2.82392 4.94437 3.42827C4.0399 4.03262 3.33495 4.8916 2.91867 5.8966C2.50238 6.90159 2.39346 8.00746 2.60568 9.07435C2.8179 10.1412 3.34173 11.1213 4.11092 11.8904C4.8801 12.6596 5.86011 13.1835 6.92701 13.3957C7.9939 13.6079 9.09977 13.499 10.1048 13.0827C11.1098 12.6664 11.9687 11.9615 12.5731 11.057C13.1774 10.1525 13.5 9.08915 13.5 8.00135C13.5011 7.63189 13.4642 7.26329 13.39 6.90135C13.378 6.8361 13.3532 6.77388 13.3169 6.71833C13.2807 6.66277 13.2337 6.61499 13.1788 6.57776C13.1239 6.54053 13.0621 6.5146 12.9971 6.50148C12.932 6.48837 12.8651 6.48832 12.8 6.50135Z" fill="white"/>
<path d="M7.64645 6.85491C7.55268 6.76114 7.5 6.63396 7.5 6.50135C7.5 6.10353 7.65804 5.722 7.93934 5.44069C8.22065 5.15939 8.60218 5.00135 9 5.00135H9.5C9.89783 5.00135 10.2794 5.15939 10.5607 5.44069C10.842 5.722 11 6.10353 11 6.50135V7.00135C10.9978 7.37138 10.8589 7.72754 10.61 8.00135C10.8589 8.27517 10.9978 8.63133 11 9.00135V9.50135C11 9.89918 10.842 10.2807 10.5607 10.562C10.2794 10.8433 9.89783 11.0014 9.5 11.0014H9C8.60218 11.0014 8.22065 10.8433 7.93934 10.562C7.65804 10.2807 7.5 9.89918 7.5 9.50135C7.5 9.36875 7.55268 9.24157 7.64645 9.1478C7.74022 9.05403 7.8674 9.00135 8 9.00135C8.13261 9.00135 8.25979 9.05403 8.35356 9.1478C8.44733 9.24157 8.5 9.36875 8.5 9.50135C8.5 9.63396 8.55268 9.76114 8.64645 9.85491C8.74022 9.94868 8.86739 10.0014 9 10.0014H9.5C9.63261 10.0014 9.75979 9.94868 9.85356 9.85491C9.94732 9.76114 10 9.63396 10 9.50135V9.00135C10 8.86875 9.94732 8.74157 9.85356 8.6478C9.75979 8.55403 9.63261 8.50135 9.5 8.50135H9.25C9.11739 8.50135 8.99022 8.44868 8.89645 8.35491C8.80268 8.26114 8.75 8.13396 8.75 8.00135C8.75 7.86875 8.80268 7.74157 8.89645 7.6478C8.99022 7.55403 9.11739 7.50135 9.25 7.50135H9.5C9.63261 7.50135 9.85356 7.35491 9.85356 7.35491C9.85356 7.35491 10 7.13396 10 7.00135V6.50135C10 6.36875 9.94732 6.24157 9.85356 6.1478C9.75979 6.05403 9.63261 6.00135 9.5 6.00135H9C8.86739 6.00135 8.74022 6.05403 8.64645 6.1478C8.55268 6.24157 8.5 6.36875 8.5 6.50135C8.5 6.63396 8.44733 6.76114 8.35356 6.85491C8.25979 6.94868 8.13261 7.00135 8 7.00135C7.8674 7.00135 7.74022 6.94868 7.64645 6.85491Z" fill="white"/>
<path d="M7.64645 6.85491C7.55268 6.76114 7.5 6.63396 7.5 6.50135C7.5 6.10353 7.65804 5.722 7.93934 5.44069C8.22065 5.15939 8.60218 5.00135 9 5.00135H9.5C9.89783 5.00135 10.2794 5.15939 10.5607 5.44069C10.842 5.722 11 6.10353 11 6.50135V7.00135C10.9978 7.37138 10.8589 7.72754 10.61 8.00135C10.8589 8.27517 10.9978 8.63133 11 9.00135V9.50135C11 9.89918 10.842 10.2807 10.5607 10.562C10.2794 10.8433 9.89783 11.0014 9.5 11.0014H9C8.60218 11.0014 8.22065 10.8433 7.93934 10.562C7.65804 10.2807 7.5 9.89918 7.5 9.50135C7.5 9.36875 7.55268 9.24157 7.64645 9.1478C7.74022 9.05403 7.8674 9.00135 8 9.00135C8.13261 9.00135 8.25979 9.05403 8.35356 9.1478C8.44733 9.24157 8.5 9.36875 8.5 9.50135C8.5 9.63396 8.55268 9.76114 8.64645 9.85491C8.74022 9.94868 8.86739 10.0014 9 10.0014H9.5C9.63261 10.0014 9.75979 9.94868 9.85356 9.85491C9.94732 9.76114 10 9.63396 10 9.50135V9.00135C10 8.86875 9.94732 8.74157 9.85356 8.6478C9.75979 8.55403 9.63261 8.50135 9.5 8.50135H9.25C9.11739 8.50135 8.99022 8.44868 8.89645 8.35491C8.80268 8.26114 8.75 8.13396 8.75 8.00135C8.75 7.86875 8.80268 7.74157 8.89645 7.6478C8.99022 7.55403 9.11739 7.50135 9.25 7.50135H9.5C9.63261 7.50135 9.85356 7.35491 9.85356 7.35491C9.85356 7.35491 10 7.13396 10 7.00135V6.50135C10 6.36875 9.94732 6.24157 9.85356 6.1478C9.75979 6.05403 9.63261 6.00135 9.5 6.00135H9C8.86739 6.00135 8.74022 6.05403 8.64645 6.1478C8.55268 6.24157 8.5 6.36875 8.5 6.50135C8.5 6.63396 8.44733 6.76114 8.35356 6.85491C8.25979 6.94868 8.13261 7.00135 8 7.00135C7.8674 7.00135 7.74022 6.94868 7.64645 6.85491Z" fill="white"/>
<path d="M7.64645 6.85491C7.55268 6.76114 7.5 6.63396 7.5 6.50135C7.5 6.10353 7.65804 5.722 7.93934 5.44069C8.22065 5.15939 8.60218 5.00135 9 5.00135H9.5C9.89783 5.00135 10.2794 5.15939 10.5607 5.44069C10.842 5.722 11 6.10353 11 6.50135V7.00135C10.9978 7.37138 10.8589 7.72754 10.61 8.00135C10.8589 8.27517 10.9978 8.63133 11 9.00135V9.50135C11 9.89918 10.842 10.2807 10.5607 10.562C10.2794 10.8433 9.89783 11.0014 9.5 11.0014H9C8.60218 11.0014 8.22065 10.8433 7.93934 10.562C7.65804 10.2807 7.5 9.89918 7.5 9.50135C7.5 9.36875 7.55268 9.24157 7.64645 9.1478C7.74022 9.05403 7.8674 9.00135 8 9.00135C8.13261 9.00135 8.25979 9.05403 8.35356 9.1478C8.44733 9.24157 8.5 9.36875 8.5 9.50135C8.5 9.63396 8.55268 9.76114 8.64645 9.85491C8.74022 9.94868 8.86739 10.0014 9 10.0014H9.5C9.63261 10.0014 9.75979 9.94868 9.85356 9.85491C9.94732 9.76114 10 9.63396 10 9.50135V9.00135C10 8.86875 9.94732 8.74157 9.85356 8.6478C9.75979 8.55403 9.63261 8.50135 9.5 8.50135H9.25C9.11739 8.50135 8.99022 8.44868 8.89645 8.35491C8.80268 8.26114 8.75 8.13396 8.75 8.00135C8.75 7.86875 8.80268 7.74157 8.89645 7.6478C8.99022 7.55403 9.11739 7.50135 9.25 7.50135H9.5C9.63261 7.50135 9.85356 7.35491 9.85356 7.35491C9.85356 7.35491 10 7.13396 10 7.00135V6.50135C10 6.36875 9.94732 6.24157 9.85356 6.1478C9.75979 6.05403 9.63261 6.00135 9.5 6.00135H9C8.86739 6.00135 8.74022 6.05403 8.64645 6.1478C8.55268 6.24157 8.5 6.36875 8.5 6.50135C8.5 6.63396 8.44733 6.76114 8.35356 6.85491C8.25979 6.94868 8.13261 7.00135 8 7.00135C7.8674 7.00135 7.74022 6.94868 7.64645 6.85491Z" fill="white"/>
<path d="M7.64645 6.85491C7.55268 6.76114 7.5 6.63396 7.5 6.50135C7.5 6.10353 7.65804 5.722 7.93934 5.44069C8.22065 5.15939 8.60218 5.00135 9 5.00135H9.5C9.89783 5.00135 10.2794 5.15939 10.5607 5.44069C10.842 5.722 11 6.10353 11 6.50135V7.00135C10.9978 7.37138 10.8589 7.72754 10.61 8.00135C10.8589 8.27517 10.9978 8.63133 11 9.00135V9.50135C11 9.89918 10.842 10.2807 10.5607 10.562C10.2794 10.8433 9.89783 11.0014 9.5 11.0014H9C8.60218 11.0014 8.22065 10.8433 7.93934 10.562C7.65804 10.2807 7.5 9.89918 7.5 9.50135C7.5 9.36875 7.55268 9.24157 7.64645 9.1478C7.74022 9.05403 7.8674 9.00135 8 9.00135C8.13261 9.00135 8.25979 9.05403 8.35356 9.1478C8.44733 9.24157 8.5 9.36875 8.5 9.50135C8.5 9.63396 8.55268 9.76114 8.64645 9.85491C8.74022 9.94868 8.86739 10.0014 9 10.0014H9.5C9.63261 10.0014 9.75979 9.94868 9.85356 9.85491C9.94732 9.76114 10 9.63396 10 9.50135V9.00135C10 8.86875 9.94732 8.74157 9.85356 8.6478C9.75979 8.55403 9.63261 8.50135 9.5 8.50135H9.25C9.11739 8.50135 8.99022 8.44868 8.89645 8.35491C8.80268 8.26114 8.75 8.13396 8.75 8.00135C8.75 7.86875 8.80268 7.74157 8.89645 7.6478C8.99022 7.55403 9.11739 7.50135 9.25 7.50135H9.5C9.63261 7.50135 9.85356 7.35491 9.85356 7.35491C9.85356 7.35491 10 7.13396 10 7.00135V6.50135C10 6.36875 9.94732 6.24157 9.85356 6.1478C9.75979 6.05403 9.63261 6.00135 9.5 6.00135H9C8.86739 6.00135 8.74022 6.05403 8.64645 6.1478C8.55268 6.24157 8.5 6.36875 8.5 6.50135C8.5 6.63396 8.44733 6.76114 8.35356 6.85491C8.25979 6.94868 8.13261 7.00135 8 7.00135C7.8674 7.00135 7.74022 6.94868 7.64645 6.85491Z" fill="white"/>
<path d="M10.8536 9.1478C10.9473 9.24157 11 9.36875 11 9.50135C11 9.89918 10.842 10.2807 10.5607 10.562C10.2794 10.8433 9.89783 11.0014 9.5 11.0014H9C8.60218 11.0014 8.22065 10.8433 7.93934 10.562C7.65804 10.2807 7.5 9.89918 7.5 9.50135L7.5 9.00135C7.50221 8.63133 7.64111 8.27517 7.89 8.00135C7.64111 7.72754 7.50221 7.37138 7.5 7.00135L7.5 6.50135C7.5 6.10353 7.65804 5.722 7.93934 5.44069C8.22065 5.15939 8.60218 5.00135 9 5.00135H9.5C9.89783 5.00135 10.2794 5.15939 10.5607 5.44069C10.842 5.722 11 6.10353 11 6.50135C11 6.63396 10.9473 6.76114 10.8536 6.85491C10.7598 6.94868 10.6326 7.00135 10.5 7.00135C10.3674 7.00135 10.2402 6.94868 10.1464 6.85491C10.0527 6.76114 10 6.63396 10 6.50135C10 6.36875 9.94732 6.24157 9.85356 6.1478C9.75979 6.05403 9.63261 6.00135 9.5 6.00135H9C8.86739 6.00135 8.74022 6.05403 8.64645 6.1478C8.55268 6.24157 8.5 6.36875 8.5 6.50135L8.5 7.00135C8.5 7.13396 8.55268 7.26114 8.64645 7.35491C8.74022 7.44868 8.8674 7.50135 9 7.50135H9.25C9.38261 7.50135 9.50979 7.55403 9.60356 7.6478C9.69732 7.74157 9.75 7.86875 9.75 8.00135C9.75 8.13396 9.69732 8.26114 9.60356 8.35491C9.50979 8.44868 9.38261 8.50135 9.25 8.50135H9C8.8674 8.50135 8.64645 8.6478 8.64645 8.6478C8.64645 8.6478 8.5 8.86875 8.5 9.00135L8.5 9.50135C8.5 9.63396 8.55268 9.76114 8.64645 9.85491C8.74022 9.94868 8.86739 10.0014 9 10.0014H9.5C9.63261 10.0014 9.75979 9.94868 9.85356 9.85491C9.94732 9.76114 10 9.63396 10 9.50135C10 9.36875 10.0527 9.24157 10.1464 9.1478C10.2402 9.05403 10.3674 9.00135 10.5 9.00135C10.6326 9.00135 10.7598 9.05403 10.8536 9.1478Z" fill="white"/>
<path d="M10.8536 9.1478C10.9473 9.24157 11 9.36875 11 9.50135C11 9.89918 10.842 10.2807 10.5607 10.562C10.2794 10.8433 9.89783 11.0014 9.5 11.0014H9C8.60218 11.0014 8.22065 10.8433 7.93934 10.562C7.65804 10.2807 7.5 9.89918 7.5 9.50135L7.5 9.00135C7.50221 8.63133 7.64111 8.27517 7.89 8.00135C7.64111 7.72754 7.50221 7.37138 7.5 7.00135L7.5 6.50135C7.5 6.10353 7.65804 5.722 7.93934 5.44069C8.22065 5.15939 8.60218 5.00135 9 5.00135H9.5C9.89783 5.00135 10.2794 5.15939 10.5607 5.44069C10.842 5.722 11 6.10353 11 6.50135C11 6.63396 10.9473 6.76114 10.8536 6.85491C10.7598 6.94868 10.6326 7.00135 10.5 7.00135C10.3674 7.00135 10.2402 6.94868 10.1464 6.85491C10.0527 6.76114 10 6.63396 10 6.50135C10 6.36875 9.94732 6.24157 9.85356 6.1478C9.75979 6.05403 9.63261 6.00135 9.5 6.00135H9C8.86739 6.00135 8.74022 6.05403 8.64645 6.1478C8.55268 6.24157 8.5 6.36875 8.5 6.50135L8.5 7.00135C8.5 7.13396 8.55268 7.26114 8.64645 7.35491C8.74022 7.44868 8.8674 7.50135 9 7.50135H9.25C9.38261 7.50135 9.50979 7.55403 9.60356 7.6478C9.69732 7.74157 9.75 7.86875 9.75 8.00135C9.75 8.13396 9.69732 8.26114 9.60356 8.35491C9.50979 8.44868 9.38261 8.50135 9.25 8.50135H9C8.8674 8.50135 8.64645 8.6478 8.64645 8.6478C8.64645 8.6478 8.5 8.86875 8.5 9.00135L8.5 9.50135C8.5 9.63396 8.55268 9.76114 8.64645 9.85491C8.74022 9.94868 8.86739 10.0014 9 10.0014H9.5C9.63261 10.0014 9.75979 9.94868 9.85356 9.85491C9.94732 9.76114 10 9.63396 10 9.50135C10 9.36875 10.0527 9.24157 10.1464 9.1478C10.2402 9.05403 10.3674 9.00135 10.5 9.00135C10.6326 9.00135 10.7598 9.05403 10.8536 9.1478Z" fill="white"/>
<path d="M10.8536 9.1478C10.9473 9.24157 11 9.36875 11 9.50135C11 9.89918 10.842 10.2807 10.5607 10.562C10.2794 10.8433 9.89783 11.0014 9.5 11.0014H9C8.60218 11.0014 8.22065 10.8433 7.93934 10.562C7.65804 10.2807 7.5 9.89918 7.5 9.50135L7.5 9.00135C7.50221 8.63133 7.64111 8.27517 7.89 8.00135C7.64111 7.72754 7.50221 7.37138 7.5 7.00135L7.5 6.50135C7.5 6.10353 7.65804 5.722 7.93934 5.44069C8.22065 5.15939 8.60218 5.00135 9 5.00135H9.5C9.89783 5.00135 10.2794 5.15939 10.5607 5.44069C10.842 5.722 11 6.10353 11 6.50135C11 6.63396 10.9473 6.76114 10.8536 6.85491C10.7598 6.94868 10.6326 7.00135 10.5 7.00135C10.3674 7.00135 10.2402 6.94868 10.1464 6.85491C10.0527 6.76114 10 6.63396 10 6.50135C10 6.36875 9.94732 6.24157 9.85356 6.1478C9.75979 6.05403 9.63261 6.00135 9.5 6.00135H9C8.86739 6.00135 8.74022 6.05403 8.64645 6.1478C8.55268 6.24157 8.5 6.36875 8.5 6.50135L8.5 7.00135C8.5 7.13396 8.55268 7.26114 8.64645 7.35491C8.74022 7.44868 8.8674 7.50135 9 7.50135H9.25C9.38261 7.50135 9.50979 7.55403 9.60356 7.6478C9.69732 7.74157 9.75 7.86875 9.75 8.00135C9.75 8.13396 9.69732 8.26114 9.60356 8.35491C9.50979 8.44868 9.38261 8.50135 9.25 8.50135H9C8.8674 8.50135 8.64645 8.6478 8.64645 8.6478C8.64645 8.6478 8.5 8.86875 8.5 9.00135L8.5 9.50135C8.5 9.63396 8.55268 9.76114 8.64645 9.85491C8.74022 9.94868 8.86739 10.0014 9 10.0014H9.5C9.63261 10.0014 9.75979 9.94868 9.85356 9.85491C9.94732 9.76114 10 9.63396 10 9.50135C10 9.36875 10.0527 9.24157 10.1464 9.1478C10.2402 9.05403 10.3674 9.00135 10.5 9.00135C10.6326 9.00135 10.7598 9.05403 10.8536 9.1478Z" fill="white"/>
<path d="M10.8536 9.1478C10.9473 9.24157 11 9.36875 11 9.50135C11 9.89918 10.842 10.2807 10.5607 10.562C10.2794 10.8433 9.89783 11.0014 9.5 11.0014H9C8.60218 11.0014 8.22065 10.8433 7.93934 10.562C7.65804 10.2807 7.5 9.89918 7.5 9.50135L7.5 9.00135C7.50221 8.63133 7.64111 8.27517 7.89 8.00135C7.64111 7.72754 7.50221 7.37138 7.5 7.00135L7.5 6.50135C7.5 6.10353 7.65804 5.722 7.93934 5.44069C8.22065 5.15939 8.60218 5.00135 9 5.00135H9.5C9.89783 5.00135 10.2794 5.15939 10.5607 5.44069C10.842 5.722 11 6.10353 11 6.50135C11 6.63396 10.9473 6.76114 10.8536 6.85491C10.7598 6.94868 10.6326 7.00135 10.5 7.00135C10.3674 7.00135 10.2402 6.94868 10.1464 6.85491C10.0527 6.76114 10 6.63396 10 6.50135C10 6.36875 9.94732 6.24157 9.85356 6.1478C9.75979 6.05403 9.63261 6.00135 9.5 6.00135H9C8.86739 6.00135 8.74022 6.05403 8.64645 6.1478C8.55268 6.24157 8.5 6.36875 8.5 6.50135L8.5 7.00135C8.5 7.13396 8.55268 7.26114 8.64645 7.35491C8.74022 7.44868 8.8674 7.50135 9 7.50135H9.25C9.38261 7.50135 9.50979 7.55403 9.60356 7.6478C9.69732 7.74157 9.75 7.86875 9.75 8.00135C9.75 8.13396 9.69732 8.26114 9.60356 8.35491C9.50979 8.44868 9.38261 8.50135 9.25 8.50135H9C8.8674 8.50135 8.64645 8.6478 8.64645 8.6478C8.64645 8.6478 8.5 8.86875 8.5 9.00135L8.5 9.50135C8.5 9.63396 8.55268 9.76114 8.64645 9.85491C8.74022 9.94868 8.86739 10.0014 9 10.0014H9.5C9.63261 10.0014 9.75979 9.94868 9.85356 9.85491C9.94732 9.76114 10 9.63396 10 9.50135C10 9.36875 10.0527 9.24157 10.1464 9.1478C10.2402 9.05403 10.3674 9.00135 10.5 9.00135C10.6326 9.00135 10.7598 9.05403 10.8536 9.1478Z" fill="white"/>
</g>
<defs>
<clipPath id="clip0_5769_60321">
<rect width="12" height="12" fill="white" transform="translate(2 2)"/>
</clipPath>
</defs>
</svg>
