<svg width="14" height="14" viewBox="0 0 14 14" fill="none" xmlns="http://www.w3.org/2000/svg">
<path d="M11.6668 0.333008H2.3335C1.80306 0.333008 1.29436 0.543722 0.919283 0.918794C0.54421 1.29387 0.333496 1.80257 0.333496 2.33301V11.6663C0.333496 12.1968 0.54421 12.7055 0.919283 13.0806C1.29436 13.4556 1.80306 13.6663 2.3335 13.6663H11.6668C11.7765 13.6648 11.8858 13.6537 11.9935 13.633L12.1935 13.5863H12.2402H12.2735L12.5202 13.493L12.6068 13.4463C12.6735 13.4063 12.7468 13.373 12.8135 13.3263C12.9025 13.2608 12.9871 13.1896 13.0668 13.113L13.1135 13.053C13.1789 12.9867 13.2391 12.9154 13.2935 12.8397L13.3535 12.753C13.4001 12.6788 13.4402 12.6007 13.4735 12.5197C13.4918 12.4877 13.5074 12.4542 13.5202 12.4197C13.5535 12.3397 13.5735 12.253 13.6002 12.1663V12.0663C13.638 11.9361 13.6603 11.8018 13.6668 11.6663V2.33301C13.6668 1.80257 13.4561 1.29387 13.081 0.918794C12.706 0.543722 12.1973 0.333008 11.6668 0.333008ZM2.3335 12.333C2.15668 12.333 1.98712 12.2628 1.86209 12.1377C1.73707 12.0127 1.66683 11.8432 1.66683 11.6663V8.79301L3.86016 6.59301C3.92214 6.53052 3.99587 6.48093 4.07711 6.44708C4.15835 6.41323 4.24549 6.39581 4.3335 6.39581C4.4215 6.39581 4.50864 6.41323 4.58988 6.44708C4.67112 6.48093 4.74485 6.53052 4.80683 6.59301L10.5402 12.333H2.3335ZM12.3335 11.6663C12.3329 11.7485 12.317 11.8299 12.2868 11.9063C12.2716 11.9388 12.2538 11.97 12.2335 11.9997C12.2157 12.0279 12.1956 12.0546 12.1735 12.0797L8.60683 8.51301L9.1935 7.92634C9.25547 7.86386 9.3292 7.81426 9.41044 7.78041C9.49168 7.74657 9.57882 7.72914 9.66683 7.72914C9.75484 7.72914 9.84197 7.74657 9.92321 7.78041C10.0045 7.81426 10.0782 7.86386 10.1402 7.92634L12.3335 10.1263V11.6663ZM12.3335 8.23967L11.0802 6.99967C10.6986 6.63767 10.1928 6.43586 9.66683 6.43586C9.1409 6.43586 8.63501 6.63767 8.2535 6.99967L7.66683 7.58634L5.74683 5.66634C5.36531 5.30434 4.85943 5.10253 4.3335 5.10253C3.80756 5.10253 3.30168 5.30434 2.92016 5.66634L1.66683 6.90634V2.33301C1.66683 2.1562 1.73707 1.98663 1.86209 1.8616C1.98712 1.73658 2.15668 1.66634 2.3335 1.66634H11.6668C11.8436 1.66634 12.0132 1.73658 12.1382 1.8616C12.2633 1.98663 12.3335 2.1562 12.3335 2.33301V8.23967Z" fill="white"/>
</svg>
