<svg id="icon-camera" viewBox="0 0 31 28" fill="none" xmlns="http://www.w3.org/2000/svg">
  <path fill-rule="evenodd" clip-rule="evenodd"
    d="M27.1251 28H3.87514C2.8376 27.9882 1.84703 27.5606 1.12063 26.8111C0.39423 26.0616 -0.00871606 25.0512 0.000143049 24.0016V8.008C-0.00871606 6.95838 0.39423 5.94804 1.12063 5.19851C1.84703 4.44897 2.8376 4.02142 3.87514 4.0096H6.54336L8.49193 0H22.5084L24.4459 4.0096H27.1251C27.6384 4.01399 28.1457 4.12061 28.6182 4.32337C29.0908 4.52613 29.5192 4.82105 29.879 5.1913C30.2388 5.56155 30.523 5.99987 30.7154 6.48124C30.9078 6.96261 31.0045 7.4776 31.0001 7.9968V24.0016C31.009 25.0512 30.6061 26.0616 29.8797 26.8111C29.1533 27.5606 28.1627 27.9882 27.1251 28ZM15.5001 7C13.4534 7.07748 11.5159 7.95449 10.0949 9.44676C8.67396 10.939 7.88006 12.9304 7.88006 15.0024C7.88006 17.0744 8.67396 19.0658 10.0949 20.558C11.5159 22.0503 13.4534 22.9273 15.5001 23.0048C17.5469 22.9273 19.4844 22.0503 20.9053 20.558C22.3263 19.0658 23.1202 17.0744 23.1202 15.0024C23.1202 12.9304 22.3263 10.939 20.9053 9.44676C19.4844 7.95449 17.5469 7.07748 15.5001 7ZM12.7655 17.8304C12.0371 17.0734 11.6296 16.0588 11.6296 15.0024C11.6296 13.946 12.0371 12.9314 12.7655 12.1744C13.1134 11.8093 13.5293 11.5174 13.9892 11.3157C14.4491 11.1139 14.944 11.0063 15.4452 10.999C15.9465 10.9917 16.4442 11.0849 16.9097 11.2732C17.3752 11.4615 17.7992 11.7411 18.1573 12.096L18.2459 12.1744C18.9691 12.9341 19.3731 13.9477 19.3731 15.0024C19.3731 16.0571 18.9691 17.0707 18.2459 17.8304C17.897 18.1953 17.4805 18.4871 17.0201 18.6891C16.5597 18.8911 16.0645 18.9994 15.5628 19.0077C15.061 19.016 14.5626 18.9242 14.0959 18.7376C13.6292 18.551 13.2035 18.2731 12.843 17.92L12.7544 17.8416L12.7655 17.8304Z"
    fill="currentColor" />
</svg>