<svg width="20" height="20" viewBox="0 0 20 20" fill="none" xmlns="http://www.w3.org/2000/svg">
<g id="Icon set">
<path id="Vector" d="M10.8 13.201H6.00001C5.78783 13.201 5.58435 13.2852 5.43432 13.4352C5.28429 13.5852 5.20001 13.7887 5.20001 14.0008C5.20001 14.2129 5.28429 14.4164 5.43432 14.5664C5.58435 14.7164 5.78783 14.8006 6.00001 14.8006H10.8C11.0122 14.8006 11.2157 14.7164 11.3657 14.5664C11.5157 14.4164 11.6 14.2129 11.6 14.0008C11.6 13.7887 11.5157 13.5852 11.3657 13.4352C11.2157 13.2852 11.0122 13.201 10.8 13.201ZM7.6 8.40191H9.2C9.41218 8.40191 9.61566 8.31764 9.76569 8.16764C9.91572 8.01764 10 7.8142 10 7.60207C10 7.38994 9.91572 7.18649 9.76569 7.03649C9.61566 6.88649 9.41218 6.80223 9.2 6.80223H7.6C7.38783 6.80223 7.18435 6.88649 7.03432 7.03649C6.88429 7.18649 6.8 7.38994 6.8 7.60207C6.8 7.8142 6.88429 8.01764 7.03432 8.16764C7.18435 8.31764 7.38783 8.40191 7.6 8.40191ZM17.2 10.0016H14.8V2.80302C14.8006 2.66208 14.7639 2.52349 14.6936 2.4013C14.6234 2.2791 14.5221 2.17763 14.4 2.10716C14.2784 2.03696 14.1404 2 14 2C13.8596 2 13.7216 2.03696 13.6 2.10716L11.2 3.48289L8.8 2.10716C8.67839 2.03696 8.54043 2 8.4 2C8.25957 2 8.12162 2.03696 8 2.10716L5.60001 3.48289L3.20001 2.10716C3.07839 2.03696 2.94044 2 2.80001 2C2.65958 2 2.52162 2.03696 2.40001 2.10716C2.27792 2.17763 2.17663 2.2791 2.10639 2.4013C2.03615 2.52349 1.99945 2.66208 2.00001 2.80302V15.6005C2.00001 16.2369 2.25286 16.8472 2.70295 17.2972C3.15304 17.7472 3.76349 18 4.40001 18H15.6C16.2365 18 16.847 17.7472 17.2971 17.2972C17.7471 16.8472 18 16.2369 18 15.6005V10.8014C18 10.5893 17.9157 10.3859 17.7657 10.2359C17.6157 10.0859 17.4122 10.0016 17.2 10.0016ZM4.40001 16.4003C4.18783 16.4003 3.98435 16.316 3.83432 16.1661C3.68429 16.0161 3.60001 15.8126 3.60001 15.6005V4.18675L5.20001 5.09856C5.32348 5.16304 5.46071 5.19671 5.60001 5.19671C5.7393 5.19671 5.87654 5.16304 6.00001 5.09856L8.4 3.72284L10.8 5.09856C10.9235 5.16304 11.0607 5.19671 11.2 5.19671C11.3393 5.19671 11.4765 5.16304 11.6 5.09856L13.2 4.18675V15.6005C13.2022 15.8733 13.2509 16.1438 13.344 16.4003H4.40001ZM16.4 15.6005C16.4 15.8126 16.3157 16.0161 16.1657 16.1661C16.0157 16.316 15.8122 16.4003 15.6 16.4003C15.3878 16.4003 15.1843 16.316 15.0343 16.1661C14.8843 16.0161 14.8 15.8126 14.8 15.6005V11.6013H16.4V15.6005ZM10.8 10.0016H6.00001C5.78783 10.0016 5.58435 10.0859 5.43432 10.2359C5.28429 10.3859 5.20001 10.5893 5.20001 10.8014C5.20001 11.0136 5.28429 11.217 5.43432 11.367C5.58435 11.517 5.78783 11.6013 6.00001 11.6013H10.8C11.0122 11.6013 11.2157 11.517 11.3657 11.367C11.5157 11.217 11.6 11.0136 11.6 10.8014C11.6 10.5893 11.5157 10.3859 11.3657 10.2359C11.2157 10.0859 11.0122 10.0016 10.8 10.0016Z" fill="white"/>
</g>
</svg>
