<svg width="25" height="24" viewBox="0 0 25 24" fill="none" xmlns="http://www.w3.org/2000/svg">
<g id="Icon set">
<path id="Vector" d="M16.3708 11.29L10.7108 5.64004C10.6178 5.54631 10.5072 5.47191 10.3854 5.42115C10.2635 5.37038 10.1328 5.34424 10.0008 5.34424C9.86878 5.34424 9.73807 5.37038 9.61622 5.42115C9.49436 5.47191 9.38376 5.54631 9.29079 5.64004C9.10454 5.8274 9 6.08085 9 6.34504C9 6.60922 9.10454 6.86267 9.29079 7.05004L14.2408 12.05L9.29079 17C9.10454 17.1874 9 17.4409 9 17.705C9 17.9692 9.10454 18.2227 9.29079 18.41C9.38341 18.5045 9.49385 18.5797 9.61573 18.6312C9.7376 18.6827 9.86849 18.7095 10.0008 18.71C10.1331 18.7095 10.264 18.6827 10.3859 18.6312C10.5077 18.5797 10.6182 18.5045 10.7108 18.41L16.3708 12.76C16.4723 12.6664 16.5533 12.5527 16.6087 12.4262C16.6641 12.2997 16.6927 12.1631 16.6927 12.025C16.6927 11.8869 16.6641 11.7503 16.6087 11.6238C16.5533 11.4973 16.4723 11.3837 16.3708 11.29Z" fill="#FF6400"/>
</g>
</svg>
