<svg width="40" height="40" viewBox="0 0 40 40" fill="none" xmlns="http://www.w3.org/2000/svg">
<rect x="0.5" y="0.5" width="39" height="39" rx="19.5" fill="white"/>
<path d="M11.25 12.5C10.5749 12.5 10 11.9713 10 11.2962V11.2055C10 10.5503 10.5085 10.0032 11.1636 10.0002L11.25 10C21.6053 10 30 18.3947 30 28.75L29.9998 28.8363C29.9968 29.4915 29.4497 30 28.7945 30H28.7038C28.0287 30 27.5 29.4252 27.5 28.75C27.5 19.7753 20.2247 12.5 11.25 12.5Z" fill="#0519D2"/>
<path d="M22.1567 30C22.7888 30 23.3253 29.5215 23.3325 28.8893C23.333 28.843 23.3333 28.7965 23.3333 28.75C23.3333 22.0765 17.9235 16.6667 11.25 16.6667C11.2035 16.6667 11.157 16.667 11.1106 16.6675C10.4785 16.6747 10 17.2112 10 17.8433V17.994C10 18.6583 10.5856 19.1667 11.25 19.1667C16.5427 19.1667 20.8333 23.4573 20.8333 28.75C20.8333 29.4143 21.3417 30 22.006 30H22.1567Z" fill="#0519D2"/>
<path d="M15 27.5C15 28.8807 13.8807 30 12.5 30C11.1193 30 10 28.8807 10 27.5C10 26.1193 11.1193 25 12.5 25C13.8807 25 15 26.1193 15 27.5Z" fill="#0519D2"/>
<rect x="0.5" y="0.5" width="39" height="39" rx="19.5" stroke="#CEDCFF"/>
</svg>
