<svg width="14" height="8" viewBox="0 0 14 8" fill="none" xmlns="http://www.w3.org/2000/svg">
<path d="M13.3535 0.766667C13.2521 0.708155 13.1372 0.677351 13.0202 0.677351C12.9031 0.677351 12.7882 0.708155 12.6868 0.766667L10.3335 1.92667C10.3145 1.40905 10.0954 0.918982 9.7224 0.559626C9.34937 0.20027 8.85146 -0.00034785 8.3335 4.52771e-07H2.3335C1.80306 4.52771e-07 1.29436 0.210714 0.919283 0.585787C0.54421 0.96086 0.333496 1.46957 0.333496 2V6C0.333496 6.53043 0.54421 7.03914 0.919283 7.41421C1.29436 7.78929 1.80306 8 2.3335 8H8.3335C8.85146 8.00035 9.34937 7.79973 9.7224 7.44037C10.0954 7.08102 10.3145 6.59095 10.3335 6.07333L12.7068 7.26C12.7977 7.30659 12.8981 7.33168 13.0002 7.33333C13.125 7.33373 13.2474 7.29909 13.3535 7.23333C13.4496 7.17329 13.5288 7.08975 13.5836 6.9906C13.6384 6.89145 13.6671 6.77996 13.6668 6.66667V1.33333C13.6671 1.22004 13.6384 1.10855 13.5836 1.0094C13.5288 0.910255 13.4496 0.826714 13.3535 0.766667ZM9.00016 6C9.00016 6.17681 8.92992 6.34638 8.8049 6.47141C8.67988 6.59643 8.51031 6.66667 8.3335 6.66667H2.3335C2.15668 6.66667 1.98712 6.59643 1.86209 6.47141C1.73707 6.34638 1.66683 6.17681 1.66683 6V2C1.66683 1.82319 1.73707 1.65362 1.86209 1.5286C1.98712 1.40357 2.15668 1.33333 2.3335 1.33333H8.3335C8.51031 1.33333 8.67988 1.40357 8.8049 1.5286C8.92992 1.65362 9.00016 1.82319 9.00016 2V6ZM12.3335 5.58667L10.3335 4.58667V3.41333L12.3335 2.41333V5.58667Z" fill="white"/>
</svg>
