<svg width="9" height="14" viewBox="0 0 9 14" fill="none" xmlns="http://www.w3.org/2000/svg">
<path d="M0.879208 7.76416L6.53921 13.4142C6.63217 13.5079 6.74277 13.5823 6.86463 13.6331C6.98649 13.6838 7.1172 13.71 7.24921 13.71C7.38122 13.71 7.51193 13.6838 7.63378 13.6331C7.75564 13.5823 7.86624 13.5079 7.95921 13.4142C8.14546 13.2268 8.25 12.9733 8.25 12.7092C8.25 12.445 8.14546 12.1915 7.95921 12.0042L3.00921 7.00416L7.95921 2.05416C8.14546 1.8668 8.25 1.61335 8.25 1.34916C8.25 1.08498 8.14546 0.831526 7.95921 0.644163C7.86659 0.549675 7.75615 0.474504 7.63427 0.423008C7.5124 0.371511 7.38151 0.344713 7.24921 0.344164C7.1169 0.344713 6.98602 0.371511 6.86414 0.423008C6.74227 0.474504 6.63182 0.549675 6.53921 0.644163L0.879208 6.29416C0.777703 6.3878 0.696694 6.50146 0.641287 6.62796C0.585879 6.75446 0.557275 6.89106 0.557275 7.02916C0.557275 7.16726 0.585879 7.30387 0.641287 7.43037C0.696694 7.55687 0.777703 7.67052 0.879208 7.76416Z" fill="#0519D2"/>
</svg>
