<svg width="24" height="24" viewBox="0 0 24 24" fill="none" xmlns="http://www.w3.org/2000/svg">
<g id="videa-logo 1" clip-path="url(#clip0_5988_9136)">
<g id="videa">
<path id="XMLID_1_" d="M12 24C18.6274 24 24 18.6274 24 12C24 5.37258 18.6274 0 12 0C5.37258 0 0 5.37258 0 12C0 18.6274 5.37258 24 12 24Z" fill="white"/>
<g id="Group">
<path id="Vector" d="M13.6212 6.16188C13.7981 9.72945 13.8865 14.4469 11.0266 15.3609L10.4074 15.5378L10.3189 14.8007C10.2305 12.8253 10.5843 11.0562 10.9381 9.2577C11.115 8.19628 11.3804 7.10537 11.4688 6.04395H7.6359C7.01673 8.63854 6.01428 14.6238 7.45899 16.953C7.8128 17.4837 8.25506 17.7491 8.78578 17.8376C9.31649 17.926 9.8472 17.926 10.4074 17.926C12.3828 17.926 13.975 17.3068 15.0659 15.9506C16.8644 13.9751 17.572 10.4076 17.2182 6.04395H13.6212V6.16188Z" fill="#32353D"/>
</g>
</g>
</g>
<defs>
<clipPath id="clip0_5988_9136">
<rect width="24" height="24" fill="white"/>
</clipPath>
</defs>
</svg>
