<svg width="24" height="24" viewBox="0 0 24 24" fill="none" xmlns="http://www.w3.org/2000/svg">
<g id="Icon set">
<g id="Vector">
<path d="M21.0682 7.75769L16.2425 2.93193C14.9152 1.60466 12.6777 1.96776 11.8382 3.64664L9.40283 8.51752C9.31514 8.69291 9.16225 8.82698 8.9769 8.891L4.81063 10.3302C3.93793 10.6317 3.68202 11.7427 4.33489 12.3956L7.43938 15.5001L3.0001 19.9394L3.00002 21.0001H4.06076L8.50004 16.5607L11.6045 19.6653C12.2574 20.3181 13.3684 20.0622 13.6699 19.1895L15.1092 15.0232C15.1732 14.8379 15.3073 14.685 15.4826 14.5973L20.3535 12.1619C22.0324 11.3224 22.3955 9.08495 21.0682 7.75769Z" fill="#0519D2"/>
<path fill-rule="evenodd" clip-rule="evenodd" d="M11.6146 3.53483C12.5304 1.70334 14.9713 1.30722 16.4193 2.75515L21.245 7.58092C22.693 9.02884 22.2968 11.4697 20.4653 12.3855L15.5945 14.8209C15.5945 14.8209 15.5945 14.8209 15.5945 14.8209C15.4776 14.8794 15.3882 14.9814 15.3455 15.1049L13.9062 19.2712C13.5444 20.3184 12.2112 20.6255 11.4278 19.8421L8.50004 16.9143L4.16431 21.2501H2.75L2.75011 19.8359L7.08583 15.5001L4.15811 12.5724C3.37467 11.7889 3.68176 10.4557 4.72899 10.0939L8.89527 8.6547C9.01883 8.61203 9.12076 8.52265 9.17922 8.40572L11.6146 3.53483ZM12.0618 3.75845C12.0618 3.75845 12.0618 3.75845 12.0618 3.75845L9.62644 8.62932L12.0618 3.75845ZM9.05852 9.1273L4.89226 10.5665C4.1941 10.8077 3.98937 11.6965 4.51167 12.2189L7.79293 15.5001L3.25009 20.043L3.25004 20.7501H3.9572L8.50004 16.2072L11.7813 19.4886C12.3036 20.0108 13.1924 19.8061 13.4336 19.1079L14.8729 14.9416C14.9583 14.6945 15.1371 14.4907 15.3708 14.3738L20.2417 11.9383C21.768 11.1751 22.0981 9.14107 20.8914 7.93447L16.0657 3.10871C14.8591 1.9021 12.825 2.23219 12.0618 3.75845" fill="#0519D2"/>
</g>
</g>
</svg>
