<svg width="16" height="16" viewBox="0 0 16 16" fill="none" xmlns="http://www.w3.org/2000/svg">
<g id="Atoms/ikon">
<path id="Vector" d="M12.6666 1.3335H3.33331C2.80288 1.3335 2.29417 1.54421 1.9191 1.91928C1.54403 2.29436 1.33331 2.80306 1.33331 3.3335V12.6668C1.33331 13.1973 1.54403 13.706 1.9191 14.081C2.29417 14.4561 2.80288 14.6668 3.33331 14.6668H12.6666C12.7763 14.6653 12.8856 14.6541 12.9933 14.6335L13.1933 14.5868H13.24H13.2733L13.52 14.4935L13.6066 14.4468C13.6733 14.4068 13.7466 14.3735 13.8133 14.3268C13.9023 14.2613 13.987 14.1901 14.0666 14.1135L14.1133 14.0535C14.1788 13.9872 14.2389 13.9158 14.2933 13.8402L14.3533 13.7535C14.3999 13.6793 14.44 13.6012 14.4733 13.5202C14.4916 13.4882 14.5072 13.4547 14.52 13.4202C14.5533 13.3402 14.5733 13.2535 14.6 13.1668V13.0668C14.6378 12.9366 14.6602 12.8023 14.6666 12.6668V3.3335C14.6666 2.80306 14.4559 2.29436 14.0809 1.91928C13.7058 1.54421 13.1971 1.3335 12.6666 1.3335ZM3.33331 13.3335C3.1565 13.3335 2.98693 13.2633 2.86191 13.1382C2.73688 13.0132 2.66665 12.8436 2.66665 12.6668V9.7935L4.85998 7.5935C4.92196 7.53101 4.99569 7.48141 5.07693 7.44757C5.15817 7.41372 5.24531 7.3963 5.33331 7.3963C5.42132 7.3963 5.50846 7.41372 5.5897 7.44757C5.67094 7.48141 5.74467 7.53101 5.80665 7.5935L11.54 13.3335H3.33331ZM13.3333 12.6668C13.3327 12.749 13.3169 12.8304 13.2866 12.9068C13.2714 12.9393 13.2536 12.9705 13.2333 13.0002C13.2155 13.0284 13.1954 13.0551 13.1733 13.0802L9.60665 9.5135L10.1933 8.92683C10.2553 8.86434 10.329 8.81475 10.4103 8.7809C10.4915 8.74706 10.5786 8.72963 10.6666 8.72963C10.7547 8.72963 10.8418 8.74706 10.923 8.7809C11.0043 8.81475 11.078 8.86434 11.14 8.92683L13.3333 11.1268V12.6668ZM13.3333 9.24016L12.08 8.00016C11.6985 7.63816 11.1926 7.43635 10.6666 7.43635C10.1407 7.43635 9.63483 7.63816 9.25331 8.00016L8.66665 8.58683L6.74665 6.66683C6.36513 6.30482 5.85925 6.10302 5.33331 6.10302C4.80738 6.10302 4.3015 6.30482 3.91998 6.66683L2.66665 7.90683V3.3335C2.66665 3.15669 2.73688 2.98712 2.86191 2.86209C2.98693 2.73707 3.1565 2.66683 3.33331 2.66683H12.6666C12.8435 2.66683 13.013 2.73707 13.1381 2.86209C13.2631 2.98712 13.3333 3.15669 13.3333 3.3335V9.24016Z" fill="white"/>
</g>
</svg>
