<svg width="36" height="36" viewBox="0 0 36 36" fill="none" xmlns="http://www.w3.org/2000/svg">
<path d="M17.8 35.6C27.6307 35.6 35.6 27.6307 35.6 17.8C35.6 7.96933 27.6307 0 17.8 0C7.96933 0 0 7.96933 0 17.8C0 27.6307 7.96933 35.6 17.8 35.6Z" fill="url(#paint0_linear_113_13701)"/>
<path d="M15.9 20L9.79999 15.6V22.3C9.79999 23.2 10.5 23.9 11.4 23.9H24.3C25.2 23.9 25.9 23.2 25.9 22.3V15.6L19.8 20C18.5 20.8 17.1 20.8 15.9 20Z" fill="white"/>
<path d="M19.4 18.9L25.8 14.3V13.4C25.8 12.5 25.1 11.8 24.2 11.8H11.4C10.5 11.8 9.79999 12.5 9.79999 13.4V14.3L16.2 18.9C17.2 19.6 18.4 19.6 19.4 18.9Z" fill="white"/>
<defs>
<linearGradient id="paint0_linear_113_13701" x1="17.7978" y1="35.6357" x2="17.7978" y2="0.0523997" gradientUnits="userSpaceOnUse">
<stop stop-color="#7ADCFD"/>
<stop offset="1" stop-color="#5C7DFC"/>
</linearGradient>
</defs>
</svg>
