<svg width="36" height="36" viewBox="0 0 36 36" fill="none" xmlns="http://www.w3.org/2000/svg">
<path d="M18 36C27.9411 36 36 27.9411 36 18C36 8.05887 27.9411 0 18 0C8.05887 0 0 8.05887 0 18C0 27.9411 8.05887 36 18 36Z" fill="#BD081C"/>
<path d="M25.7 14.6C25.7 19.1 23.2 22.4 19.6 22.4C18.5 22.4 17.4 21.9 16.8 21C16.8 21 16.1 23.6 16 24.1C15.5 25.4 14.8 26.7 14 27.8C13.9 27.9 13.8 27.9 13.8 27.8C13.8 27.8 13.8 27.8 13.8 27.7C13.6 26.3 13.6 24.8 13.8 23.4C14 22.5 15.3 17.2 15.3 17.2C15.1 16.6 14.9 16 14.9 15.4C14.9 13.7 15.9 12.5 17.1 12.5C17.9 12.5 18.6 13.2 18.6 14C18.6 14.1 18.6 14.1 18.6 14.2C18.4 15.6 18 16.9 17.6 18.2C17.4 19.1 17.9 20.1 18.9 20.3C19.1 20.3 19.2 20.4 19.4 20.4C21.5 20.4 23 17.6 23 14.4C23 11.9 21.3 10.1 18.3 10.1C15.3 9.99999 12.8 12.3 12.7 15.3C12.7 15.4 12.7 15.5 12.7 15.6C12.7 16.4 12.9 17.2 13.5 17.8C13.7 18 13.8 18.2 13.7 18.4C13.6 18.6 13.5 19.1 13.5 19.3C13.4 19.5 13.2 19.7 13 19.6C13 19.6 13 19.6 12.9 19.6C11.3 18.9 10.6 17.2 10.6 15.3C10.6 12.1 13.3 8.19999 18.7 8.19999C22.8 8.09999 25.7 11.2 25.7 14.6Z" fill="white"/>
</svg>
