<svg width="20" height="20" viewBox="0 0 20 20" fill="none" xmlns="http://www.w3.org/2000/svg">
<g id="Icon set">
<path id="Vector" d="M15.833 9.16683H10.833V4.16683C10.833 3.94582 10.7452 3.73385 10.5889 3.57757C10.4326 3.42129 10.2207 3.3335 9.99967 3.3335C9.77866 3.3335 9.5667 3.42129 9.41042 3.57757C9.25414 3.73385 9.16634 3.94582 9.16634 4.16683V9.16683H4.16634C3.94533 9.16683 3.73337 9.25463 3.57709 9.41091C3.42081 9.56719 3.33301 9.77915 3.33301 10.0002C3.33301 10.2212 3.42081 10.4331 3.57709 10.5894C3.73337 10.7457 3.94533 10.8335 4.16634 10.8335H9.16634V15.8335C9.16634 16.0545 9.25414 16.2665 9.41042 16.4228C9.5667 16.579 9.77866 16.6668 9.99967 16.6668C10.2207 16.6668 10.4326 16.579 10.5889 16.4228C10.7452 16.2665 10.833 16.0545 10.833 15.8335V10.8335H15.833C16.054 10.8335 16.266 10.7457 16.4223 10.5894C16.5785 10.4331 16.6663 10.2212 16.6663 10.0002C16.6663 9.77915 16.5785 9.56719 16.4223 9.41091C16.266 9.25463 16.054 9.16683 15.833 9.16683Z" fill="#F63D3E"/>
</g>
</svg>
