<svg width="36" height="36" viewBox="0 0 36 36" fill="none" xmlns="http://www.w3.org/2000/svg">
<circle cx="18" cy="18" r="18" fill="#D81081"/>
<path fill-rule="evenodd" clip-rule="evenodd" d="M13.8773 8.06C14.9436 8.01091 15.2836 8 18 8C20.7164 8 21.0564 8.01182 22.1218 8.06C23.1873 8.10818 23.9145 8.27818 24.5509 8.52455C25.2173 8.77636 25.8218 9.17 26.3218 9.67909C26.8309 10.1782 27.2236 10.7818 27.4745 11.4491C27.7218 12.0855 27.8909 12.8127 27.94 13.8764C27.9891 14.9445 28 15.2845 28 18C28 20.7164 27.9882 21.0564 27.94 22.1227C27.8918 23.1864 27.7218 23.9136 27.4745 24.55C27.2236 25.2174 26.8303 25.822 26.3218 26.3218C25.8218 26.8309 25.2173 27.2236 24.5509 27.4745C23.9145 27.7218 23.1873 27.8909 22.1236 27.94C21.0564 27.9891 20.7164 28 18 28C15.2836 28 14.9436 27.9882 13.8773 27.94C12.8136 27.8918 12.0864 27.7218 11.45 27.4745C10.7827 27.2236 10.178 26.8302 9.67818 26.3218C9.16944 25.8224 8.77574 25.2181 8.52455 24.5509C8.27818 23.9145 8.10909 23.1873 8.06 22.1236C8.01091 21.0555 8 20.7155 8 18C8 15.2836 8.01182 14.9436 8.06 13.8782C8.10818 12.8127 8.27818 12.0855 8.52455 11.4491C8.77611 10.7819 9.17011 10.1776 9.67909 9.67818C10.1782 9.16955 10.7822 8.77586 11.4491 8.52455C12.0855 8.27818 12.8127 8.10909 13.8764 8.06H13.8773ZM22.0409 9.86C20.9864 9.81182 20.67 9.80182 18 9.80182C15.33 9.80182 15.0136 9.81182 13.9591 9.86C12.9836 9.90455 12.4545 10.0673 12.1018 10.2045C11.6355 10.3864 11.3018 10.6018 10.9518 10.9518C10.62 11.2746 10.3647 11.6675 10.2045 12.1018C10.0673 12.4545 9.90455 12.9836 9.86 13.9591C9.81182 15.0136 9.80182 15.33 9.80182 18C9.80182 20.67 9.81182 20.9864 9.86 22.0409C9.90455 23.0164 10.0673 23.5455 10.2045 23.8982C10.3645 24.3318 10.62 24.7255 10.9518 25.0482C11.2745 25.38 11.6682 25.6355 12.1018 25.7955C12.4545 25.9327 12.9836 26.0955 13.9591 26.14C15.0136 26.1882 15.3291 26.1982 18 26.1982C20.6709 26.1982 20.9864 26.1882 22.0409 26.14C23.0164 26.0955 23.5455 25.9327 23.8982 25.7955C24.3645 25.6136 24.6982 25.3982 25.0482 25.0482C25.38 24.7255 25.6355 24.3318 25.7955 23.8982C25.9327 23.5455 26.0955 23.0164 26.14 22.0409C26.1882 20.9864 26.1982 20.67 26.1982 18C26.1982 15.33 26.1882 15.0136 26.14 13.9591C26.0955 12.9836 25.9327 12.4545 25.7955 12.1018C25.6136 11.6355 25.3982 11.3018 25.0482 10.9518C24.7254 10.6201 24.3325 10.3647 23.8982 10.2045C23.5455 10.0673 23.0164 9.90455 22.0409 9.86ZM16.7227 21.0827C17.4361 21.3797 18.2303 21.4197 18.9699 21.1961C19.7095 20.9725 20.3485 20.499 20.7778 19.8566C21.2071 19.2142 21.4001 18.4426 21.3237 17.6737C21.2473 16.9049 20.9064 16.1863 20.3591 15.6409C20.0102 15.2923 19.5884 15.0253 19.1239 14.8592C18.6595 14.6932 18.164 14.6321 17.6732 14.6806C17.1823 14.729 16.7083 14.8856 16.2853 15.1392C15.8622 15.3928 15.5007 15.737 15.2266 16.1471C14.9526 16.5572 14.7729 17.023 14.7005 17.5109C14.628 17.9988 14.6647 18.4966 14.8078 18.9687C14.9508 19.4407 15.1968 19.8751 15.5279 20.2407C15.8591 20.6062 16.2671 20.8938 16.7227 21.0827ZM14.3655 14.3655C14.8428 13.8882 15.4094 13.5095 16.033 13.2512C16.6566 12.9929 17.325 12.86 18 12.86C18.675 12.86 19.3434 12.9929 19.967 13.2512C20.5906 13.5095 21.1573 13.8882 21.6345 14.3655C22.1118 14.8428 22.4905 15.4094 22.7488 16.033C23.0071 16.6566 23.14 17.325 23.14 18C23.14 18.675 23.0071 19.3434 22.7488 19.967C22.4905 20.5906 22.1118 21.1573 21.6345 21.6345C20.6706 22.5985 19.3632 23.14 18 23.14C16.6368 23.14 15.3294 22.5985 14.3655 21.6345C13.4015 20.6706 12.86 19.3632 12.86 18C12.86 16.6368 13.4015 15.3294 14.3655 14.3655ZM24.28 13.6255C24.3983 13.5139 24.493 13.3797 24.5585 13.2309C24.624 13.0821 24.6589 12.9216 24.6613 12.759C24.6637 12.5964 24.6334 12.435 24.5723 12.2844C24.5111 12.1337 24.4204 11.9968 24.3054 11.8819C24.1904 11.7669 24.0536 11.6761 23.9029 11.615C23.7522 11.5539 23.5908 11.5236 23.4282 11.526C23.2657 11.5284 23.1052 11.5633 22.9564 11.6288C22.8076 11.6943 22.6734 11.789 22.5618 11.9073C22.3448 12.1373 22.226 12.4428 22.2306 12.759C22.2352 13.0752 22.3629 13.3772 22.5865 13.6008C22.8101 13.8244 23.1121 13.952 23.4282 13.9566C23.7444 13.9612 24.05 13.8424 24.28 13.6255Z" fill="white"/>
</svg>
