<svg width="24" height="24" viewBox="0 0 24 24" fill="none" xmlns="http://www.w3.org/2000/svg">
<g clip-path="url(#clip0_5988_9157)">
<path d="M12 24C18.6274 24 24 18.6274 24 12C24 5.37258 18.6274 0 12 0C5.37258 0 0 5.37258 0 12C0 18.6274 5.37258 24 12 24Z" fill="white"/>
<path d="M6.60449 4.54102V7.10613C9.31702 7.10613 11.8821 8.16755 13.7986 10.1135C15.7151 12.03 16.7765 14.5951 16.806 17.3076H19.3711C19.3121 10.2609 13.6217 4.5705 6.60449 4.54102Z" fill="#32353D"/>
<path d="M8.31476 13.8584C7.37127 13.8584 6.5752 14.625 6.5752 15.598C6.5752 16.5414 7.34179 17.3375 8.31476 17.3375C9.25825 17.3375 10.0543 16.5709 10.0543 15.598C10.0543 14.625 9.28773 13.8584 8.31476 13.8584Z" fill="#32353D"/>
<path d="M6.60449 8.9043V11.4694C9.81825 11.4989 12.4129 14.0935 12.4423 17.3072H15.0074C14.978 12.6783 11.2335 8.93378 6.60449 8.9043Z" fill="#32353D"/>
</g>
<defs>
<clipPath id="clip0_5988_9157">
<rect width="24" height="24" fill="white"/>
</clipPath>
</defs>
</svg>
