<svg xmlns="http://www.w3.org/2000/svg" width="17" height="16" viewBox="0 0 17 16" fill="none">
<path d="M8.84632 4.89258L12.4243 8.47054C12.5493 8.59557 12.7189 8.66581 12.8957 8.66581C13.0725 8.66581 13.2421 8.59557 13.3671 8.47054C13.4921 8.34552 13.5624 8.17595 13.5624 7.99914C13.5624 7.82233 13.4921 7.65276 13.3671 7.52774L8.65305 2.81369C8.5907 2.75283 8.51703 2.70479 8.4362 2.67227C8.27318 2.60492 8.09011 2.60492 7.92708 2.67227C7.84625 2.70479 7.77258 2.75283 7.71024 2.81369L2.99619 7.52774C2.87117 7.65276 2.80093 7.82233 2.80093 7.99914C2.80093 8.17595 2.87117 8.34552 2.99619 8.47054C3.12121 8.59557 3.29078 8.66581 3.46759 8.66581C3.64441 8.66581 3.81398 8.59557 3.939 8.47054L7.51696 4.89258L7.51225 12.7132C7.51189 12.8012 7.52895 12.8884 7.56247 12.9698C7.59598 13.0512 7.64527 13.1251 7.7075 13.1873C7.76973 13.2496 7.84367 13.2988 7.92505 13.3324C8.00643 13.3659 8.09363 13.3829 8.18164 13.3826C8.26965 13.3829 8.35686 13.3659 8.43823 13.3324C8.51961 13.2988 8.59355 13.2496 8.65578 13.1873C8.71801 13.1251 8.7673 13.0512 8.80082 12.9698C8.83433 12.8884 8.8514 12.8012 8.85103 12.7132L8.84632 4.89258Z" fill="#F6F6F7"/>
</svg>
