<svg width="18" height="13" viewBox="0 0 18 13" fill="none" xmlns="http://www.w3.org/2000/svg">
  <path d="M16.0181 3.52243V2.46281C16.0181 1.71099 15.349 1.10549 14.5306 1.10549H8.66403L8.40414 0.716969C8.31567 0.580733 8.15532 0.5 7.97837 0.5H1.98743C1.16907 0.5 0.5 1.11054 0.5 1.85732L0.5 11.1427C0.5 11.8945 1.16907 12.5 1.98743 12.5H16.0125C16.8364 12.5 17.5 11.8895 17.5 11.1427V4.87974C17.5055 4.13297 16.8364 3.52243 16.0181 3.52243ZM14.5251 2.00869C14.8016 2.00869 15.0228 2.21052 15.0228 2.46281V3.52243H10.2842L9.62063 2.53345L9.27227 2.01374H14.5251V2.00869ZM16.5102 11.1427C16.5102 11.395 16.289 11.5968 16.0125 11.5968H1.98743C1.71095 11.5968 1.48978 11.395 1.48978 11.1427V1.85732C1.48978 1.60503 1.71095 1.4032 1.98743 1.4032H7.7019L7.96179 1.79172L8.91838 3.21968L9.58192 4.20865C9.67039 4.34489 9.83075 4.42562 10.0077 4.42562H16.0125C16.289 4.42562 16.5102 4.62745 16.5102 4.87974V11.1427Z" fill="white"/>
</svg>
