<svg width="20" height="20" viewBox="0 0 20 20" fill="none" xmlns="http://www.w3.org/2000/svg">
<g id="Atoms/ikon">
<g id="Vector">
<path d="M8.47258 5.81242C7.93258 5.26576 7.14245 4.99976 6.23103 4.99976C5.40321 4.99976 4.65283 5.2413 4.12516 5.73415C3.59338 6.23435 3.33366 6.80914 3.33366 7.494C3.33366 8.17886 3.54952 8.70718 3.98947 9.15785C4.42942 9.60851 5.09415 9.9595 6.1159 9.9595C6.31943 9.9595 6.54763 9.93443 6.73951 9.87512C6.83887 10.7654 6.58258 11.6533 6.19059 12.3797C5.8596 12.9937 4.97696 13.9201 3.94698 14.5621L3.98742 14.6294C5.72597 14.0167 6.84983 13.201 7.76263 12.0055C8.60278 10.9049 9.25928 9.56265 9.25928 8.10671C9.25928 7.15035 9.01121 6.36276 8.4719 5.81304L8.47258 5.81242Z" fill="#F7BB0F"/>
<path d="M15.8803 5.81242C15.3403 5.26576 14.5502 4.99976 13.6387 4.99976C12.8109 4.99976 12.0605 5.2413 11.5329 5.73415C11.0011 6.23435 10.7414 6.80914 10.7414 7.494C10.7414 8.17886 10.9572 8.70718 11.3972 9.15785C11.8371 9.60851 12.5019 9.9595 13.5236 9.9595C13.7271 9.9595 13.9553 9.93443 14.1472 9.87512C14.2466 10.7654 13.9903 11.6533 13.5983 12.3797C13.2673 12.9937 12.3847 13.9201 11.3547 14.5621L11.3951 14.6294C13.1337 14.0167 14.2575 13.201 15.1703 12.0055C16.0105 10.9049 16.667 9.56265 16.667 8.10671C16.667 7.15035 16.4189 6.36276 15.8796 5.81304L15.8803 5.81242Z" fill="#F7BB0F"/>
</g>
</g>
</svg>
