<svg width="39" height="39" viewBox="0 0 39 39" fill="none" xmlns="http://www.w3.org/2000/svg">
<path d="M18.6406 12.3926C18.6406 12.1126 18.7383 11.8717 18.9336 11.6699C19.1289 11.4681 19.3698 11.3672 19.6562 11.3672C19.9362 11.3672 20.1738 11.4681 20.3691 11.6699C20.571 11.8652 20.6719 12.1061 20.6719 12.3926C20.6719 12.6725 20.571 12.9134 20.3691 13.1152C20.1738 13.3105 19.9362 13.4082 19.6562 13.4082C19.3698 13.4082 19.1289 13.3105 18.9336 13.1152C18.7383 12.9134 18.6406 12.6725 18.6406 12.3926ZM17.3906 24.7266C18.0872 24.6615 18.5267 24.5443 18.709 24.375C18.8913 24.1992 18.9824 23.7305 18.9824 22.9688V18.3105C18.9824 17.8874 18.9531 17.5944 18.8945 17.4316C18.7969 17.1647 18.5918 17.0312 18.2793 17.0312C18.2077 17.0312 18.1361 17.0378 18.0645 17.0508C17.9993 17.0638 17.804 17.1159 17.4785 17.207V16.9043L17.8984 16.7676C19.0378 16.3965 19.832 16.1165 20.2812 15.9277C20.4635 15.8496 20.5807 15.8105 20.6328 15.8105C20.6458 15.8561 20.6523 15.9049 20.6523 15.957V22.9688C20.6523 23.7109 20.7402 24.1764 20.916 24.3652C21.0983 24.554 21.5052 24.6745 22.1367 24.7266V25H17.3906V24.7266Z" fill="white"/>
</svg>
