<svg width="63" height="36" viewBox="0 0 63 36" fill="none" xmlns="http://www.w3.org/2000/svg">
<g id="Layer_1" clip-path="url(#clip0_1727_31956)">
<g id="Group">
<path id="Vector" d="M6.95773 9.94711C4.85528 9.94711 3.55166 8.34015 3.55166 6.33407C3.55166 4.32537 4.85268 2.71842 6.95773 2.71842C9.06018 2.71842 10.3612 4.32537 10.3612 6.33407C10.3638 8.44189 8.96131 9.94711 6.95773 9.94711ZM6.95773 12.8584C10.7619 12.8584 13.6684 10.148 13.6684 6.4332C13.6684 2.61929 10.8634 0.00537109 6.95773 0.00537109C3.15095 0.00537109 0.24707 2.71581 0.24707 6.4332C0.249672 10.148 3.15355 12.8584 6.95773 12.8584Z" fill="#27AAE1"/>
<path id="Vector_2" d="M21.1807 5.62953H18.6776V2.9191H21.1807C22.081 2.9191 22.7836 3.41997 22.7836 4.22345C22.781 5.12606 22.081 5.62953 21.1807 5.62953ZM26.0856 12.6574L23.5824 8.03736C24.7845 7.63562 26.0856 6.4304 26.0856 4.32258C26.0856 2.01388 24.4827 0.206055 21.7792 0.206055H15.4692V12.7565H18.675V8.54084H20.2778L22.3803 12.7565H26.0856V12.6574Z" fill="#27AAE1"/>
<path id="Vector_3" d="M32.2965 0.106934H29.0908V12.6574H32.2965V0.106934Z" fill="#27AAE1"/>
<path id="Vector_4" d="M41.1071 12.8582C43.5113 12.8582 45.312 11.8539 46.613 10.4478V5.53042H40.6049L41.2059 8.3426H43.4099V9.34694C43.0092 9.74868 42.0074 10.0487 41.1071 10.0487C39.1035 10.0487 37.6021 8.44173 37.6021 6.43564C37.6021 4.3252 39.0046 2.81999 41.1071 2.81999C42.3092 2.81999 43.311 3.62347 43.7091 4.42694L46.4126 3.02086C45.5123 1.51564 43.9095 0.0078125 41.1045 0.0078125C37.3992 0.0078125 34.2949 2.51999 34.2949 6.43564C34.399 10.3487 37.4018 12.8582 41.1071 12.8582Z" fill="#27AAE1"/>
<path id="Vector_5" d="M55.3269 9.94711C53.2244 9.94711 51.9208 8.34015 51.9208 6.33407C51.9208 4.32537 53.2218 2.71842 55.3269 2.71842C57.4293 2.71842 58.7303 4.32537 58.7303 6.33407C58.7329 8.44189 57.4293 9.94711 55.3269 9.94711ZM55.3269 12.8584C59.1311 12.8584 62.0375 10.148 62.0375 6.4332C62.0375 2.61929 59.2325 0.00537109 55.3269 0.00537109C51.5201 0.00537109 48.6162 2.71581 48.6162 6.4332C48.6188 10.148 51.5227 12.8584 55.3269 12.8584Z" fill="#27AAE1"/>
</g>
<path id="Vector_6" d="M62.3502 16.0488H0.15625V35.7862H62.3502V16.0488Z" fill="#27AAE1"/>
<path id="Vector_7" d="M13.1456 29.1391C13.1456 29.7965 13.0364 30.3782 12.7814 30.8895C12.5264 31.4008 12.1985 31.8365 11.7275 32.1652C11.2904 32.5304 10.7466 32.786 10.1273 32.966C9.50799 33.1486 8.85487 33.2582 8.08987 33.2582C7.03605 33.2582 6.0889 33.1121 5.32651 32.8565C4.52768 32.5643 3.79911 32.0921 3.146 31.4347L4.56411 30.0495C5.07411 30.5608 5.61794 30.9234 6.20079 31.106C6.78365 31.2886 7.43676 31.3982 8.1289 31.3982C9.03962 31.3982 9.76559 31.2156 10.2756 30.8504C10.7856 30.4852 11.038 29.9399 11.038 29.2826C11.038 28.6252 10.8558 28.153 10.4916 27.8243C10.3094 27.6417 10.1273 27.5321 9.9087 27.4591C9.69013 27.386 9.3987 27.313 8.96156 27.2399L7.32487 27.0208C6.19819 26.8747 5.28748 26.473 4.67079 25.8912C3.97865 25.2339 3.65339 24.3599 3.65339 23.2304C3.65339 22.6095 3.76268 22.0643 3.98125 21.553C4.19982 21.0417 4.49125 20.6034 4.88936 20.2408C5.29008 19.8756 5.76105 19.586 6.3439 19.4034C6.92676 19.1113 7.57987 19.0017 8.30845 19.0017C9.25299 19.0017 10.0544 19.1113 10.744 19.3669C11.4361 19.6226 12.0528 20.0243 12.6721 20.5695L11.2904 21.9182C10.8532 21.5165 10.3823 21.2243 9.87227 21.0808C9.36227 20.9347 8.81845 20.8617 8.23559 20.8617C7.40033 20.8617 6.78105 21.0808 6.3439 21.4826C5.90676 21.8843 5.69079 22.4295 5.69079 23.0504C5.69079 23.5982 5.87294 24.0339 6.23722 24.3626C6.60151 24.6912 7.14533 24.9104 7.80105 25.0199L9.4013 25.2391C10.0544 25.3486 10.5644 25.4947 10.9651 25.6408C11.3658 25.7869 11.6911 26.006 12.019 26.2617C12.7475 26.953 13.1456 27.8999 13.1456 29.1391ZM24.6389 21.6652C24.4203 21.1539 24.1289 20.6817 23.7307 20.3165C23.33 19.9513 22.8591 19.6617 22.3126 19.4426C21.7662 19.2234 21.1495 19.1139 20.4574 19.1139H15.1492V21.0104H20.3143C21.0793 21.0104 21.6595 21.2295 22.0967 21.6312C22.5338 22.033 22.7862 22.6147 22.7862 23.3817C22.7862 24.146 22.5676 24.6939 22.0967 25.0956C21.6595 25.4973 21.0428 25.6799 20.3143 25.6799H15.1492V33.0808H17.2595V27.613H20.4235C21.1131 27.613 21.7324 27.5034 22.2788 27.2843C22.8252 27.0652 23.2962 26.773 23.6969 26.4104C24.0976 26.0452 24.3865 25.6069 24.605 25.0617C24.8236 24.5504 24.9329 23.9686 24.9329 23.3478C24.9667 22.7582 24.8574 22.213 24.6389 21.6652ZM34.1675 26.113C34.1675 26.8069 34.1675 27.3886 34.1311 27.8634C34.1311 28.3017 34.0947 28.7008 34.0218 29.0295C33.949 29.3582 33.8761 29.6139 33.7668 29.8304C33.6575 30.013 33.5118 30.2321 33.3297 30.4147C33.0747 30.6704 32.7832 30.8895 32.4216 31.0356C32.0573 31.1817 31.6956 31.2547 31.2584 31.2547C30.8577 31.2547 30.4596 31.1817 30.0953 31.0356C29.7311 30.8895 29.4422 30.6704 29.1872 30.4147C29.0051 30.2321 28.8594 30.0495 28.7501 29.8304C28.6408 29.6112 28.5679 29.3556 28.4951 29.0295C28.4587 28.7373 28.4222 28.3356 28.3858 27.8634C28.3494 27.3886 28.3494 26.8069 28.3494 26.113C28.3494 25.4191 28.3494 24.8373 28.3858 24.3626C28.3858 23.9243 28.4222 23.5252 28.4951 23.1965C28.5679 22.8678 28.6408 22.6121 28.7501 22.3956C28.8594 22.213 29.0051 21.9939 29.1872 21.8112C29.4422 21.5556 29.7337 21.3365 30.0953 21.1904C30.4596 21.0443 30.8239 20.9712 31.2584 20.9712C31.6592 20.9712 32.0599 21.0443 32.4216 21.1904C32.7858 21.3365 33.0773 21.5556 33.3297 21.8112C33.5118 21.9939 33.6575 22.1765 33.7668 22.3956C33.8761 22.6147 33.949 22.8704 34.0218 23.1965C34.0582 23.4886 34.0947 23.8904 34.1311 24.3626C34.1675 24.8373 34.1675 25.4191 34.1675 26.113ZM36.3116 26.113C36.3116 25.4556 36.2752 24.8373 36.2752 24.2895C36.2388 23.7417 36.2023 23.233 36.1295 22.7947C36.0566 22.3565 35.9109 21.9182 35.7288 21.5556C35.5466 21.1539 35.2552 20.7913 34.9299 20.4626C34.4564 19.9878 33.9125 19.6252 33.2932 19.3695C32.674 19.1139 32.0208 18.9678 31.2558 18.9678C30.4934 18.9678 29.8377 19.1139 29.2184 19.3695C28.5992 19.6252 28.0553 19.9904 27.5818 20.4626C27.2175 20.8278 26.9625 21.1904 26.7829 21.5556C26.6008 21.9208 26.4551 22.3565 26.3822 22.7947C26.3094 23.2695 26.2365 23.7417 26.2365 24.2895C26.2001 24.8373 26.2001 25.4556 26.2001 26.113C26.2001 26.8069 26.2365 27.3886 26.2365 27.9365C26.2365 28.4843 26.3094 28.993 26.3822 29.4313C26.4551 29.8695 26.6008 30.3078 26.7829 30.6704C26.9651 31.0721 27.2565 31.4347 27.5818 31.7634C28.0553 32.2382 28.5992 32.6008 29.2184 32.8565C29.8377 33.1121 30.5273 33.2582 31.2558 33.2582C31.9844 33.2582 32.674 33.1121 33.2932 32.8565C33.9125 32.6008 34.4564 32.2356 34.9299 31.7634C35.2942 31.3982 35.5492 31.0356 35.7288 30.6704C35.9109 30.3052 36.0566 29.8695 36.1295 29.4313C36.2023 28.9565 36.2752 28.4843 36.2752 27.9365C36.3116 27.3886 36.3116 26.7704 36.3116 26.113ZM45.6217 26.9165C46.4205 26.6973 47.0763 26.2591 47.5863 25.6408C48.1327 25.0199 48.3877 24.2191 48.3877 23.1991C48.3877 22.6147 48.2784 22.0695 48.0963 21.5582C47.8777 21.0469 47.5863 20.6112 47.2246 20.246C46.8603 19.8808 46.3893 19.5886 45.8793 19.4086C45.3329 19.1895 44.7526 19.1165 44.0969 19.1165H38.6795V21.013H43.9512C44.6433 21.013 45.2236 21.1956 45.6607 21.5973C46.0979 21.9626 46.3165 22.5078 46.3165 23.2382C46.3165 23.9321 46.0979 24.4773 45.6607 24.8426C45.2236 25.2078 44.6433 25.3904 43.9512 25.3904H38.6795V33.0834H40.7897V27.2139H43.4438L46.3893 33.1199H48.8613L45.6217 26.9165ZM59.2954 21.0078V19.1112H49.4753V21.0078H53.3316V33.0756H55.4418V21.0078H59.2954Z" fill="white"/>
</g>
<defs>
<clipPath id="clip0_1727_31956">
<rect width="62.449" height="36" fill="white"/>
</clipPath>
</defs>
</svg>
