<svg width="24" height="24" viewBox="0 0 24 24" fill="none" xmlns="http://www.w3.org/2000/svg">
<g clip-path="url(#clip0_531_1010)">
<path d="M19.0711 4.92849C22.9763 8.8337 22.9763 15.1654 19.0711 19.0706C15.1659 22.9758 8.83414 22.9758 4.92893 19.0706C1.02369 15.1654 1.02372 8.8337 4.92893 4.92849C8.83418 1.02324 15.1658 1.02324 19.0711 4.92849ZM18.0104 5.98915C14.691 2.66969 9.30905 2.66969 5.98959 5.98915C2.67015 9.30859 2.67014 14.6905 5.98959 18.01C9.30903 21.3294 14.691 21.3294 18.0104 18.01C21.3299 14.6905 21.3298 9.30859 18.0104 5.98915ZM15.5355 8.46402C15.8284 8.75691 15.8284 9.23179 15.5355 9.52468L13.0607 11.9996L15.5355 14.4744C15.8284 14.7673 15.8284 15.2422 15.5355 15.5351C15.2427 15.828 14.7678 15.828 14.4749 15.5351L12 13.0602L9.52513 15.5351C9.23224 15.828 8.75735 15.828 8.46447 15.5351C8.17158 15.2422 8.17158 14.7673 8.46447 14.4744L10.9393 11.9996L8.46447 9.52468C8.17158 9.23179 8.17158 8.75691 8.46447 8.46402C8.75735 8.17114 9.23224 8.17113 9.52513 8.46402L12 10.9389L14.4749 8.46402C14.7678 8.17113 15.2427 8.17114 15.5355 8.46402Z" fill="#fff"/>
</g>
<defs>
<clipPath id="clip0_531_1010">
<rect width="24" height="24" fill="white"/>
</clipPath>
</defs>
</svg>
