<svg width="14" height="14" viewBox="0 0 14 14" fill="none" xmlns="http://www.w3.org/2000/svg">
<path d="M12.8333 6.16668H7.83325V1.16668C7.83325 0.945663 7.74545 0.733702 7.58917 0.577421C7.43289 0.421141 7.22093 0.333344 6.99992 0.333344C6.7789 0.333344 6.56694 0.421141 6.41066 0.577421C6.25438 0.733702 6.16658 0.945663 6.16658 1.16668V6.16668H1.16659C0.945572 6.16668 0.73361 6.25447 0.57733 6.41075C0.421049 6.56703 0.333252 6.779 0.333252 7.00001C0.333252 7.22102 0.421049 7.43299 0.57733 7.58927C0.73361 7.74555 0.945572 7.83334 1.16659 7.83334H6.16658V12.8333C6.16658 13.0544 6.25438 13.2663 6.41066 13.4226C6.56694 13.5789 6.7789 13.6667 6.99992 13.6667C7.22093 13.6667 7.43289 13.5789 7.58917 13.4226C7.74545 13.2663 7.83325 13.0544 7.83325 12.8333V7.83334H12.8333C13.0543 7.83334 13.2662 7.74555 13.4225 7.58927C13.5788 7.43299 13.6666 7.22102 13.6666 7.00001C13.6666 6.779 13.5788 6.56703 13.4225 6.41075C13.2662 6.25447 13.0543 6.16668 12.8333 6.16668Z" fill="#0519D2"/>
</svg>
