<svg width="36" height="37" viewBox="0 0 36 37" fill="none" xmlns="http://www.w3.org/2000/svg">
<path d="M15.3953 30.7906C18.8111 30.7899 22.1285 29.6464 24.8192 27.5422L33.2789 36.0019L36 33.2808L27.5403 24.8211C29.6456 22.1301 30.7898 18.812 30.7906 15.3953C30.7906 6.90672 23.8839 0 15.3953 0C6.90672 0 0 6.90672 0 15.3953C0 23.8839 6.90672 30.7906 15.3953 30.7906ZM15.3953 3.84883C21.7632 3.84883 26.9418 9.02742 26.9418 15.3953C26.9418 21.7632 21.7632 26.9418 15.3953 26.9418C9.02742 26.9418 3.84883 21.7632 3.84883 15.3953C3.84883 9.02742 9.02742 3.84883 15.3953 3.84883Z" fill="white"/>
</svg>
