<svg width="40" height="40" viewBox="0 0 40 40" fill="none" xmlns="http://www.w3.org/2000/svg">
<g id="videa">
<path id="XMLID_1_" d="M20 40C31.0457 40 40 31.0457 40 20C40 8.95431 31.0457 0 20 0C8.95431 0 0 8.95431 0 20C0 31.0457 8.95431 40 20 40Z" fill="#DC102F"/>
<g id="Group">
<path id="Vector" d="M22.7026 10.2698C22.9974 16.2157 23.1448 24.0782 18.3783 25.6015L17.3463 25.8963L17.1989 24.6678C17.0515 21.3755 17.6412 18.427 18.2308 15.4295C18.5257 13.6605 18.9679 11.8423 19.1154 10.0732H12.7271C11.6952 14.3976 10.0244 24.373 12.4323 28.2551C13.022 29.1396 13.7591 29.5818 14.6436 29.7293C15.5281 29.8767 16.4127 29.8767 17.3463 29.8767C20.6387 29.8767 23.2923 28.8447 25.1104 26.5843C28.108 23.2919 29.2873 17.346 28.6977 10.0732H22.7026V10.2698Z" fill="white"/>
</g>
</g>
</svg>
