<svg width="32" height="32" viewBox="0 0 32 32" fill="none" xmlns="http://www.w3.org/2000/svg">
<path d="M6.75086 21.9968H25.2508C25.6651 21.9968 26.0008 22.3326 26.0008 22.7468C26.0008 23.1265 25.7187 23.4403 25.3526 23.4899L25.2508 23.4968H6.75086C6.33664 23.4968 6.00086 23.161 6.00086 22.7468C6.00086 22.3671 6.28301 22.0533 6.64909 22.0036L6.75086 21.9968ZM6.75086 15.4998H25.2508C25.6651 15.4998 26.0008 15.8356 26.0008 16.2498C26.0008 16.6295 25.7187 16.9433 25.3526 16.993L25.2508 16.9998H6.75086C6.33664 16.9998 6.00086 16.664 6.00086 16.2498C6.00086 15.8701 6.28301 15.5563 6.64909 15.5066L6.75086 15.4998ZM6.75 9L25.25 9C25.6642 9 26 9.33579 26 9.75C26 10.1297 25.7178 10.4435 25.3518 10.4931L25.25 10.5L6.75 10.5C6.33578 10.5 6 10.1642 6 9.75C6 9.3703 6.28215 9.05651 6.64823 9.00685L6.75 9Z" fill="white"/>
</svg>
