<svg width="17" height="22" viewBox="0 0 17 22" fill="none" xmlns="http://www.w3.org/2000/svg">
<g clip-path="url(#clip0_341_6904)">
<path d="M8.49495 4.80007C8.84905 4.79875 9.1999 4.86738 9.52742 5.00197C9.85494 5.13657 10.1527 5.33445 10.4035 5.58437C10.6544 5.83429 10.8534 6.13137 10.9892 6.45839C11.125 6.78541 11.1949 7.13591 11.1949 7.49001C11.1963 7.84542 11.1274 8.19765 10.9923 8.52639C10.8572 8.85512 10.6585 9.15394 10.4077 9.40572C10.1568 9.6575 9.85874 9.8573 9.53051 9.99361C9.20227 10.1299 8.85036 10.2001 8.49495 10.2001V10.2001C8.13954 10.2001 7.7876 10.1299 7.45937 9.99361C7.13114 9.8573 6.83305 9.6575 6.5822 9.40572C6.33135 9.15394 6.13268 8.85512 5.99758 8.52639C5.86248 8.19765 5.79362 7.84542 5.79494 7.49001C5.79494 7.13591 5.86485 6.78541 6.00066 6.45839C6.13647 6.13137 6.3355 5.83429 6.58635 5.58437C6.8372 5.33445 7.13493 5.13657 7.46245 5.00197C7.78997 4.86738 8.14086 4.79875 8.49495 4.80007V4.80007Z" stroke="#143C6D" stroke-miterlimit="10"/>
<path d="M8.50423 0.500013C10.3607 0.500013 12.1412 1.23755 13.454 2.55031C14.7668 3.86306 15.5042 5.6435 15.5042 7.50001C15.5764 9.04835 15.1525 10.5794 14.2942 11.8701C13.3442 13.3901 8.47423 20.47 8.47423 20.47C8.47423 20.47 3.60425 13.3901 2.64425 11.8701C1.79333 10.5764 1.37329 9.04679 1.44424 7.50001C1.4442 6.57569 1.62725 5.6606 1.98278 4.80739C2.33831 3.95417 2.8593 3.17974 3.51568 2.52894C4.17206 1.87814 4.95081 1.36387 5.80703 1.01564C6.66325 0.667404 7.57994 0.49209 8.50423 0.500013V0.500013Z" stroke="#143C6D" stroke-miterlimit="10"/>
</g>
<defs>
<clipPath id="clip0_341_6904">
<rect width="15.05" height="21.38" fill="white" transform="translate(0.974609)"/>
</clipPath>
</defs>
</svg>
