<svg width="24" height="24" viewBox="0 0 24 24" fill="none" xmlns="http://www.w3.org/2000/svg">
<g id="Icon set">
<path id="Vector" d="M12.6543 15.8708L18.3043 10.2108C18.398 10.1178 18.4724 10.0072 18.5232 9.88537C18.574 9.76351 18.6001 9.6328 18.6001 9.50079C18.6001 9.36878 18.574 9.23807 18.5232 9.11622C18.4724 8.99436 18.398 8.88376 18.3043 8.79079C18.1169 8.60454 17.8635 8.5 17.5993 8.5C17.3351 8.5 17.0817 8.60454 16.8943 8.79079L11.8943 13.7408L6.9443 8.79079C6.75694 8.60454 6.50349 8.5 6.2393 8.5C5.97511 8.5 5.72166 8.60454 5.5343 8.79079C5.43981 8.88341 5.36464 8.99385 5.31314 9.11573C5.26165 9.2376 5.23485 9.36849 5.2343 9.50079C5.23485 9.6331 5.26165 9.76398 5.31314 9.88586C5.36464 10.0077 5.43981 10.1182 5.5343 10.2108L11.1843 15.8708C11.2779 15.9723 11.3916 16.0533 11.5181 16.1087C11.6446 16.1641 11.7812 16.1927 11.9193 16.1927C12.0574 16.1927 12.194 16.1641 12.3205 16.1087C12.447 16.0533 12.5607 15.9723 12.6543 15.8708Z" fill="white"/>
</g>
</svg>
