<svg width="20" height="20" viewBox="0 0 20 20" fill="none" xmlns="http://www.w3.org/2000/svg">
<path d="M18.1817 16.8216L18.1817 16.8216L18.1799 16.8198L15.1675 13.8317C16.3402 12.3244 16.9055 10.4304 16.7488 8.52433C16.5889 6.58081 15.6905 4.7724 14.2382 3.47095C12.7859 2.16949 10.8902 1.47393 8.94085 1.52727C6.99149 1.58061 5.13665 2.37881 3.75773 3.75773C2.37881 5.13665 1.58061 6.99149 1.52727 8.94085C1.47393 10.8902 2.16949 12.7859 3.47094 14.2382C4.7724 15.6905 6.58081 16.5889 8.52433 16.7488C10.4306 16.9056 12.3247 16.3401 13.8321 15.1672L16.8197 18.1549C16.8198 18.1549 16.8199 18.155 16.82 18.1551C16.909 18.2448 17.0149 18.316 17.1316 18.3646C17.2484 18.4133 17.3737 18.4383 17.5002 18.4383C17.6267 18.4383 17.7519 18.4133 17.8687 18.3646C17.9855 18.316 18.0915 18.2447 18.1806 18.1549L18.1817 18.1537C18.3544 17.975 18.451 17.7362 18.451 17.4877C18.451 17.2391 18.3544 17.0003 18.1817 16.8216ZM9.16683 14.8752C8.03783 14.8752 6.93418 14.5404 5.99545 13.9131C5.05672 13.2859 4.32507 12.3944 3.89302 11.3513C3.46097 10.3083 3.34792 9.1605 3.56818 8.05319C3.78844 6.94588 4.33211 5.92875 5.13043 5.13043C5.92875 4.33211 6.94588 3.78844 8.05319 3.56818C9.1605 3.34792 10.3083 3.46097 11.3513 3.89302C12.3944 4.32507 13.2859 5.05672 13.9131 5.99545C14.5404 6.93418 14.8752 8.03783 14.8752 9.16683C14.8752 10.6808 14.2738 12.1327 13.2032 13.2032C12.1327 14.2738 10.6808 14.8752 9.16683 14.8752Z" fill="white" stroke="white" stroke-width="0.25"/>
</svg>
