<svg width="24" height="24" viewBox="0 0 24 24" fill="none" xmlns="http://www.w3.org/2000/svg">
<g clip-path="url(#clip0_5988_9153)">
<path d="M12 24C18.6274 24 24 18.6274 24 12C24 5.37258 18.6274 0 12 0C5.37258 0 0 5.37258 0 12C0 18.6274 5.37258 24 12 24Z" fill="white"/>
<path d="M5.03407 5L10.4393 12.3372L5 18.3027H6.22427L10.9865 13.0797L14.8341 18.3027H19L13.2905 10.5529L18.3534 5H17.1292L12.7436 9.81013L9.2 5H5.03407ZM6.8344 5.91542H8.74821L17.1994 17.3873H15.2856L6.8344 5.91542Z" fill="#131418"/>
</g>
<defs>
<clipPath id="clip0_5988_9153">
<rect width="24" height="24" fill="white"/>
</clipPath>
</defs>
</svg>
