<svg width="116" height="24" viewBox="0 0 116 24" fill="none" xmlns="http://www.w3.org/2000/svg">
<g id="Origo-Reszponziv-Top-A-Template">
<g id="origo-reszponziv-top-A-1KHM-xl">
<g id="Origo-Fejlec-XL">
<g id="origo">
<g id="Group-10">
<path id="Fill-2" fill-rule="evenodd" clip-rule="evenodd" d="M12.9528 18.0966C16.6905 18.0966 19.307 15.3558 19.307 11.5185C19.307 7.86331 16.8766 4.94042 12.9528 4.94042C9.02901 4.94042 6.59856 7.86331 6.59856 11.5185C6.59856 15.1737 9.02901 18.0966 12.9528 18.0966ZM12.9528 23.3964C5.8519 23.3964 0.432617 18.4628 0.432617 11.7027C0.432617 4.94042 5.8519 0.00683594 12.9528 0.00683594C20.2398 0.00683594 25.473 4.75628 25.473 11.7027C25.473 18.4628 20.0537 23.3964 12.9528 23.3964Z" fill="white"/>
<path id="Fill-4" fill-rule="evenodd" clip-rule="evenodd" d="M39.4872 10.2404H34.8167V5.30679H39.4872C41.1688 5.30679 42.476 6.22112 42.476 7.68151C42.476 9.32604 41.1688 10.2404 39.4872 10.2404ZM48.642 23.0304L43.9715 14.6237C46.2137 13.8956 48.642 11.7008 48.642 7.86353C48.642 3.66226 45.6531 0.371094 40.6083 0.371094H28.8369V23.2146H34.8167V15.5401H37.8056L41.7293 23.2146H48.642V23.0304Z" fill="white"/>
<path id="Fill-6" fill-rule="evenodd" clip-rule="evenodd" d="M53.3057 23.0298H59.2855V0.188477H53.3057V23.0298Z" fill="white"/>
<path id="Fill-8" fill-rule="evenodd" clip-rule="evenodd" d="M86.9501 19.0107V10.0558L75.7327 10.0533V15.1735H80.9703V17.0022C80.2215 17.7302 78.3537 18.2805 76.6721 18.2805C72.9345 18.2805 70.1318 15.3555 70.1318 11.7024C70.1318 7.86307 72.7483 5.12219 76.6721 5.12219C78.9143 5.12219 80.782 6.5847 81.5309 8.04721L86.5757 5.48835C84.8941 2.74747 81.9031 0.0065918 76.6721 0.0065918C69.7574 0.0065918 63.9658 4.57402 63.9658 11.7024C64.1519 18.8287 69.7574 23.3961 76.6721 23.3961C81.1564 23.3961 84.5197 21.5696 86.9501 19.0107Z" fill="white"/>
<path id="Fill-9" fill-rule="evenodd" clip-rule="evenodd" d="M103.206 18.0966C99.2819 18.0966 96.8515 15.1737 96.8515 11.5185C96.8515 7.86331 99.2819 4.94042 103.206 4.94042C107.13 4.94042 109.56 7.86331 109.56 11.5185C109.56 15.3558 107.13 18.0966 103.206 18.0966ZM103.206 23.3964C110.307 23.3964 115.726 18.4628 115.726 11.7027C115.726 4.75628 110.493 0.00683594 103.206 0.00683594C96.1048 0.00683594 90.6855 4.94042 90.6855 11.7027C90.6855 18.4628 96.1048 23.3964 103.206 23.3964Z" fill="white"/>
</g>
</g>
</g>
</g>
</g>
</svg>
