<svg width="82" height="57" viewBox="0 0 82 57" fill="none" xmlns="http://www.w3.org/2000/svg">
<path d="M46.9768 17.0963C46.9768 6.10581 55.2555 0 63.7819 0C72.8039 0 81.8052 6.60256 81.8052 24.4233C81.8052 36.1381 77.9032 54.2279 54.0374 56.8979L53.3148 52.7377C66.2181 50.5437 70.6155 41.0228 70.6155 31.9779C58.4142 37.1316 46.9768 30.0323 46.9768 17.0963ZM0.194839 17.0963C0.194839 6.10581 8.47355 0 17 0C26.0219 0 35.0232 6.60256 35.0232 24.4233C35.0232 36.1381 31.1213 54.2279 7.25548 56.8979L6.5329 52.7377C19.4361 50.5437 23.8335 41.0228 23.8335 31.9779C11.6529 37.1316 0.194839 30.0323 0.194839 17.0963Z" fill="black" fill-opacity="0.4"/>
</svg>
