<svg width="50" height="50" viewBox="0 0 50 50" fill="none" xmlns="http://www.w3.org/2000/svg">
<circle cx="25" cy="25" r="25" fill="white" fill-opacity="0.7"/>
<path d="M18.3333 34.7554C18.1123 34.7554 17.9004 34.6678 17.7441 34.5119C17.5878 34.3559 17.5 34.1444 17.5 33.9238V15.6278C17.5 15.4833 17.5378 15.3413 17.6096 15.2158C17.6813 15.0903 17.7846 14.9856 17.9093 14.912C18.034 14.8385 18.1757 14.7987 18.3205 14.7964C18.4652 14.7942 18.6081 14.8297 18.735 14.8993L35.4017 24.0473C35.5323 24.1191 35.6413 24.2246 35.7172 24.3527C35.793 24.4809 35.8331 24.627 35.8331 24.7758C35.8331 24.9247 35.793 25.0708 35.7172 25.1989C35.6413 25.3271 35.5323 25.4325 35.4017 25.5043L18.735 34.6523C18.612 34.7199 18.4738 34.7554 18.3333 34.7554Z" fill="#E30613"/>
</svg>
