<svg width="16" height="16" viewBox="0 0 16 16" fill="none" xmlns="http://www.w3.org/2000/svg">
<path d="M6.62503 4.73172C6.13903 4.23972 5.42791 4.00033 4.60763 4.00033C3.86259 4.00033 3.18725 4.21771 2.71235 4.66128C2.23375 5.11145 2 5.62877 2 6.24514C2 6.86151 2.19428 7.337 2.59023 7.7426C2.98619 8.1482 3.58444 8.46409 4.50402 8.46409C4.68719 8.46409 4.89257 8.44152 5.06526 8.38814C5.15469 9.18943 4.92403 9.98851 4.57124 10.6423C4.27335 11.1948 3.47897 12.0286 2.55199 12.6065L2.58838 12.667C4.15308 12.1156 5.16456 11.3814 5.98607 10.3055C6.74221 9.31491 7.33306 8.10692 7.33306 6.79657C7.33306 5.93585 7.1098 5.22702 6.62441 4.73227L6.62503 4.73172Z" fill="#F6F6F7"/>
<path d="M13.292 4.73172C12.806 4.23972 12.0949 4.00033 11.2746 4.00033C10.5295 4.00033 9.85419 4.21771 9.37929 4.66128C8.90069 5.11145 8.66694 5.62877 8.66694 6.24514C8.66694 6.86151 8.86122 7.337 9.25717 7.7426C9.65313 8.1482 10.2514 8.46409 11.171 8.46409C11.3541 8.46409 11.5595 8.44152 11.7322 8.38814C11.8216 9.18943 11.591 9.98851 11.2382 10.6423C10.9403 11.1948 10.1459 12.0286 9.21893 12.6065L9.25532 12.667C10.82 12.1156 11.8315 11.3814 12.653 10.3055C13.4092 9.31491 14 8.10692 14 6.79658C14 5.93585 13.7767 5.22702 13.2914 4.73227L13.292 4.73172Z" fill="#F6F6F7"/>
</svg>
