<svg width="36" height="36" viewBox="0 0 36 36" fill="none" xmlns="http://www.w3.org/2000/svg">
<circle cx="18" cy="18" r="18" fill="#2CAAE1"/>
<path d="M26 12.6504C25.3634 12.9367 24.688 13.1244 23.9964 13.2072C24.7238 12.765 25.2677 12.0695 25.5265 11.2505C24.8424 11.6641 24.0935 11.9557 23.3122 12.1125C22.786 11.5463 22.0905 11.1716 21.3333 11.0462C20.5761 10.9209 19.7992 11.052 19.1228 11.4192C18.4464 11.7864 17.908 12.3692 17.591 13.0777C17.2739 13.7862 17.1958 14.5809 17.3687 15.3389C15.9818 15.267 14.6254 14.9003 13.3874 14.2625C12.1494 13.6247 11.0574 12.7301 10.1824 11.6367C9.73748 12.4153 9.60146 13.3365 9.80196 14.2132C10.0025 15.0899 10.5245 15.8563 11.262 16.3569C10.7072 16.3404 10.1645 16.1893 9.67918 15.9164C9.67918 15.9311 9.67918 15.9466 9.67918 15.9612C9.6798 16.7789 9.95955 17.5711 10.4709 18.2032C10.9823 18.8354 11.6937 19.2685 12.4843 19.429C11.9707 19.5704 11.432 19.5913 10.9092 19.4902C11.1319 20.193 11.5658 20.8075 12.15 21.2479C12.7342 21.6882 13.4396 21.9323 14.1674 21.946C12.9311 22.9303 11.404 23.4638 9.83219 23.4605C9.55407 23.4604 9.27619 23.4437 9 23.4105C10.5947 24.4501 12.4509 25.002 14.3468 25C20.762 25 24.2702 19.6109 24.2702 14.9363C24.2702 14.7829 24.2702 14.6303 24.2608 14.4786C24.943 13.9788 25.532 13.3597 26 12.6504Z" fill="white"/>
</svg>
