<svg width="16" height="16" viewBox="0 0 16 16" fill="none" xmlns="http://www.w3.org/2000/svg">
<g id="Icon set">
<path id="Vector" d="M7.99935 10.0001C8.70659 10.0001 9.38487 9.71913 9.88497 9.21903C10.3851 8.71894 10.666 8.04066 10.666 7.33342V3.33341C10.666 2.62617 10.3851 1.94789 9.88497 1.4478C9.38487 0.9477 8.70659 0.666748 7.99935 0.666748C7.2921 0.666748 6.61383 0.9477 6.11373 1.4478C5.61363 1.94789 5.33268 2.62617 5.33268 3.33341V7.33342C5.33268 8.04066 5.61363 8.71894 6.11373 9.21903C6.61383 9.71913 7.2921 10.0001 7.99935 10.0001ZM6.66602 3.33341C6.66602 2.97979 6.80649 2.64065 7.05654 2.39061C7.30659 2.14056 7.64573 2.00008 7.99935 2.00008C8.35297 2.00008 8.69211 2.14056 8.94216 2.39061C9.19221 2.64065 9.33268 2.97979 9.33268 3.33341V7.33342C9.33268 7.68704 9.19221 8.02618 8.94216 8.27622C8.69211 8.52627 8.35297 8.66675 7.99935 8.66675C7.64573 8.66675 7.30659 8.52627 7.05654 8.27622C6.80649 8.02618 6.66602 7.68704 6.66602 7.33342V3.33341ZM13.3327 7.33342C13.3327 7.1566 13.2624 6.98703 13.1374 6.86201C13.0124 6.73699 12.8428 6.66675 12.666 6.66675C12.4892 6.66675 12.3196 6.73699 12.1946 6.86201C12.0696 6.98703 11.9993 7.1566 11.9993 7.33342C11.9993 8.39428 11.5779 9.4117 10.8278 10.1618C10.0776 10.912 9.06021 11.3334 7.99935 11.3334C6.93848 11.3334 5.92107 10.912 5.17092 10.1618C4.42078 9.4117 3.99935 8.39428 3.99935 7.33342C3.99935 7.1566 3.92911 6.98703 3.80409 6.86201C3.67906 6.73699 3.50949 6.66675 3.33268 6.66675C3.15587 6.66675 2.9863 6.73699 2.86128 6.86201C2.73625 6.98703 2.66602 7.1566 2.66602 7.33342C2.66719 8.63161 3.14183 9.8848 4.00095 10.8581C4.86006 11.8313 6.04467 12.4578 7.33268 12.6201V14.0001H5.99935C5.82254 14.0001 5.65297 14.0703 5.52794 14.1953C5.40292 14.3204 5.33268 14.4899 5.33268 14.6667C5.33268 14.8436 5.40292 15.0131 5.52794 15.1382C5.65297 15.2632 5.82254 15.3334 5.99935 15.3334H9.99935C10.1762 15.3334 10.3457 15.2632 10.4708 15.1382C10.5958 15.0131 10.666 14.8436 10.666 14.6667C10.666 14.4899 10.5958 14.3204 10.4708 14.1953C10.3457 14.0703 10.1762 14.0001 9.99935 14.0001H8.66602V12.6201C9.95403 12.4578 11.1386 11.8313 11.9978 10.8581C12.8569 9.8848 13.3315 8.63161 13.3327 7.33342Z" fill="#474C5A"/>
</g>
</svg>
