<svg xmlns="http://www.w3.org/2000/svg" width="24" height="24" viewBox="0 0 24 24" fill="none">
  <path d="M15.8708 11.2895L10.2108 5.63955C10.1178 5.54582 10.0072 5.47143 9.88537 5.42066C9.76351 5.36989 9.6328 5.34375 9.50079 5.34375C9.36878 5.34375 9.23807 5.36989 9.11622 5.42066C8.99436 5.47143 8.88376 5.54582 8.79079 5.63955C8.60454 5.82691 8.5 6.08036 8.5 6.34455C8.5 6.60873 8.60454 6.86219 8.79079 7.04955L13.7408 12.0495L8.79079 16.9995C8.60454 17.1869 8.5 17.4404 8.5 17.7045C8.5 17.9687 8.60454 18.2222 8.79079 18.4095C8.88341 18.504 8.99385 18.5792 9.11573 18.6307C9.2376 18.6822 9.36849 18.709 9.50079 18.7095C9.6331 18.709 9.76398 18.6822 9.88586 18.6307C10.0077 18.5792 10.1182 18.504 10.2108 18.4095L15.8708 12.7595C15.9723 12.6659 16.0533 12.5523 16.1087 12.4258C16.1641 12.2993 16.1927 12.1627 16.1927 12.0245C16.1927 11.8864 16.1641 11.7498 16.1087 11.6233C16.0533 11.4968 15.9723 11.3832 15.8708 11.2895Z" fill="white"/>
</svg>