<svg width="16" height="16" viewBox="0 0 16 16" fill="none" xmlns="http://www.w3.org/2000/svg">
<g id="Icon set">
<path id="Vector" d="M7.99935 9.99996C8.70659 9.99996 9.38487 9.71901 9.88497 9.21891C10.3851 8.71881 10.666 8.04054 10.666 7.33329V3.33329C10.666 2.62605 10.3851 1.94777 9.88497 1.44767C9.38487 0.947578 8.70659 0.666626 7.99935 0.666626C7.2921 0.666626 6.61383 0.947578 6.11373 1.44767C5.61363 1.94777 5.33268 2.62605 5.33268 3.33329V7.33329C5.33268 8.04054 5.61363 8.71881 6.11373 9.21891C6.61383 9.71901 7.2921 9.99996 7.99935 9.99996ZM6.66602 3.33329C6.66602 2.97967 6.80649 2.64053 7.05654 2.39048C7.30659 2.14044 7.64573 1.99996 7.99935 1.99996C8.35297 1.99996 8.69211 2.14044 8.94216 2.39048C9.19221 2.64053 9.33268 2.97967 9.33268 3.33329V7.33329C9.33268 7.68691 9.19221 8.02605 8.94216 8.2761C8.69211 8.52615 8.35297 8.66663 7.99935 8.66663C7.64573 8.66663 7.30659 8.52615 7.05654 8.2761C6.80649 8.02605 6.66602 7.68691 6.66602 7.33329V3.33329ZM13.3327 7.33329C13.3327 7.15648 13.2624 6.98691 13.1374 6.86189C13.0124 6.73686 12.8428 6.66663 12.666 6.66663C12.4892 6.66663 12.3196 6.73686 12.1946 6.86189C12.0696 6.98691 11.9993 7.15648 11.9993 7.33329C11.9993 8.39416 11.5779 9.41157 10.8278 10.1617C10.0776 10.9119 9.06021 11.3333 7.99935 11.3333C6.93848 11.3333 5.92107 10.9119 5.17092 10.1617C4.42078 9.41157 3.99935 8.39416 3.99935 7.33329C3.99935 7.15648 3.92911 6.98691 3.80409 6.86189C3.67906 6.73686 3.50949 6.66663 3.33268 6.66663C3.15587 6.66663 2.9863 6.73686 2.86128 6.86189C2.73625 6.98691 2.66602 7.15648 2.66602 7.33329C2.66719 8.63149 3.14183 9.88468 4.00095 10.8579C4.86006 11.8312 6.04467 12.4577 7.33268 12.62V14H5.99935C5.82254 14 5.65297 14.0702 5.52794 14.1952C5.40292 14.3202 5.33268 14.4898 5.33268 14.6666C5.33268 14.8434 5.40292 15.013 5.52794 15.138C5.65297 15.2631 5.82254 15.3333 5.99935 15.3333H9.99935C10.1762 15.3333 10.3457 15.2631 10.4708 15.138C10.5958 15.013 10.666 14.8434 10.666 14.6666C10.666 14.4898 10.5958 14.3202 10.4708 14.1952C10.3457 14.0702 10.1762 14 9.99935 14H8.66602V12.62C9.95403 12.4577 11.1386 11.8312 11.9978 10.8579C12.8569 9.88468 13.3315 8.63149 13.3327 7.33329Z" fill="white"/>
</g>
</svg>
