<svg width="8" height="14" viewBox="0 0 8 14" fill="none" xmlns="http://www.w3.org/2000/svg">
<path d="M7.37079 6.28955L1.71079 0.639548C1.61783 0.54582 1.50723 0.471426 1.38537 0.420657C1.26351 0.369888 1.1328 0.34375 1.00079 0.34375C0.868781 0.34375 0.738075 0.369888 0.616216 0.420657C0.494356 0.471426 0.383755 0.54582 0.290792 0.639548C0.104542 0.826911 0 1.08036 0 1.34455C0 1.60873 0.104542 1.86219 0.290792 2.04955L5.24079 7.04955L0.290792 11.9995C0.104542 12.1869 0 12.4404 0 12.7045C0 12.9687 0.104542 13.2222 0.290792 13.4095C0.383407 13.504 0.493852 13.5792 0.615727 13.6307C0.737603 13.6822 0.868485 13.709 1.00079 13.7095C1.1331 13.709 1.26398 13.6822 1.38586 13.6307C1.50773 13.5792 1.61818 13.504 1.71079 13.4095L7.37079 7.75955C7.4723 7.66591 7.55331 7.55225 7.60871 7.42576C7.66412 7.29926 7.69273 7.16265 7.69273 7.02455C7.69273 6.88645 7.66412 6.74984 7.60871 6.62334C7.55331 6.49684 7.4723 6.38319 7.37079 6.28955Z" fill="#0519D2"/>
</svg>
