<svg width="24" height="24" viewBox="0 0 24 24" fill="none" xmlns="http://www.w3.org/2000/svg">
<path d="M12.7101 17.7102L17.7101 12.7102C17.8011 12.6151 17.8725 12.5029 17.9201 12.3802C18.0201 12.1367 18.0201 11.8636 17.9201 11.6202C17.8725 11.4974 17.8011 11.3853 17.7101 11.2902L12.7101 6.29019C12.6169 6.19695 12.5062 6.12299 12.3844 6.07253C12.2625 6.02207 12.132 5.99609 12.0001 5.99609C11.7338 5.99609 11.4784 6.10188 11.2901 6.29019C11.1018 6.47849 10.996 6.73388 10.996 7.00019C10.996 7.26649 11.1018 7.52188 11.2901 7.71019L14.5901 11.0002L7.0001 11.0002C6.73489 11.0002 6.48053 11.1055 6.293 11.2931C6.10546 11.4806 6.0001 11.735 6.0001 12.0002C6.0001 12.2654 6.10546 12.5198 6.293 12.7073C6.48053 12.8948 6.73489 13.0002 7.0001 13.0002L14.5901 13.0002L11.2901 16.2902C11.1964 16.3831 11.122 16.4937 11.0712 16.6156C11.0204 16.7375 10.9943 16.8682 10.9943 17.0002C10.9943 17.1322 11.0204 17.2629 11.0712 17.3848C11.122 17.5066 11.1964 17.6172 11.2901 17.7102C11.3831 17.8039 11.4937 17.8783 11.6155 17.9291C11.7374 17.9798 11.8681 18.006 12.0001 18.006C12.1321 18.006 12.2628 17.9798 12.3847 17.9291C12.5065 17.8783 12.6171 17.8039 12.7101 17.7102Z" fill="white"/>
</svg>
