<svg width="16" height="16" viewBox="0 0 16 16" fill="none" xmlns="http://www.w3.org/2000/svg">
<path d="M7.99984 10.0003C8.70708 10.0003 9.38536 9.71937 9.88546 9.21928C10.3856 8.71918 10.6665 8.0409 10.6665 7.33366V3.33366C10.6665 2.62641 10.3856 1.94814 9.88546 1.44804C9.38536 0.947944 8.70708 0.666992 7.99984 0.666992C7.29259 0.666992 6.61432 0.947944 6.11422 1.44804C5.61412 1.94814 5.33317 2.62641 5.33317 3.33366V7.33366C5.33317 8.0409 5.61412 8.71918 6.11422 9.21928C6.61432 9.71937 7.29259 10.0003 7.99984 10.0003ZM6.6665 3.33366C6.6665 2.98004 6.80698 2.6409 7.05703 2.39085C7.30708 2.1408 7.64621 2.00033 7.99984 2.00033C8.35346 2.00033 8.6926 2.1408 8.94265 2.39085C9.19269 2.6409 9.33317 2.98004 9.33317 3.33366V7.33366C9.33317 7.68728 9.19269 8.02642 8.94265 8.27647C8.6926 8.52652 8.35346 8.66699 7.99984 8.66699C7.64621 8.66699 7.30708 8.52652 7.05703 8.27647C6.80698 8.02642 6.6665 7.68728 6.6665 7.33366V3.33366ZM13.3332 7.33366C13.3332 7.15685 13.2629 6.98728 13.1379 6.86225C13.0129 6.73723 12.8433 6.66699 12.6665 6.66699C12.4897 6.66699 12.3201 6.73723 12.1951 6.86225C12.0701 6.98728 11.9998 7.15685 11.9998 7.33366C11.9998 8.39453 11.5784 9.41194 10.8283 10.1621C10.0781 10.9122 9.0607 11.3337 7.99984 11.3337C6.93897 11.3337 5.92156 10.9122 5.17141 10.1621C4.42126 9.41194 3.99984 8.39453 3.99984 7.33366C3.99984 7.15685 3.9296 6.98728 3.80457 6.86225C3.67955 6.73723 3.50998 6.66699 3.33317 6.66699C3.15636 6.66699 2.98679 6.73723 2.86177 6.86225C2.73674 6.98728 2.6665 7.15685 2.6665 7.33366C2.66768 8.63185 3.14232 9.88505 4.00144 10.8583C4.86055 11.8316 6.04516 12.4581 7.33317 12.6203V14.0003H5.99984C5.82303 14.0003 5.65346 14.0706 5.52843 14.1956C5.40341 14.3206 5.33317 14.4902 5.33317 14.667C5.33317 14.8438 5.40341 15.0134 5.52843 15.1384C5.65346 15.2634 5.82303 15.3337 5.99984 15.3337H9.99984C10.1766 15.3337 10.3462 15.2634 10.4712 15.1384C10.5963 15.0134 10.6665 14.8438 10.6665 14.667C10.6665 14.4902 10.5963 14.3206 10.4712 14.1956C10.3462 14.0706 10.1766 14.0003 9.99984 14.0003H8.6665V12.6203C9.95452 12.4581 11.1391 11.8316 11.9982 10.8583C12.8574 9.88505 13.332 8.63185 13.3332 7.33366Z" fill="white"/>
</svg>
