<svg width="32" height="32" viewBox="0 0 32 32" fill="none" xmlns="http://www.w3.org/2000/svg">
<path d="M18.24 21.768L18.96 22.2C18.576 22.968 18.144 23.504 17.664 23.808C17.184 24.096 16.648 24.24 16.056 24.24C15.192 24.24 14.52 23.976 14.04 23.448C13.56 22.92 13.392 22.12 13.536 21.048L14.592 13.656L14.376 13.44H12.84L12.96 12.6C13.68 12.6 14.44 12.592 15.24 12.576C16.04 12.56 16.76 12.504 17.4 12.408L17.616 12.6L16.344 21.552C16.264 22.096 16.28 22.472 16.392 22.68C16.52 22.888 16.688 22.992 16.896 22.992C17.136 22.992 17.368 22.88 17.592 22.656C17.816 22.432 18.032 22.136 18.24 21.768ZM16.344 10.752C15.864 10.752 15.496 10.592 15.24 10.272C14.984 9.952 14.872 9.552 14.904 9.072C14.968 8.56 15.168 8.112 15.504 7.728C15.856 7.344 16.28 7.152 16.776 7.152C17.256 7.152 17.624 7.312 17.88 7.632C18.136 7.952 18.24 8.352 18.192 8.832C18.144 9.328 17.952 9.776 17.616 10.176C17.28 10.56 16.856 10.752 16.344 10.752Z" fill="#32353D"/>
<rect x="0.5" y="0.5" width="31" height="31" rx="15.5" stroke="#32353D"/>
</svg>
