<svg width="181" height="32" viewBox="0 0 181 32" fill="none" xmlns="http://www.w3.org/2000/svg">
<g id="inagatlanbazar_logo" clip-path="url(#clip0_6095_479)">
<path id="Vector" d="M41.3634 7.38484C41.3634 8.50543 40.4522 9.41666 39.3316 9.41666C38.211 9.41666 37.2998 8.50543 37.2998 7.38484C37.2998 6.26426 38.211 5.35303 39.3316 5.35303C40.4522 5.35303 41.3634 6.26426 41.3634 7.38484ZM37.5724 21.4057H40.9974V11.4846H37.5724V21.4057Z" fill="white"/>
<path id="Vector_2" d="M43.4131 11.4831H46.8381V12.5284H46.8788C47.6514 11.7557 48.638 11.1924 49.7239 11.1924C51.5419 11.1924 54.0782 12.1036 54.0782 14.8674V21.4042H50.6532V15.7952C50.6532 14.8087 49.9739 13.8613 48.8759 13.8613C47.8487 13.8613 46.8441 14.8072 46.8441 15.7952V21.4042H43.4191V11.4831H43.4131Z" fill="white"/>
<path id="Vector_3" d="M58.5595 22.4677C58.9255 23.0657 59.7554 23.7449 61.248 23.7449C62.1939 23.7449 63.6639 23.1816 63.6639 21.4224V20.6844C62.9274 21.4977 61.7707 21.689 60.4121 21.689C57.5097 21.689 55.4824 19.3499 55.4824 16.4461C55.4824 13.5422 57.5142 11.1865 60.4121 11.1865C61.73 11.1865 62.7918 11.6098 63.6052 12.3643H63.6639V11.4757H67.0889V21.6649C67.0889 24.992 64.6339 26.7106 61.248 26.7106C59.1816 26.7106 56.8003 26.2467 55.7565 23.8308L58.561 22.4557V22.4677H58.5595ZM61.4393 18.7761C62.7753 18.7761 63.7377 17.8061 63.7377 16.4536C63.7377 15.101 62.7105 14.1145 61.4393 14.1145C60.1681 14.1145 59.1168 15.0845 59.1168 16.4536C59.1168 17.8227 60.0461 18.7761 61.4393 18.7761Z" fill="white"/>
<path id="Vector_4" d="M73.625 11.1924C74.961 11.1924 76.0635 11.6397 76.8768 12.4289V11.4831H80.3018V21.4042H76.9175V20.2836H76.8768C76.1388 21.0969 74.9836 21.6949 73.625 21.6949C70.7226 21.6949 68.6953 19.3558 68.6953 16.4519C68.6953 13.548 70.7271 11.1924 73.625 11.1924ZM74.6522 18.7744C75.9867 18.7744 76.9506 17.8045 76.9506 16.4519C76.9506 15.0994 75.9234 14.1128 74.6522 14.1128C73.381 14.1128 72.3297 15.0828 72.3297 16.4519C72.3297 17.821 73.259 18.7744 74.6522 18.7744Z" fill="white"/>
<path id="Vector_5" d="M83.059 7.7915H86.484V11.4846H88.5746V14.0978H86.484V17.2502C86.484 18.1795 86.716 18.6208 87.2567 18.6208C87.704 18.6208 88.1107 18.3136 88.1107 18.3136L88.9647 21.0774C88.9647 21.0774 87.8622 21.6979 86.4509 21.6979C83.7217 21.6979 83.0665 19.6661 83.0665 17.9069V14.0978H81.6387V11.4846H83.0665V7.7915H83.0605H83.059Z" fill="white"/>
<path id="Vector_6" d="M90.1191 5.35889H93.5442V21.4056H90.1191V5.35889Z" fill="white"/>
<path id="Vector_7" d="M100.08 11.1924C101.416 11.1924 102.519 11.6397 103.332 12.4289V11.4831H106.757V21.4042H103.373V20.2836H103.332C102.594 21.0969 101.439 21.6949 100.08 21.6949C97.1777 21.6949 95.1504 19.3558 95.1504 16.4519C95.1504 13.548 97.1822 11.1924 100.08 11.1924ZM101.107 18.7744C102.442 18.7744 103.406 17.8045 103.406 16.4519C103.406 15.0994 102.378 14.1128 101.107 14.1128C99.8361 14.1128 98.7848 15.0828 98.7848 16.4519C98.7848 17.821 99.7141 18.7744 101.107 18.7744Z" fill="white"/>
<path id="Vector_8" d="M109.074 11.4831H112.499V12.5284H112.54C113.313 11.7557 114.299 11.1924 115.385 11.1924C117.203 11.1924 119.739 12.1036 119.739 14.8674V21.4042H116.314V15.7952C116.314 14.8087 115.635 13.8613 114.539 13.8613C113.511 13.8613 112.507 14.8072 112.507 15.7952V21.4042H109.082V11.4831H109.076H109.074Z" fill="white"/>
<path id="Vector_9" d="M128.528 21.6948C127.176 21.6948 126.015 21.1149 125.277 20.3302H125.236V21.4161H121.852V5.35889H125.277V12.7557C126.09 11.989 127.192 11.5598 128.528 11.5598C131.431 11.5598 133.457 13.8356 133.457 16.6401C133.457 19.4446 131.425 21.7023 128.528 21.7023V21.6963V21.6948ZM127.501 14.1127C126.224 14.1127 125.203 15.0827 125.203 16.4518C125.203 17.8209 126.173 18.7743 127.501 18.7743C128.83 18.7743 129.824 17.8043 129.824 16.4518C129.824 15.0993 128.796 14.1127 127.501 14.1127Z" fill="white"/>
<path id="Vector_10" d="M139.281 11.1924C140.616 11.1924 141.72 11.6397 142.532 12.4289V11.4831H145.957V21.4042H142.572V20.2836H142.532C141.795 21.0969 140.638 21.6949 139.281 21.6949C136.379 21.6949 134.352 19.3558 134.352 16.4519C134.352 13.548 136.383 11.1924 139.281 11.1924ZM140.308 18.7744C141.644 18.7744 142.607 17.8045 142.607 16.4519C142.607 15.0994 141.58 14.1128 140.308 14.1128C139.037 14.1128 137.986 15.0828 137.986 16.4519C137.986 17.821 138.915 18.7744 140.308 18.7744Z" fill="white"/>
<path id="Vector_11" d="M152.957 18.7923H157.48V21.4055H147.211L152.123 14.0961H148.024V11.4829H157.87L152.958 18.7923H152.957Z" fill="white"/>
<path id="Vector_12" d="M158.41 16.4535C158.41 13.5511 160.442 11.1939 163.338 11.1939C164.674 11.1939 165.777 11.6413 166.59 12.4305V11.4846H170.015V21.4057H166.631V20.2852H166.59C165.852 21.0985 164.697 21.6964 163.338 21.6964C160.436 21.6964 158.41 19.3574 158.41 16.4535ZM162.045 16.4535C162.045 17.806 162.974 18.776 164.367 18.776C165.76 18.776 166.665 17.806 166.665 16.4535C166.665 15.1009 165.638 14.1144 164.367 14.1144C163.096 14.1144 162.045 15.0844 162.045 16.4535ZM163.438 8.56417L164.524 10.0508L169.127 7.38033L167.369 5.15723L163.444 8.55965L163.438 8.56568V8.56417Z" fill="white"/>
<path id="Vector_13" d="M172.332 11.4831H175.757V12.9109H175.798C175.798 12.9109 176.884 11.1924 178.834 11.1924C180.111 11.1924 181 11.8129 181 11.8129L179.566 14.7153C179.566 14.7153 178.928 14.1761 177.789 14.1761C176.013 14.1761 175.757 15.9353 175.757 16.1853V21.4042H172.332V11.4831Z" fill="white"/>
<path id="Vector_14" d="M32.2598 16.006C32.2598 7.16332 25.0964 0 16.2598 0C7.42309 0 0.259766 7.16333 0.259766 16C0.259766 24.8367 7.42309 32 16.2598 32C25.0964 32 32.2598 24.8352 32.2598 16V16.006ZM16.2598 29.5796C8.77713 29.5796 2.6862 23.4902 2.6862 16.006C2.6862 8.52189 8.77713 2.43246 16.2598 2.43246C23.7424 2.43246 29.8333 8.51737 29.8333 16.006C29.8333 23.4947 23.7439 29.5796 16.2598 29.5796Z" fill="white"/>
<path id="Vector_15" d="M22.0358 12.5161V10.537C22.0358 9.75827 21.4032 9.1317 20.6306 9.1317H20.004C19.5748 9.1317 19.1862 9.32901 18.9301 9.63627L17.3577 8.17981C17.0956 7.93581 16.7597 7.80176 16.3998 7.80176C16.0398 7.80176 15.7205 7.92978 15.4644 8.15571L9.80427 13.2014L9.75758 13.242L8.35232 14.4967C7.91102 14.8853 7.76642 15.4953 7.97427 16.0465C8.18363 16.5978 8.70025 16.9517 9.28614 16.9517H9.43074V23.6858C9.43074 24.463 10.0633 25.091 10.836 25.091H21.6397C22.4184 25.091 23.045 24.4584 23.045 23.6858V16.9517H23.2242C23.8056 16.9517 24.3222 16.6038 24.53 16.0571C24.7454 15.5178 24.6054 14.9078 24.1761 14.5132L22.0283 12.5161H22.0343H22.0358ZM12.3753 17.503C12.5666 17.3117 12.8693 17.3117 13.0606 17.503L15.0517 19.4941L19.4528 15.0931C19.644 14.9018 19.9468 14.9018 20.1381 15.0931C20.3294 15.2844 20.3294 15.5871 20.1381 15.7784L15.3952 20.5213C15.3018 20.6147 15.1753 20.6614 15.0533 20.6614C14.9313 20.6614 14.8032 20.6147 14.7114 20.5213L12.3768 18.1868C12.1855 17.9955 12.1855 17.6927 12.3768 17.5015L12.3753 17.503Z" fill="white"/>
</g>
<defs>
<clipPath id="clip0_6095_479">
<rect width="180.74" height="32" fill="white" transform="translate(0.259766)"/>
</clipPath>
</defs>
</svg>
