<svg width="33" height="32" viewBox="0 0 33 32" fill="none" xmlns="http://www.w3.org/2000/svg">
  <path d="M25.8346 5.33337H7.16797C6.1071 5.33337 5.08969 5.7548 4.33954 6.50495C3.5894 7.25509 3.16797 8.27251 3.16797 9.33337V22.6667C3.16797 23.7276 3.5894 24.745 4.33954 25.4951C5.08969 26.2453 6.1071 26.6667 7.16797 26.6667H25.8346C26.8955 26.6667 27.9129 26.2453 28.6631 25.4951C29.4132 24.745 29.8346 23.7276 29.8346 22.6667V9.33337C29.8346 8.27251 29.4132 7.25509 28.6631 6.50495C27.9129 5.7548 26.8955 5.33337 25.8346 5.33337ZM25.288 8.00004L17.448 15.84C17.324 15.965 17.1765 16.0642 17.0141 16.1319C16.8516 16.1996 16.6773 16.2344 16.5013 16.2344C16.3253 16.2344 16.151 16.1996 15.9885 16.1319C15.8261 16.0642 15.6786 15.965 15.5546 15.84L7.71463 8.00004H25.288ZM27.168 22.6667C27.168 23.0203 27.0275 23.3595 26.7774 23.6095C26.5274 23.8596 26.1883 24 25.8346 24H7.16797C6.81435 24 6.47521 23.8596 6.22516 23.6095C5.97511 23.3595 5.83464 23.0203 5.83464 22.6667V9.88004L13.6746 17.72C14.4246 18.4691 15.4413 18.8899 16.5013 18.8899C17.5613 18.8899 18.578 18.4691 19.328 17.72L27.168 9.88004V22.6667Z" fill="#0519D2"/>
</svg>
