<svg width="32" height="32" viewBox="0 0 32 32" fill="none" xmlns="http://www.w3.org/2000/svg">
  <path d="M25.3327 5.33337H6.66602C5.60515 5.33337 4.58773 5.7548 3.83759 6.50495C3.08744 7.25509 2.66602 8.27251 2.66602 9.33337V22.6667C2.66602 23.7276 3.08744 24.745 3.83759 25.4951C4.58773 26.2453 5.60515 26.6667 6.66602 26.6667H25.3327C26.3935 26.6667 27.411 26.2453 28.1611 25.4951C28.9113 24.745 29.3327 23.7276 29.3327 22.6667V9.33337C29.3327 8.27251 28.9113 7.25509 28.1611 6.50495C27.411 5.7548 26.3935 5.33337 25.3327 5.33337ZM24.786 8.00004L16.946 15.84C16.8221 15.965 16.6746 16.0642 16.5121 16.1319C16.3496 16.1996 16.1754 16.2344 15.9993 16.2344C15.8233 16.2344 15.6491 16.1996 15.4866 16.1319C15.3241 16.0642 15.1766 15.965 15.0527 15.84L7.21268 8.00004H24.786ZM26.666 22.6667C26.666 23.0203 26.5255 23.3595 26.2755 23.6095C26.0254 23.8596 25.6863 24 25.3327 24H6.66602C6.31239 24 5.97326 23.8596 5.72321 23.6095C5.47316 23.3595 5.33268 23.0203 5.33268 22.6667V9.88004L13.1727 17.72C13.9227 18.4691 14.9393 18.8899 15.9993 18.8899C17.0594 18.8899 18.076 18.4691 18.826 17.72L26.666 9.88004V22.6667Z" fill="white"/>
</svg>
