<svg width="21" height="20" viewBox="0 0 21 20" fill="none" xmlns="http://www.w3.org/2000/svg">
<g id="Icon set">
<path id="Vector" d="M11.3 13.201H6.50001C6.28783 13.201 6.08435 13.2852 5.93432 13.4352C5.78429 13.5852 5.70001 13.7887 5.70001 14.0008C5.70001 14.2129 5.78429 14.4164 5.93432 14.5664C6.08435 14.7164 6.28783 14.8006 6.50001 14.8006H11.3C11.5122 14.8006 11.7157 14.7164 11.8657 14.5664C12.0157 14.4164 12.1 14.2129 12.1 14.0008C12.1 13.7887 12.0157 13.5852 11.8657 13.4352C11.7157 13.2852 11.5122 13.201 11.3 13.201ZM8.1 8.40191H9.7C9.91218 8.40191 10.1157 8.31764 10.2657 8.16764C10.4157 8.01764 10.5 7.8142 10.5 7.60207C10.5 7.38994 10.4157 7.18649 10.2657 7.03649C10.1157 6.88649 9.91218 6.80223 9.7 6.80223H8.1C7.88783 6.80223 7.68435 6.88649 7.53432 7.03649C7.38429 7.18649 7.3 7.38994 7.3 7.60207C7.3 7.8142 7.38429 8.01764 7.53432 8.16764C7.68435 8.31764 7.88783 8.40191 8.1 8.40191ZM17.7 10.0016H15.3V2.80302C15.3006 2.66208 15.2639 2.52349 15.1936 2.4013C15.1234 2.2791 15.0221 2.17763 14.9 2.10716C14.7784 2.03696 14.6404 2 14.5 2C14.3596 2 14.2216 2.03696 14.1 2.10716L11.7 3.48289L9.3 2.10716C9.17839 2.03696 9.04043 2 8.9 2C8.75957 2 8.62162 2.03696 8.5 2.10716L6.10001 3.48289L3.70001 2.10716C3.57839 2.03696 3.44044 2 3.30001 2C3.15958 2 3.02162 2.03696 2.90001 2.10716C2.77792 2.17763 2.67663 2.2791 2.60639 2.4013C2.53615 2.52349 2.49945 2.66208 2.50001 2.80302V15.6005C2.50001 16.2369 2.75286 16.8472 3.20295 17.2972C3.65304 17.7472 4.26349 18 4.90001 18H16.1C16.7365 18 17.347 17.7472 17.7971 17.2972C18.2471 16.8472 18.5 16.2369 18.5 15.6005V10.8014C18.5 10.5893 18.4157 10.3859 18.2657 10.2359C18.1157 10.0859 17.9122 10.0016 17.7 10.0016ZM4.90001 16.4003C4.68783 16.4003 4.48435 16.316 4.33432 16.1661C4.18429 16.0161 4.10001 15.8126 4.10001 15.6005V4.18675L5.70001 5.09856C5.82348 5.16304 5.96071 5.19671 6.10001 5.19671C6.2393 5.19671 6.37654 5.16304 6.50001 5.09856L8.9 3.72284L11.3 5.09856C11.4235 5.16304 11.5607 5.19671 11.7 5.19671C11.8393 5.19671 11.9765 5.16304 12.1 5.09856L13.7 4.18675V15.6005C13.7022 15.8733 13.7509 16.1438 13.844 16.4003H4.90001ZM16.9 15.6005C16.9 15.8126 16.8157 16.0161 16.6657 16.1661C16.5157 16.316 16.3122 16.4003 16.1 16.4003C15.8878 16.4003 15.6843 16.316 15.5343 16.1661C15.3843 16.0161 15.3 15.8126 15.3 15.6005V11.6013H16.9V15.6005ZM11.3 10.0016H6.50001C6.28783 10.0016 6.08435 10.0859 5.93432 10.2359C5.78429 10.3859 5.70001 10.5893 5.70001 10.8014C5.70001 11.0136 5.78429 11.217 5.93432 11.367C6.08435 11.517 6.28783 11.6013 6.50001 11.6013H11.3C11.5122 11.6013 11.7157 11.517 11.8657 11.367C12.0157 11.217 12.1 11.0136 12.1 10.8014C12.1 10.5893 12.0157 10.3859 11.8657 10.2359C11.7157 10.0859 11.5122 10.0016 11.3 10.0016Z" fill="white"/>
</g>
</svg>
