<svg width="40" height="40" viewBox="0 0 40 40" fill="none" xmlns="http://www.w3.org/2000/svg">
<g filter="url(#filter0_b_6054_29855)">
<rect width="40" height="40" rx="20" fill="#32353D" fill-opacity="0.7"/>
<path d="M20.1014 23.0934C21.1462 23.0934 22.1482 22.6784 22.887 21.9396C23.6258 21.2008 24.0408 20.1988 24.0408 19.154V13.2449C24.0408 12.2001 23.6258 11.1981 22.887 10.4594C22.1482 9.72058 21.1462 9.30554 20.1014 9.30554C19.0567 9.30554 18.0547 9.72058 17.3159 10.4594C16.5771 11.1981 16.162 12.2001 16.162 13.2449V19.154C16.162 20.1988 16.5771 21.2008 17.3159 21.9396C18.0547 22.6784 19.0567 23.0934 20.1014 23.0934ZM18.1317 13.2449C18.1317 12.7225 18.3393 12.2215 18.7087 11.8521C19.078 11.4828 19.579 11.2752 20.1014 11.2752C20.6238 11.2752 21.1248 11.4828 21.4942 11.8521C21.8636 12.2215 22.0711 12.7225 22.0711 13.2449V19.154C22.0711 19.6764 21.8636 20.1774 21.4942 20.5468C21.1248 20.9162 20.6238 21.1237 20.1014 21.1237C19.579 21.1237 19.078 20.9162 18.7087 20.5468C18.3393 20.1774 18.1317 19.6764 18.1317 19.154V13.2449ZM27.9802 19.154C27.9802 18.8928 27.8765 18.6423 27.6918 18.4576C27.5071 18.2729 27.2566 18.1692 26.9954 18.1692C26.7342 18.1692 26.4837 18.2729 26.299 18.4576C26.1143 18.6423 26.0105 18.8928 26.0105 19.154C26.0105 20.7212 25.388 22.2242 24.2798 23.3324C23.1716 24.4406 21.6686 25.0631 20.1014 25.0631C18.5343 25.0631 17.0313 24.4406 15.9231 23.3324C14.8149 22.2242 14.1924 20.7212 14.1924 19.154C14.1924 18.8928 14.0886 18.6423 13.9039 18.4576C13.7192 18.2729 13.4687 18.1692 13.2075 18.1692C12.9463 18.1692 12.6958 18.2729 12.5111 18.4576C12.3264 18.6423 12.2227 18.8928 12.2227 19.154C12.2244 21.0718 12.9256 22.9231 14.1947 24.3609C15.4639 25.7987 17.2138 26.7242 19.1166 26.9639V29.0025H17.1469C16.8857 29.0025 16.6352 29.1063 16.4505 29.291C16.2658 29.4757 16.162 29.7262 16.162 29.9874C16.162 30.2486 16.2658 30.4991 16.4505 30.6838C16.6352 30.8685 16.8857 30.9722 17.1469 30.9722H23.056C23.3172 30.9722 23.5677 30.8685 23.7524 30.6838C23.9371 30.4991 24.0408 30.2486 24.0408 29.9874C24.0408 29.7262 23.9371 29.4757 23.7524 29.291C23.5677 29.1063 23.3172 29.0025 23.056 29.0025H21.0863V26.9639C22.989 26.7242 24.739 25.7987 26.0082 24.3609C27.2773 22.9231 27.9785 21.0718 27.9802 19.154Z" fill="white"/>
</g>
<defs>
<filter id="filter0_b_6054_29855" x="-8" y="-8" width="56" height="56" filterUnits="userSpaceOnUse" color-interpolation-filters="sRGB">
<feFlood flood-opacity="0" result="BackgroundImageFix"/>
<feGaussianBlur in="BackgroundImageFix" stdDeviation="4"/>
<feComposite in2="SourceAlpha" operator="in" result="effect1_backgroundBlur_6054_29855"/>
<feBlend mode="normal" in="SourceGraphic" in2="effect1_backgroundBlur_6054_29855" result="shape"/>
</filter>
</defs>
</svg>
