<svg width="48" height="48" viewBox="0 0 48 48" fill="none" xmlns="http://www.w3.org/2000/svg">
<path d="M17.5527 36.368L10.0527 43.868" stroke="#005CA2" stroke-width="3" stroke-linecap="round" stroke-linejoin="round"/>
<path d="M28.0527 36.368L20.5527 43.868" stroke="#005CA2" stroke-width="3" stroke-linecap="round" stroke-linejoin="round"/>
<path d="M16.0527 18.368C16.0527 18.8695 16.0841 19.3705 16.1467 19.868C16.0841 19.3705 16.0527 18.8695 16.0527 18.368C16.0566 17.6145 16.1323 16.8631 16.2787 16.124" stroke="#005CA2" stroke-width="3" stroke-linecap="round" stroke-linejoin="round"/>
<path d="M28.0526 30.368C30.3305 30.3708 32.5622 29.725 34.4867 28.5064C36.4113 27.2877 37.9492 25.5464 38.9208 23.4861C39.8923 21.4257 40.2573 19.1313 39.9732 16.8712C39.689 14.611 38.7675 12.4785 37.3162 10.7227C35.8648 8.96691 33.9438 7.66049 31.7775 6.95613C29.6112 6.25176 27.2891 6.17854 25.0827 6.74502C22.8763 7.31151 20.8768 8.49429 19.3177 10.1551C17.7587 11.816 16.7046 13.8863 16.2786 16.124C15.264 15.6376 14.1528 15.3861 13.0277 15.3881C11.9025 15.39 10.7923 15.6455 9.77936 16.1354C8.76646 16.6253 7.87697 17.3372 7.17693 18.2181C6.4769 19.0989 5.98432 20.1262 5.73579 21.2236C5.48725 22.321 5.48915 23.4602 5.74133 24.5568C5.99352 25.6533 6.48951 26.679 7.19247 27.5575C7.89543 28.436 8.78729 29.1449 9.80181 29.6315C10.8163 30.1181 11.9274 30.3698 13.0526 30.368H28.0526Z" stroke="#005CA2" stroke-width="3" stroke-linecap="round" stroke-linejoin="round"/>
</svg>
