<svg width="48" height="48" viewBox="0 0 48 48" fill="none" xmlns="http://www.w3.org/2000/svg">
<g clip-path="url(#clip0)">
<path d="M35.5731 21.368C35.9901 19.806 36.0872 18.1759 35.8585 16.5754C35.6298 14.975 35.0801 13.4373 34.2424 12.0546C33.4046 10.6719 32.2961 9.47273 30.9834 8.52909C29.6707 7.58545 28.1809 6.9168 26.6033 6.56326C25.0258 6.20973 23.393 6.17861 21.8031 6.47177C20.2133 6.76493 18.699 7.37633 17.3513 8.26926C16.0036 9.16219 14.8502 10.3182 13.9604 11.668C13.0705 13.0178 12.4626 14.5334 12.1731 16.124C11.1585 15.6376 10.0474 15.386 8.92221 15.388C7.79705 15.39 6.68679 15.6454 5.67389 16.1353C4.661 16.6253 3.7715 17.3371 3.07146 18.218C2.37143 19.0989 1.87885 20.1262 1.63032 21.2235C1.38179 22.3209 1.38368 23.4602 1.63586 24.5567C1.88805 25.6533 2.38404 26.6789 3.087 27.5574C3.78996 28.436 4.68182 29.1449 5.69634 29.6314C6.71086 30.118 7.82197 30.3698 8.94713 30.368" stroke="#005CA2" stroke-width="3" stroke-linecap="round" stroke-linejoin="round"/>
<path d="M17.9512 28.222C34.4512 35.722 31.4512 22.222 46.4512 29.722" stroke="#005CA2" stroke-width="3" stroke-linecap="round" stroke-linejoin="round"/>
<path d="M17.9512 34.222C34.4512 41.722 31.4512 28.222 46.4512 35.722" stroke="#005CA2" stroke-width="3" stroke-linecap="round" stroke-linejoin="round"/>
<path d="M17.9512 40.222C34.4512 47.722 31.4512 34.222 46.4512 41.722" stroke="#005CA2" stroke-width="3" stroke-linecap="round" stroke-linejoin="round"/>
<path d="M11.9512 18.368C11.9511 18.8695 11.9825 19.3705 12.0452 19.868C11.9825 19.3705 11.9511 18.8695 11.9512 18.368C11.954 17.6145 12.0297 16.863 12.1772 16.124" stroke="#005CA2" stroke-width="3" stroke-linecap="round" stroke-linejoin="round"/>
</g>
<defs>
<clipPath id="clip0">
<rect width="48" height="48" fill="white"/>
</clipPath>
</defs>
</svg>
