<svg width="16" height="16" viewBox="0 0 16 16" fill="none" xmlns="http://www.w3.org/2000/svg">
<path d="M7.71181 15.98C5.6365 15.9138 3.66838 15.0427 2.22395 13.5511C0.779525 12.0595 -0.0278632 10.0644 -0.0273435 7.98806C-0.0268238 5.9117 0.781563 3.91701 2.22674 2.42613C3.67191 0.935244 5.64047 0.0651551 7.71581 0L7.74381 0C7.84148 0.000815024 7.93779 0.0230399 8.02594 0.0651085C8.11409 0.107177 8.19195 0.168066 8.25402 0.243484C8.31609 0.318903 8.36086 0.407016 8.38519 0.501614C8.40951 0.596212 8.4128 0.694995 8.39481 0.791C8.37877 0.877044 8.34574 0.959029 8.29767 1.03217C8.24959 1.10531 8.18743 1.16815 8.11481 1.217C7.03604 1.98228 6.15933 2.99818 5.5601 4.1773C4.96088 5.35643 4.65707 6.66347 4.67481 7.986C4.65659 9.31087 4.96053 10.6203 5.56045 11.8017C6.16038 12.9831 7.03834 14.0011 8.11881 14.768C8.23482 14.849 8.322 14.9649 8.36772 15.0988C8.41345 15.2327 8.41533 15.3777 8.37309 15.5128C8.33086 15.6478 8.24671 15.7659 8.13284 15.8499C8.01898 15.9339 7.88131 15.9795 7.73981 15.98H7.71181Z" fill="#FF9900"/>
<path d="M12.3319 15.323C12.2448 15.322 12.1616 15.2868 12.1001 15.2251C12.0386 15.1634 12.0037 15.0801 12.0029 14.993C11.9889 13.373 11.2689 12.654 9.67089 12.654C9.58257 12.654 9.49787 12.6189 9.43542 12.5565C9.37297 12.494 9.33789 12.4093 9.33789 12.321C9.33789 12.2327 9.37297 12.148 9.43542 12.0855C9.49787 12.0231 9.58257 11.988 9.67089 11.988C9.98793 12.0342 10.3114 12.0057 10.6155 11.9048C10.9195 11.8039 11.1958 11.6333 11.4223 11.4067C11.6488 11.1801 11.8193 10.9037 11.9201 10.5996C12.0209 10.2955 12.0492 9.97202 12.0029 9.655C12.0034 9.56659 12.039 9.482 12.1018 9.41976C12.1646 9.35753 12.2495 9.32273 12.3379 9.323C12.3818 9.323 12.4253 9.33168 12.4658 9.34854C12.5063 9.3654 12.5431 9.3901 12.5741 9.42124C12.605 9.45237 12.6295 9.48932 12.6461 9.52995C12.6627 9.57058 12.6712 9.6141 12.6709 9.658C12.6709 11.214 13.4089 11.958 15.0089 11.988C15.0972 11.9888 15.1816 12.0246 15.2435 12.0877C15.3054 12.1507 15.3397 12.2357 15.3389 12.324C15.3381 12.4123 15.3022 12.4967 15.2392 12.5586C15.1762 12.6205 15.0912 12.6548 15.0029 12.654H14.9819C13.4819 12.654 12.7479 13.4 12.6679 15.002C12.665 15.0878 12.6291 15.1691 12.5676 15.229C12.506 15.2888 12.4237 15.3225 12.3379 15.323H12.3319Z" fill="#FF9900"/>
<path d="M8.96913 8.99299C8.88418 8.98463 8.80569 8.94396 8.74986 8.87939C8.69403 8.81481 8.66513 8.73126 8.66913 8.64599C8.66913 8.57899 8.67813 8.51299 8.68413 8.44599C8.68282 8.17754 8.58698 7.91813 8.41343 7.71331C8.23988 7.50849 7.99973 7.37136 7.73513 7.32599C7.66872 7.33351 7.60196 7.33752 7.53513 7.33799C7.4559 7.33794 7.37674 7.33293 7.29813 7.32299C7.21748 7.31306 7.14324 7.27397 7.08941 7.21309C7.03557 7.15222 7.00586 7.07376 7.00586 6.99249C7.00586 6.91123 7.03557 6.83277 7.08941 6.7719C7.14324 6.71102 7.21748 6.67193 7.29813 6.66199C7.37997 6.65049 7.46249 6.64447 7.54513 6.64399C7.60659 6.6442 7.66801 6.64754 7.72913 6.65399C7.96467 6.61319 8.18161 6.49993 8.34974 6.33001C8.51788 6.16008 8.62882 5.94195 8.66713 5.70599C8.65283 5.56521 8.65518 5.42323 8.67413 5.28299C8.68407 5.20234 8.72316 5.12811 8.78403 5.07427C8.84491 5.02044 8.92337 4.99072 9.00463 4.99072C9.0859 4.99072 9.16435 5.02044 9.22523 5.07427C9.2861 5.12811 9.32519 5.20234 9.33513 5.28299C9.35299 5.423 9.35466 5.5646 9.34013 5.70499C9.37139 5.89293 9.44869 6.0702 9.56513 6.22099C9.65717 6.34123 9.77221 6.44196 9.90354 6.51733C10.0349 6.5927 10.1799 6.64119 10.3301 6.65999L10.4091 6.66799C10.4901 6.66099 10.5761 6.65699 10.6711 6.65699C10.7567 6.65574 10.8395 6.6875 10.9023 6.74568C10.9651 6.80386 11.0031 6.88399 11.0084 6.96944C11.0137 7.05488 10.9858 7.13908 10.9307 7.20454C10.8755 7.27001 10.7972 7.31171 10.7121 7.32099C10.6345 7.33095 10.5564 7.33596 10.4781 7.33599H10.4201C9.76013 7.40399 9.43013 7.76199 9.35113 8.49599C9.3502 8.56563 9.34452 8.63513 9.33413 8.70399C9.3231 8.78363 9.28379 8.85664 9.22339 8.90969C9.16299 8.96275 9.08552 8.99232 9.00513 8.99299H8.96913Z" fill="#FF9900"/>
<path d="M13.6654 5.32599C13.5784 5.32494 13.4953 5.28977 13.4339 5.22806C13.3726 5.16634 13.3379 5.083 13.3374 4.99599C13.3264 3.84199 12.8124 3.32799 11.6704 3.32799C11.5853 3.32386 11.505 3.28729 11.4461 3.22579C11.3872 3.1643 11.354 3.08256 11.3535 2.99738C11.353 2.9122 11.3852 2.83007 11.4434 2.76787C11.5015 2.70567 11.5814 2.66814 11.6664 2.66299C12.8174 2.64699 13.3314 2.13299 13.3374 0.994987C13.3374 0.90667 13.3725 0.82197 13.4349 0.759521C13.4974 0.697071 13.5821 0.661987 13.6704 0.661987C13.7587 0.661987 13.8434 0.697071 13.9059 0.759521C13.9683 0.82197 14.0034 0.90667 14.0034 0.994987C14.0034 2.12199 14.5154 2.63499 15.6754 2.65899C15.7637 2.65992 15.848 2.69589 15.9098 2.759C15.9716 2.8221 16.0058 2.90717 16.0049 2.99549C16.004 3.0838 15.968 3.16814 15.9049 3.22993C15.8418 3.29172 15.7567 3.32592 15.6684 3.32499C14.5854 3.32499 14.0614 3.85899 14.0034 5.00699C13.9988 5.09224 13.9617 5.1725 13.8998 5.23126C13.8378 5.29003 13.7558 5.32286 13.6704 5.32299L13.6654 5.32599Z" fill="#FF9900"/>
</svg>
