<svg width="20" height="20" viewBox="0 0 20 20" fill="none" xmlns="http://www.w3.org/2000/svg">
<g id="Atoms/ikon">
<path id="Vector" d="M14.8001 11.6C14.3274 11.6031 13.8613 11.7109 13.4353 11.9156C13.0092 12.1204 12.6338 12.4169 12.3361 12.784L8.25607 10.904C8.4479 10.3166 8.4479 9.6834 8.25607 9.09599L12.3361 7.21599C12.8174 7.79677 13.4883 8.18886 14.2306 8.32307C14.9728 8.45727 15.7386 8.32498 16.3928 7.94952C17.047 7.57406 17.5476 6.97958 17.8061 6.27099C18.0647 5.5624 18.0646 4.78526 17.8059 4.07672C17.5472 3.36818 17.0466 2.77379 16.3923 2.39845C15.7381 2.02311 14.9722 1.89095 14.23 2.02529C13.4878 2.15964 12.8169 2.55185 12.3357 3.13271C11.8545 3.71357 11.594 4.44574 11.6001 5.19999C11.6025 5.39058 11.6212 5.58061 11.6561 5.76799L7.43207 7.71199C6.98174 7.27166 6.41147 6.97401 5.79272 6.85634C5.17396 6.73867 4.53425 6.80621 3.95371 7.0505C3.37318 7.29479 2.87764 7.70497 2.52919 8.22964C2.18074 8.75432 1.99487 9.37015 1.99487 9.99999C1.99487 10.6298 2.18074 11.2457 2.52919 11.7703C2.87764 12.295 3.37318 12.7052 3.95371 12.9495C4.53425 13.1938 5.17396 13.2613 5.79272 13.1437C6.41147 13.026 6.98174 12.7283 7.43207 12.288L11.6561 14.232C11.6212 14.4194 11.6025 14.6094 11.6001 14.8C11.6001 15.4329 11.7877 16.0516 12.1394 16.5778C12.491 17.1041 12.9908 17.5142 13.5755 17.7564C14.1602 17.9986 14.8036 18.062 15.4244 17.9385C16.0451 17.815 16.6153 17.5103 17.0628 17.0627C17.5103 16.6152 17.8151 16.045 17.9386 15.4243C18.0621 14.8035 17.9987 14.1601 17.7565 13.5754C17.5143 12.9907 17.1041 12.4909 16.5779 12.1393C16.0517 11.7877 15.433 11.6 14.8001 11.6ZM14.8001 3.59999C15.1165 3.59999 15.4259 3.69383 15.689 3.86964C15.9521 4.04545 16.1572 4.29534 16.2783 4.5877C16.3994 4.88006 16.4311 5.20177 16.3693 5.51214C16.3076 5.82251 16.1552 6.1076 15.9314 6.33137C15.7077 6.55513 15.4226 6.70751 15.1122 6.76925C14.8018 6.83099 14.4801 6.7993 14.1878 6.6782C13.8954 6.5571 13.6455 6.35203 13.4697 6.08891C13.2939 5.82579 13.2001 5.51644 13.2001 5.19999C13.2001 4.77565 13.3686 4.36868 13.6687 4.06862C13.9688 3.76856 14.3757 3.59999 14.8001 3.59999ZM5.20007 11.6C4.88362 11.6 4.57428 11.5062 4.31116 11.3303C4.04804 11.1545 3.84296 10.9046 3.72186 10.6123C3.60076 10.3199 3.56908 9.99822 3.63081 9.68785C3.69255 9.37748 3.84494 9.09239 4.0687 8.86862C4.29246 8.64486 4.57756 8.49247 4.88793 8.43074C5.1983 8.369 5.52 8.40069 5.81237 8.52179C6.10473 8.64289 6.35461 8.84796 6.53042 9.11108C6.70623 9.3742 6.80007 9.68354 6.80007 9.99999C6.80007 10.4243 6.6315 10.8313 6.33144 11.1314C6.03138 11.4314 5.62442 11.6 5.20007 11.6ZM14.8001 16.4C14.4836 16.4 14.1743 16.3062 13.9112 16.1303C13.648 15.9545 13.443 15.7046 13.3219 15.4123C13.2008 15.1199 13.1691 14.7982 13.2308 14.4878C13.2926 14.1775 13.4449 13.8924 13.6687 13.6686C13.8925 13.4449 14.1776 13.2925 14.4879 13.2307C14.7983 13.169 15.12 13.2007 15.4124 13.3218C15.7047 13.4429 15.9546 13.648 16.1304 13.9111C16.3062 14.1742 16.4001 14.4835 16.4001 14.8C16.4001 15.2243 16.2315 15.6313 15.9314 15.9314C15.6314 16.2314 15.2244 16.4 14.8001 16.4Z" fill="currentColor"/>
</g>
</svg>
