<svg width="20" height="20" viewBox="0 0 20 20" fill="none" xmlns="http://www.w3.org/2000/svg">
<g id="Atoms/ikon">
<path id="Vector" d="M8.40002 14.4398L6.98402 15.8158C6.61271 16.1871 6.10912 16.3957 5.58402 16.3957C5.05891 16.3957 4.55532 16.1871 4.18402 15.8158C3.81271 15.4445 3.60412 14.9409 3.60412 14.4158C3.60412 13.8907 3.81271 13.3871 4.18402 13.0158L7.81602 9.37583C8.17251 9.01818 8.65283 8.81125 9.15763 8.79785C9.66242 8.78445 10.1531 8.9656 10.528 9.30383L10.624 9.38383C10.7757 9.53235 10.9802 9.61453 11.1925 9.61228C11.4048 9.61003 11.6075 9.52354 11.756 9.37183C11.9045 9.22013 11.9867 9.01564 11.9845 8.80335C11.9822 8.59106 11.8957 8.38835 11.744 8.23983C11.6989 8.18145 11.6508 8.12538 11.6 8.07183C10.9171 7.47768 10.0339 7.16531 9.12927 7.19799C8.22466 7.23067 7.36628 7.60596 6.72802 8.24783L3.04802 11.8878C2.4227 12.5685 2.08451 13.4644 2.10408 14.3884C2.12364 15.3125 2.49944 16.1933 3.153 16.8468C3.80656 17.5004 4.68735 17.8762 5.61141 17.8958C6.53548 17.9153 7.43138 17.5771 8.11202 16.9518L9.49602 15.5998C9.63267 15.4508 9.70779 15.2555 9.70626 15.0532C9.70474 14.851 9.62667 14.6568 9.48779 14.5098C9.3489 14.3628 9.15949 14.2739 8.95767 14.2609C8.75585 14.2479 8.5566 14.3118 8.40002 14.4398ZM16.952 3.04783C16.279 2.37904 15.3688 2.00366 14.42 2.00366C13.4712 2.00366 12.561 2.37904 11.888 3.04783L10.504 4.39983C10.3674 4.54891 10.2922 4.74422 10.2938 4.94644C10.2953 5.14867 10.3734 5.34282 10.5122 5.48982C10.6511 5.63682 10.8405 5.72576 11.0424 5.73875C11.2442 5.75174 11.4434 5.68781 11.6 5.55983L12.984 4.18383C13.3553 3.81253 13.8589 3.60393 14.384 3.60393C14.9091 3.60393 15.4127 3.81253 15.784 4.18383C16.1553 4.55514 16.3639 5.05873 16.3639 5.58383C16.3639 6.10893 16.1553 6.61253 15.784 6.98383L12.152 10.6238C11.7955 10.9815 11.3152 11.1884 10.8104 11.2018C10.3056 11.2152 9.81498 11.0341 9.44002 10.6958L9.34402 10.6158C9.19231 10.4673 8.98782 10.3851 8.77553 10.3874C8.56324 10.3896 8.36054 10.4761 8.21202 10.6278C8.0635 10.7795 7.98132 10.984 7.98357 11.1963C7.98582 11.4086 8.07231 11.6113 8.22402 11.7598C8.28213 11.8193 8.34356 11.8754 8.40802 11.9278C9.09176 12.5202 9.9746 12.8314 10.8787 12.7987C11.7827 12.7661 12.6408 12.392 13.28 11.7518L16.92 8.11183C17.5931 7.44309 17.9742 6.53522 17.9802 5.58643C17.9862 4.63765 17.6166 3.72502 16.952 3.04783Z" fill="currentColor"/>
</g>
</svg>
