<?xml version="1.0" encoding="utf-8"?>
<!-- Generator: Adobe Illustrator 28.0.0, SVG Export Plug-In . SVG Version: 6.00 Build 0)  -->
<svg version="1.1" id="Réteg_1" xmlns="http://www.w3.org/2000/svg" xmlns:xlink="http://www.w3.org/1999/xlink" x="0px" y="0px"
	 viewBox="0 0 1180 262.03" style="enable-background:new 0 0 1180 262.03;" xml:space="preserve">
<style type="text/css">
	.st0{fill:#FF3530;}
	.st1{fill:#FFFFFF;}
</style>
<g>
	<g>
		<g>
			<path class="st0" d="M39.39,137.3c0,14.58,3.92,21.11,9.36,24.37v2.83H0v-2.83c5.66-3.26,10.01-9.79,10.01-24.37V82.69
				c0-12.84-7.83-16.97-9.57-17.62v-2.83l38.95-12.19v23.72C50.7,59.19,66.37,51.79,79.64,51.79c16.32,0,24.59,8.27,27.42,22.41
				c10.23-13.93,26.11-22.41,41.34-22.41c21.98,0,28.51,13.93,28.51,36.34v49.18c0,15.02,5,21.32,10.01,24.37v2.83h-48.52v-2.83
				c5.22-3.05,9.14-9.36,9.14-24.37V91.83c0-15.01-7.4-20.24-18.28-20.24c-8.05,0-16.1,3.26-21.54,6.96
				c0.22,2.61,0.43,5.44,0.43,8.49v50.27c0,15.02,4.13,21.32,9.36,24.37v2.83H69.63v-2.83c5.22-3.05,9.14-9.36,9.14-24.37V91.83
				c0-14.58-6.31-20.24-17.19-20.24c-8.05,0-15.88,3.48-22.2,7.4V137.3z"/>
			<path class="st0" d="M246.11,166.9c-30.68,0-53.31-21.76-53.31-56.36c0-35.69,23.72-58.97,54.62-58.97
				c34.38,0,46.78,20.67,46.78,48.09v5.88h-70.94c1.74,31.33,18.93,44.39,37.86,44.39c11.75,0,24.37-5.44,32.2-12.18l1.96,2.39
				C283.97,156.02,266.13,166.9,246.11,166.9z M223.04,100.53l44.61-4.35c0-21.54-5.66-37.86-20.24-37.86
				c-18.5,0-24.37,23.07-24.37,41.78C223.04,100.31,223.04,100.53,223.04,100.53z"/>
			<path class="st0" d="M371.62,14.14v-2.83L411.22,0v133.82c0,13.49,8.05,20.45,9.57,21.11v2.83l-38.95,8.7v-20.89
				c-5.66,8.49-18.5,21.11-35.47,21.11c-27.85,0-43.96-23.5-43.96-53.75c0-36.77,20.45-61.15,53.97-61.15
				c10.23,0,18.93,2.39,25.46,6.96V31.99C381.85,19.8,373.8,15.01,371.62,14.14z M381.85,140.35v-58.1
				c-1.74-16.54-11.32-23.72-21.98-23.72c-13.49,0-26.55,11.53-26.55,45.7c0,25.46,9.57,43.08,28.51,43.08
				C368.79,147.31,376.41,144.27,381.85,140.35z"/>
			<path class="st0" d="M468.78,137.3c0,14.58,5,21.32,10.01,24.37v2.83h-49.4v-2.83c5.66-3.26,10.01-9.79,10.01-24.37V84.21
				c0-12.62-7.83-16.76-9.57-17.62v-2.83l38.95-11.97V137.3z M453.11,1.96c9.79,0,18.28,8.49,18.28,18.28
				c0,10.01-8.49,18.28-18.28,18.28c-10.01,0-18.28-8.27-18.28-18.28C434.83,10.44,443.1,1.96,453.11,1.96z"/>
			<path class="st0" d="M484.62,137.52c0-23.28,21.54-34.82,48.09-34.82c4.57,0,8.7,0.22,12.62,0.87V89.43
				c0-20.24-1.96-31.55-17.19-31.55c-7.18,0-13.27,2.61-16.54,7.4c3.92,2.61,6.31,6.96,6.31,11.97c0,8.05-5.66,14.8-14.36,14.8
				c-8.05,0-14.58-6.31-14.58-14.8c0-15.88,18.28-25.68,40.47-25.68c37.86,0,45.26,17.19,45.26,41.34v48.74
				c0,8.92,3.7,11.97,12.18,11.97h3.7v3.26c-5.88,5.44-11.53,9.14-23.07,9.14c-8.27,0-16.76-4.14-20.24-14.58
				c-6.53,8.05-17.62,14.8-32.42,14.8C496.59,166.25,484.62,154.71,484.62,137.52z M530.31,152.32c6.53,0,11.53-3.05,15.23-7.62
				c0-1.52-0.22-3.26-0.22-5.22v-29.59c-1.09-0.22-2.18-0.22-3.26-0.22c-18.5,0-27.63,10.01-27.63,24.59
				C514.43,144.7,520.31,152.32,530.31,152.32z"/>
			<path class="st0" d="M673.12,90.3l-30.9,76.6h-4.57l-34.16-77.47c-6.96-16.1-13.06-25.46-24.59-32.64v-2.83h53.53v2.83
				c-8.49,6.09-5,18.5-0.87,28.07l19.37,47.65l18.28-51.57c-5.66-13.06-11.32-19.58-18.71-24.15v-2.83h53.75v2.83
				c-9.14,5.87-8.05,18.93-3.05,30.68l17.62,45.04L730.57,94c5-16.76,2.61-31.12-5.22-37.21v-2.83h38.95v2.83
				c-9.14,5.44-17.84,15.23-24.81,33.73l-28.94,76.38h-4.57L673.12,90.3z"/>
			<path class="st0" d="M951.31,51.57c11.1,0,17.41,8.49,17.41,16.76c0,10.23-6.96,17.41-16.75,17.41c-8.7,0-15.23-7.62-15.67-16.1
				c-5.44,0.44-13.71,6.75-18.5,12.19v55.49c0,14.58,5,20.67,13.71,24.37v2.83h-53.09v-2.83c5.66-3.26,10.01-9.79,10.01-24.37V82.69
				c0-12.84-7.83-16.97-9.57-17.62v-2.83l38.95-12.19v25.68C926.06,63.54,938.68,51.57,951.31,51.57z"/>
			<path class="st0" d="M1007.97,137.3c0,14.58,4.79,21.11,10.01,24.37v2.83h-49.4v-2.83c5.66-3.26,10.01-9.79,10.01-24.37V32.64
				c0-12.19-7.83-16.97-9.57-17.84v-2.83L1007.97,0V137.3z M1034.08,86.82c9.57-10.44,12.62-22.85,2.83-30.03v-2.83h48.31v2.83
				c-15.88,6.31-27.42,15.23-41.56,28.29l-9.79,9.57c5.88,7.18,11.53,13.71,16.97,20.24c20.24,24.59,30.25,35.25,42,43.96v2.39
				c-4.13,3.05-10.66,5.44-16.75,5.44c-15.67,0-25.46-6.96-40.04-23.94c-7.18-8.49-15.01-18.71-24.15-30.03l0.22-2.83L1034.08,86.82
				z"/>
			<path class="st0" d="M1095.14,146.01c0-8.05,5.22-13.49,13.06-13.49c7.62,0,13.06,5.44,13.06,12.4c0,4.14-1.74,7.4-4.14,9.14
				c3.26,3.48,11.32,5.66,18.93,5.66c13.49,0,20.89-6.53,20.89-15.67c0-26.11-60.71-17.63-60.71-59.19
				c0-19.8,18.5-33.07,43.52-33.07c22.85,0,36.56,8.27,36.56,19.8c0,7.83-5.22,13.27-13.06,13.27c-7.4,0-13.06-5.44-13.06-12.4
				c0-4.13,1.96-7.62,4.57-9.36c-2.83-2.83-9.57-4.79-16.32-4.79c-11.32,0-17.63,6.09-17.63,13.71c0,27.2,59.19,18.28,59.19,58.97
				c0,20.67-18.93,35.9-44.83,35.69C1112.33,166.9,1095.14,158.19,1095.14,146.01z"/>
		</g>
		<path class="st0" d="M814.35,51.57c-31.79,0-57.56,25.77-57.56,57.56s25.77,57.56,57.56,57.56c31.79,0,57.56-25.77,57.56-57.56
			S846.14,51.57,814.35,51.57z M796.45,145.31l-3.84-2.22V75.16l3.84-2.22l58.83,33.97v4.43L796.45,145.31z"/>
	</g>
	<g>
		<path class="st1" d="M675.34,201.88c5.06,2.58,8.94,6.26,11.64,11.05c2.7,4.79,4.05,10.43,4.05,16.91
			c0,6.49-1.35,12.11-4.05,16.87c-2.7,4.76-6.58,8.4-11.64,10.91c-5.06,2.52-11.05,3.77-17.96,3.77h-19.73v-63.38h19.73
			C664.3,198.02,670.28,199.3,675.34,201.88z M676.12,248.07c4.3-4.33,6.46-10.41,6.46-18.23c0-7.88-2.17-14.03-6.5-18.46
			c-4.33-4.42-10.56-6.64-18.69-6.64h-11.46v49.83h11.46C665.57,254.57,671.81,252.41,676.12,248.07z"/>
		<path class="st1" d="M708.95,198.02v63.38h-8.27v-63.38H708.95z"/>
		<path class="st1" d="M769.74,216.38c-1.76-3.7-4.31-6.56-7.64-8.59c-3.33-2.03-7.21-3.05-11.64-3.05c-4.43,0-8.41,1.02-11.96,3.05
			c-3.55,2.03-6.34,4.94-8.37,8.73c-2.03,3.79-3.05,8.17-3.05,13.14c0,4.97,1.01,9.34,3.05,13.09c2.03,3.76,4.82,6.65,8.37,8.68
			c3.55,2.03,7.53,3.05,11.96,3.05c6.18,0,11.27-1.85,15.28-5.55c4-3.7,6.33-8.7,7-15h-25.28v-6.73h34.1v6.36
			c-0.49,5.21-2.12,9.99-4.91,14.32c-2.79,4.33-6.46,7.76-11,10.27c-4.55,2.52-9.61,3.77-15.18,3.77c-5.88,0-11.24-1.38-16.09-4.14
			c-4.85-2.76-8.68-6.59-11.5-11.5c-2.82-4.91-4.23-10.46-4.23-16.64c0-6.18,1.41-11.74,4.23-16.68c2.82-4.94,6.65-8.79,11.5-11.55
			c4.85-2.76,10.21-4.14,16.09-4.14c6.73,0,12.68,1.67,17.87,5c5.18,3.33,8.96,8.03,11.32,14.09H769.74z"/>
		<path class="st1" d="M799.24,198.02v63.38h-8.27v-63.38H799.24z"/>
		<path class="st1" d="M849.4,198.02v6.73h-17.28v56.65h-8.27v-56.65h-17.37v-6.73H849.4z"/>
		<path class="st1" d="M886.77,247.3h-27.64l-5.09,14.09h-8.73l22.91-63.01h9.55l22.82,63.01h-8.73L886.77,247.3z M884.41,240.57
			l-11.46-32.01l-11.46,32.01H884.41z"/>
		<path class="st1" d="M916.04,254.66h22.19v6.73h-30.46v-63.38h8.27V254.66z"/>
		<path class="st1" d="M1007.15,198.02v6.73h-27.55v21.37h22.37v6.73h-22.37v28.55h-8.27v-63.38H1007.15z"/>
		<path class="st1" d="M1022.58,198.02v63.38h-8.27v-63.38H1022.58z"/>
		<path class="st1" d="M1068.86,261.39l-15.09-25.91h-10v25.91h-8.27v-63.38h20.46c4.79,0,8.83,0.82,12.14,2.46
			c3.3,1.64,5.77,3.85,7.41,6.64c1.64,2.79,2.46,5.97,2.46,9.55c0,4.36-1.26,8.21-3.77,11.55c-2.52,3.33-6.29,5.55-11.32,6.64
			l15.91,26.55H1068.86z M1043.76,228.84h12.18c4.49,0,7.85-1.11,10.09-3.32c2.24-2.21,3.36-5.17,3.36-8.87
			c0-3.76-1.11-6.67-3.32-8.73c-2.21-2.06-5.59-3.09-10.14-3.09h-12.18V228.84z"/>
		<path class="st1" d="M1096.41,259.8c-3.3-1.48-5.9-3.55-7.77-6.18c-1.88-2.64-2.85-5.68-2.91-9.14h8.82
			c0.3,2.97,1.53,5.47,3.68,7.5c2.15,2.03,5.29,3.05,9.41,3.05c3.94,0,7.05-0.98,9.32-2.96c2.27-1.97,3.41-4.5,3.41-7.59
			c0-2.42-0.67-4.39-2-5.91c-1.33-1.51-3-2.67-5-3.46c-2-0.79-4.7-1.64-8.09-2.55c-4.18-1.09-7.53-2.18-10.05-3.27
			c-2.52-1.09-4.67-2.8-6.46-5.14c-1.79-2.33-2.68-5.47-2.68-9.41c0-3.46,0.88-6.52,2.64-9.18c1.76-2.67,4.23-4.73,7.41-6.18
			c3.18-1.46,6.83-2.18,10.96-2.18c5.94,0,10.8,1.49,14.59,4.46c3.79,2.97,5.92,6.91,6.41,11.82h-9.09
			c-0.3-2.42-1.58-4.56-3.82-6.41c-2.24-1.85-5.21-2.77-8.91-2.77c-3.46,0-6.27,0.89-8.46,2.68c-2.18,1.79-3.27,4.29-3.27,7.5
			c0,2.3,0.65,4.18,1.95,5.64c1.3,1.46,2.91,2.56,4.82,3.32c1.91,0.76,4.59,1.62,8.05,2.59c4.18,1.15,7.55,2.29,10.09,3.41
			c2.55,1.12,4.73,2.85,6.55,5.18c1.82,2.33,2.73,5.5,2.73,9.5c0,3.09-0.82,6-2.46,8.73c-1.64,2.73-4.06,4.94-7.27,6.64
			c-3.21,1.7-7,2.55-11.37,2.55C1103.46,262.03,1099.72,261.29,1096.41,259.8z"/>
		<path class="st1" d="M1176.3,198.02v6.73h-17.28v56.65h-8.27v-56.65h-17.37v-6.73H1176.3z"/>
	</g>
</g>
</svg>
