<svg width="213" height="65" viewBox="0 0 213 65" fill="none" xmlns="http://www.w3.org/2000/svg">
<path d="M61.2822 51.0977H54.5321L49.8521 43.9577H44.0921V38.4677H49.7921L54.6821 30.9977H61.4322L54.4721 40.8677L61.2822 51.0977ZM45.7421 51.0977H40.1021V30.9977H45.7421V51.0977ZM70.4755 51.3977C68.7755 51.3977 67.2655 51.1377 65.9455 50.6177C64.6255 50.0977 63.5955 49.2577 62.8555 48.0977C62.1155 46.9377 61.7455 45.4177 61.7455 43.5377C61.7455 41.8977 62.1155 40.4977 62.8555 39.3377C63.5955 38.1577 64.6055 37.2577 65.8855 36.6377C67.1855 35.9977 68.6755 35.6777 70.3555 35.6777C72.0955 35.6777 73.6055 35.9677 74.8855 36.5477C76.1655 37.1077 77.1555 37.9477 77.8555 39.0677C78.5555 40.1677 78.9055 41.5277 78.9055 43.1477C78.9055 43.4077 78.8955 43.6477 78.8755 43.8677C78.8755 44.0677 78.8555 44.3077 78.8155 44.5877H65.4355V41.7377H74.7355L73.5055 43.5077C73.5055 43.3277 73.5055 43.1577 73.5055 42.9977C73.5055 42.8177 73.5055 42.6377 73.5055 42.4577C73.5055 41.5377 73.2655 40.8977 72.7855 40.5377C72.3255 40.1777 71.4755 39.9977 70.2355 39.9977C68.9555 39.9977 68.0855 40.1977 67.6255 40.5977C67.1855 40.9977 66.9655 41.7177 66.9655 42.7577V44.1977C66.9655 45.2577 67.1955 45.9777 67.6555 46.3577C68.1155 46.7377 68.9855 46.9277 70.2655 46.9277C71.4055 46.9277 72.1655 46.8277 72.5455 46.6277C72.9455 46.4077 73.1455 46.0777 73.1455 45.6377V45.3077H78.7855V45.6677C78.7855 46.7877 78.4455 47.7777 77.7655 48.6377C77.0855 49.4977 76.1255 50.1777 74.8855 50.6777C73.6455 51.1577 72.1755 51.3977 70.4755 51.3977ZM73.3855 34.2977H67.2655L71.2855 30.3977H79.4455L73.3855 34.2977ZM92.0546 51.3977C90.2746 51.3977 88.9346 51.0177 88.0346 50.2577C87.1346 49.4777 86.5746 48.4577 86.3546 47.1977H85.4846V43.7177H86.0546C86.0546 44.4177 86.1846 44.9577 86.4446 45.3377C86.7246 45.6977 87.1346 45.9477 87.6746 46.0877C88.2346 46.2077 88.9346 46.2677 89.7746 46.2677C90.6546 46.2677 91.3446 46.1777 91.8446 45.9977C92.3646 45.8177 92.7346 45.5277 92.9546 45.1277C93.1746 44.7277 93.2846 44.1977 93.2846 43.5377C93.2846 42.8577 93.1746 42.3277 92.9546 41.9477C92.7346 41.5477 92.3646 41.2677 91.8446 41.1077C91.3446 40.9277 90.6546 40.8377 89.7746 40.8377C88.5146 40.8377 87.5746 41.0077 86.9546 41.3477C86.3546 41.6877 86.0546 42.4077 86.0546 43.5077H85.4846L85.0646 40.0577H85.9946C86.2346 38.5577 86.8246 37.4577 87.7646 36.7577C88.7046 36.0377 90.0546 35.6777 91.8146 35.6777C93.3546 35.6777 94.6546 35.9977 95.7146 36.6377C96.7946 37.2577 97.6046 38.1577 98.1446 39.3377C98.7046 40.4977 98.9846 41.8977 98.9846 43.5377C98.9846 45.1777 98.7146 46.5877 98.1746 47.7677C97.6346 48.9277 96.8446 49.8277 95.8046 50.4677C94.7846 51.0877 93.5346 51.3977 92.0546 51.3977ZM86.0546 56.1977H80.4146V35.9777H85.6946V40.2377L86.0546 40.6277V56.1977ZM109.423 56.4977C107.663 56.4977 106.163 56.2577 104.923 55.7777C103.683 55.2977 102.733 54.5977 102.073 53.6777C101.413 52.7577 101.083 51.6377 101.083 50.3177H106.723C106.723 50.7177 106.773 51.0277 106.873 51.2477C106.993 51.4877 107.263 51.6477 107.683 51.7277C108.123 51.8077 108.833 51.8477 109.813 51.8477C110.633 51.8477 111.253 51.7777 111.673 51.6377C112.113 51.5177 112.413 51.2477 112.573 50.8277C112.733 50.4077 112.813 49.7777 112.813 48.9377V39.6977H113.173V35.9777H118.453V48.5477C118.453 50.3477 118.103 51.8277 117.403 52.9877C116.703 54.1677 115.683 55.0477 114.343 55.6277C113.003 56.2077 111.363 56.4977 109.423 56.4977ZM107.203 49.4177C105.703 49.4177 104.433 49.1477 103.393 48.6077C102.353 48.0477 101.553 47.2577 100.993 46.2377C100.453 45.1977 100.183 43.9577 100.183 42.5177C100.183 41.0977 100.463 39.8777 101.023 38.8577C101.603 37.8377 102.433 37.0577 103.513 36.5177C104.593 35.9577 105.873 35.6777 107.353 35.6777C108.893 35.6777 110.143 35.9977 111.103 36.6377C112.083 37.2577 112.673 38.2177 112.873 39.5177H113.803L113.383 42.4877H112.813C112.813 41.9477 112.683 41.5377 112.423 41.2577C112.183 40.9777 111.803 40.7877 111.283 40.6877C110.763 40.5877 110.083 40.5377 109.243 40.5377C108.363 40.5377 107.673 40.6077 107.173 40.7477C106.693 40.8677 106.353 41.0677 106.153 41.3477C105.973 41.6277 105.883 42.0177 105.883 42.5177C105.883 43.0177 105.973 43.4177 106.153 43.7177C106.353 44.0177 106.693 44.2377 107.173 44.3777C107.673 44.5177 108.363 44.5877 109.243 44.5877C110.503 44.5877 111.413 44.4777 111.973 44.2577C112.533 44.0177 112.813 43.4977 112.813 42.6977H113.383V45.7577H112.513C112.313 46.8577 111.793 47.7477 110.953 48.4277C110.113 49.0877 108.863 49.4177 107.203 49.4177ZM136.428 51.0977H131.148V47.7377H130.848V42.3677C130.848 41.6077 130.648 41.1277 130.248 40.9277C129.868 40.7077 129.178 40.5977 128.178 40.5977C127.258 40.5977 126.618 40.7077 126.258 40.9277C125.918 41.1477 125.748 41.5777 125.748 42.2177V42.3377H120.108V42.2777C120.108 40.9377 120.458 39.7777 121.158 38.7977C121.858 37.7977 122.848 37.0277 124.128 36.4877C125.408 35.9477 126.898 35.6777 128.598 35.6777C130.358 35.6777 131.818 35.9577 132.978 36.5177C134.138 37.0577 134.998 37.8377 135.558 38.8577C136.138 39.8577 136.428 41.0677 136.428 42.4877V51.0977ZM125.148 51.3977C123.448 51.3977 122.128 51.0277 121.188 50.2877C120.268 49.5477 119.808 48.5377 119.808 47.2577C119.808 46.5377 119.978 45.8977 120.318 45.3377C120.658 44.7777 121.188 44.3277 121.908 43.9877C122.628 43.6277 123.558 43.3877 124.698 43.2677L131.148 42.6377V45.7577L126.198 46.3277C125.938 46.3477 125.748 46.4077 125.628 46.5077C125.528 46.6077 125.478 46.7377 125.478 46.8977C125.478 47.1377 125.588 47.2977 125.808 47.3777C126.048 47.4377 126.388 47.4677 126.828 47.4677C127.828 47.4677 128.618 47.4177 129.198 47.3177C129.778 47.1977 130.198 46.9877 130.458 46.6877C130.718 46.3877 130.848 45.9577 130.848 45.3977L131.268 45.2777V47.9177H130.848C130.568 48.9777 129.958 49.8277 129.018 50.4677C128.078 51.0877 126.788 51.3977 125.148 51.3977ZM143.74 51.0977H138.1V30.9977H143.74V51.0977ZM153.972 51.3977C152.272 51.3977 150.762 51.1377 149.442 50.6177C148.122 50.0977 147.092 49.2577 146.352 48.0977C145.612 46.9377 145.242 45.4177 145.242 43.5377C145.242 41.8977 145.612 40.4977 146.352 39.3377C147.092 38.1577 148.102 37.2577 149.382 36.6377C150.682 35.9977 152.172 35.6777 153.852 35.6777C155.592 35.6777 157.102 35.9677 158.382 36.5477C159.662 37.1077 160.652 37.9477 161.352 39.0677C162.052 40.1677 162.402 41.5277 162.402 43.1477C162.402 43.4077 162.392 43.6477 162.372 43.8677C162.372 44.0677 162.352 44.3077 162.312 44.5877H148.932V41.7377H158.232L157.002 43.5077C157.002 43.3277 157.002 43.1577 157.002 42.9977C157.002 42.8177 157.002 42.6377 157.002 42.4577C157.002 41.5377 156.762 40.8977 156.282 40.5377C155.822 40.1777 154.972 39.9977 153.732 39.9977C152.452 39.9977 151.582 40.1977 151.122 40.5977C150.682 40.9977 150.462 41.7177 150.462 42.7577V44.1977C150.462 45.2577 150.692 45.9777 151.152 46.3577C151.612 46.7377 152.482 46.9277 153.762 46.9277C154.902 46.9277 155.662 46.8277 156.042 46.6277C156.442 46.4077 156.642 46.0777 156.642 45.6377V45.3077H162.282V45.6677C162.282 46.7877 161.942 47.7777 161.262 48.6377C160.582 49.4977 159.622 50.1777 158.382 50.6777C157.142 51.1577 155.672 51.3977 153.972 51.3977ZM156.882 34.2977H150.762L154.782 30.3977H162.942L156.882 34.2977ZM169.551 51.0977H163.911V35.9777H169.191V40.2977L169.551 40.4477V51.0977ZM169.551 42.0677H168.501V39.9377H169.491C169.631 39.0977 169.901 38.3577 170.301 37.7177C170.701 37.0777 171.241 36.5777 171.921 36.2177C172.621 35.8577 173.471 35.6777 174.471 35.6777C175.591 35.6777 176.491 35.9077 177.171 36.3677C177.851 36.8077 178.341 37.4177 178.641 38.1977C178.961 38.9777 179.121 39.8777 179.121 40.8977V43.8977H173.481V42.1277C173.481 41.4877 173.341 41.0477 173.061 40.8077C172.781 40.5477 172.271 40.4177 171.531 40.4177C170.771 40.4177 170.251 40.5477 169.971 40.8077C169.691 41.0477 169.551 41.4677 169.551 42.0677ZM185.957 51.0977H180.317V35.9777H185.957V51.0977ZM185.957 34.5977H180.317V30.9977H185.957V34.5977ZM203.928 51.0977H198.648V47.7377H198.348V42.3677C198.348 41.6077 198.148 41.1277 197.748 40.9277C197.368 40.7077 196.678 40.5977 195.678 40.5977C194.758 40.5977 194.118 40.7077 193.758 40.9277C193.418 41.1477 193.248 41.5777 193.248 42.2177V42.3377H187.608V42.2777C187.608 40.9377 187.958 39.7777 188.658 38.7977C189.358 37.7977 190.348 37.0277 191.628 36.4877C192.908 35.9477 194.398 35.6777 196.098 35.6777C197.858 35.6777 199.318 35.9577 200.478 36.5177C201.638 37.0577 202.498 37.8377 203.058 38.8577C203.638 39.8577 203.928 41.0677 203.928 42.4877V51.0977ZM192.648 51.3977C190.948 51.3977 189.628 51.0277 188.688 50.2877C187.768 49.5477 187.308 48.5377 187.308 47.2577C187.308 46.5377 187.478 45.8977 187.818 45.3377C188.158 44.7777 188.688 44.3277 189.408 43.9877C190.128 43.6277 191.058 43.3877 192.198 43.2677L198.648 42.6377V45.7577L193.698 46.3277C193.438 46.3477 193.248 46.4077 193.128 46.5077C193.028 46.6077 192.978 46.7377 192.978 46.8977C192.978 47.1377 193.088 47.2977 193.308 47.3777C193.548 47.4377 193.888 47.4677 194.328 47.4677C195.328 47.4677 196.118 47.4177 196.698 47.3177C197.278 47.1977 197.698 46.9877 197.958 46.6877C198.218 46.3877 198.348 45.9577 198.348 45.3977L198.768 45.2777V47.9177H198.348C198.068 48.9777 197.458 49.8277 196.518 50.4677C195.578 51.0877 194.288 51.3977 192.648 51.3977Z" fill="white"/>
<path fill-rule="evenodd" clip-rule="evenodd" d="M30.7084 63.9013C34.834 63.5857 207.405 63.4389 209.405 63.6909C211.13 63.9013 211.425 63.9013 211.889 63.6077C212.519 63.1894 212.667 62.8102 212.5 62.118C212.311 61.3841 211.047 60.8581 208.796 60.5866C206.607 60.293 113.801 60.2808 109 60.5996C102.663 61.0204 23.088 61.1517 22.1406 61.0269L21.1516 60.8801L23.3187 59.5371C25.5717 58.1746 28.6027 55.9705 30.5808 54.3119C33.0645 52.1934 32.5392 50.5349 29.2555 50.1581C28.0357 50.0114 27.6553 50.0334 10.6916 51.5427C11.1569 51.4038 4.31699 51.8857 0.82216 51.9909C0.191423 52.0129 -0.0834493 52.2649 0.0220805 52.7664C0.23314 53.8794 7.72592 53.7327 19.0066 53.1988C23.9102 52.8637 27.9523 52.6117 27.994 52.6533C28.1192 52.7781 23.2794 56.242 21.132 57.541C20.0374 58.2113 18.2261 59.2191 17.1315 59.7646C14.4172 61.1712 13.9116 61.8195 14.773 62.869C15.5731 63.8597 24.2243 64.4272 30.7084 63.9013Z" fill="#F48C2A"/>
<path fill-rule="evenodd" clip-rule="evenodd" d="M36.4824 0.326163C36.5857 0.456895 36.7183 1.18526 36.7786 2.10208C36.9112 4.03929 37.2814 5.21758 38.2249 6.71845C39.5542 8.84412 41.016 10.1548 42.4934 10.5912C43.2321 10.7949 44 11.581 44 12.1056C44 12.469 43.3801 13.0513 42.9807 13.0513C42.5812 13.0513 40.942 13.8815 40.2929 14.3909C39.1857 15.2653 38.831 16.1532 38.2404 19.5302C38.0786 20.4759 37.872 21.8596 37.7979 22.5727C37.6206 24.0719 37.4139 24.408 36.6753 24.408C35.8333 24.408 35.7455 24.116 35.7748 21.2042C35.7902 18.4079 35.6267 17.1855 35.0654 16.0938C34.43 14.8714 33.2195 13.924 31.403 13.2551C30.1633 12.8034 29.8223 12.542 29.8223 12.0903C29.8223 11.7117 30.1615 11.4639 31.1809 11.0852C31.6389 10.9256 32.2587 10.474 32.9819 9.7898C34.0305 8.79998 34.0891 8.71169 34.3112 7.72186C34.5178 6.80504 34.7107 4.75068 34.8863 1.59104C34.9156 1.00869 35.0344 0.426334 35.1377 0.309185C35.3736 0.0171597 36.231 0.0324401 36.4807 0.324465L36.4824 0.326163Z" fill="#F48C2A"/>
<path fill-rule="evenodd" clip-rule="evenodd" d="M15.2021 15.6016C15.3054 15.7323 15.438 16.4165 15.512 17.1449C15.5998 18.3537 15.6601 18.5286 16.2507 19.4013C17.1512 20.785 17.8313 21.2655 19.3965 21.673C20.7998 22.0363 21.065 22.24 20.9031 22.8529C20.8291 23.1738 20.6672 23.2757 19.9578 23.4642C18.1998 23.9446 17.8606 24.1195 17.3441 24.8326C16.6794 25.707 16.2955 26.7987 16.0148 28.488C15.8822 29.2452 15.7496 29.9872 15.7049 30.1196C15.4827 30.8616 14.627 31.0517 14.2275 30.4541C14.0502 30.1773 14.0054 29.9159 14.0794 29.3912C14.1673 28.6782 13.9021 26.7409 13.5922 25.9701C13.5043 25.7511 13.1341 25.2571 12.7657 24.8632C12.0425 24.1059 11.3624 23.8292 10.1967 23.8292C9.60609 23.8292 9 23.4506 9 23.0872C9 22.622 9.3547 22.3877 10.5514 22.0686C12.9878 21.4421 13.7557 20.2926 13.785 17.1907C13.8005 16.3028 13.859 15.7934 14.0071 15.6321C14.2585 15.3265 14.9524 15.3112 15.2038 15.6033L15.2021 15.6016Z" fill="#F48C2A"/>
<path fill-rule="evenodd" clip-rule="evenodd" d="M29.6001 34.6613C30.2648 34.938 30.8554 35.6952 30.8554 36.2487C30.8554 37.2538 29.8963 38.0977 28.7874 38.0977C28.1383 38.0977 27.2068 37.5883 26.9416 37.079C26.1151 35.5068 27.8576 33.9193 29.6001 34.6613Z" fill="#F48C2A"/>
</svg>
