<svg width="140" height="68" viewBox="0 0 140 68" fill="none" xmlns="http://www.w3.org/2000/svg">
<path d="M20.1128 -0.00012207H1.60902C0.720384 -0.00012207 0 0.720282 0 1.60895V30.5722C0 31.4608 0.720384 32.1812 1.60902 32.1812H20.1128C21.0014 32.1812 21.7218 31.4608 21.7218 30.5722V1.60895C21.7218 0.720282 21.0014 -0.00012207 20.1128 -0.00012207Z" fill="#F0892A" style="fill:#F0892A;fill:color(display-p3 0.9412 0.5373 0.1647);fill-opacity:1;"/>
<path d="M19.3083 35.257H1.60902C0.720384 35.257 0 35.9774 0 36.866V65.8293C0 66.7179 0.720384 67.4383 1.60902 67.4383H19.3083C20.1969 67.4383 20.9173 66.7179 20.9173 65.8293V36.866C20.9173 35.9774 20.1969 35.257 19.3083 35.257Z" fill="#F0892A" style="fill:#F0892A;fill:color(display-p3 0.9412 0.5373 0.1647);fill-opacity:1;"/>
<path d="M10.9591 4.3806C14.7081 4.3806 18.0549 5.59545 18.0549 11.6777C18.0549 18.3715 14.9093 20.061 11.3936 20.061H10.3155C9.47078 20.061 9.33401 20.0932 9.33401 20.3667V27.0282C9.33401 27.2294 9.19724 27.3661 8.99611 27.3661H4.2334C4.03227 27.3661 3.89551 27.2294 3.89551 27.0282V4.71046C3.89551 4.50933 4.03227 4.37256 4.2334 4.37256H10.9591V4.3806ZM10.4201 15.5636C11.8763 15.5636 12.6164 14.7832 12.6164 11.911C12.6164 9.27217 11.8763 8.66877 10.6534 8.66877H9.67191C9.36619 8.66877 9.33401 8.83772 9.33401 8.97449V15.2981C9.33401 15.4671 9.36619 15.5717 9.67191 15.5717H10.4121L10.4201 15.5636Z" fill="white" style="fill:white;fill-opacity:1;"/>
<path d="M23.3223 18.4036C23.3223 11.2754 26.299 9.00663 30.6594 9.00663C35.0199 9.00663 37.0472 11.1386 37.0472 16.6417C37.0472 17.4542 37.0151 18.6691 36.8783 19.4495C36.8139 19.8518 36.6048 19.9242 36.1381 19.9242H28.8412C28.7044 19.9242 28.6401 19.9563 28.6401 20.0609C28.6401 22.5309 29.4848 23.44 31.8823 23.44C33.435 23.44 34.7222 23.1664 35.9048 22.9009C36.106 22.8366 36.3071 22.8688 36.3473 23.0699L36.7174 26.4489C36.7174 26.5857 36.6852 26.7225 36.5163 26.7868C35.5348 27.2615 33.5396 27.6316 31.3835 27.6316C25.8726 27.6316 23.3384 25.033 23.3384 18.4036H23.3223ZM32.5178 16.0061C32.5178 14.1154 32.3489 12.796 30.5951 12.796C28.6723 12.796 28.5033 14.5177 28.5033 16.4808C28.5033 16.6175 28.6079 16.6819 28.7044 16.6819H32.1478C32.3811 16.6819 32.5178 16.6175 32.5178 16.0061Z" fill="white" style="fill:white;fill-opacity:1;"/>
<path d="M44.2695 27.63C42.5479 27.63 41.0274 27.4933 39.9091 27.2278C39.8045 27.1956 39.708 27.1634 39.7401 26.9944L39.8769 23.2453C39.8769 23.1407 40.0458 23.0442 40.1826 23.0764C41.2607 23.2775 42.3468 23.4465 43.3283 23.4465C44.6477 23.4465 45.2913 23.1085 45.2913 22.0948C45.2913 21.1455 44.9534 20.88 42.8616 19.456C40.432 17.7986 39.7884 16.7849 39.7884 14.2184C39.7884 10.1958 42.5559 9.01311 46.0073 9.01311C47.6646 9.01311 49.4586 9.21424 50.7056 9.48779C50.8102 9.51997 50.8424 9.55215 50.8424 9.7211L50.5367 13.5024C50.5367 13.5668 50.4723 13.6714 50.3356 13.6392C49.2575 13.438 48.3082 13.2691 47.3267 13.2691C46.1119 13.2691 45.5728 13.607 45.5728 14.4839C45.5728 15.4333 46.2165 15.8677 47.8737 16.986C50.5769 18.7399 51.0194 19.8582 51.0194 22.2236C51.0194 26.8175 47.737 27.63 44.2937 27.63H44.2695Z" fill="white" style="fill:white;fill-opacity:1;"/>
<path d="M59.1012 27.6309C56.3981 27.6309 55.0465 26.6172 55.0465 23.6807V13.6079C55.0465 13.4711 54.9821 13.4068 54.8454 13.4068H53.5984C53.3972 13.4068 53.2605 13.27 53.2605 13.0689V9.62547C53.2605 9.42434 53.3972 9.28757 53.5984 9.28757H54.8454C54.9821 9.28757 55.0465 9.22321 55.0465 9.08644V4.86263C55.0465 4.6615 55.1833 4.52473 55.3844 4.52473H60.0506C60.2517 4.52473 60.3885 4.6615 60.3885 4.86263V9.08644C60.3885 9.22321 60.4528 9.28757 60.5896 9.28757H62.2791C62.4802 9.28757 62.617 9.42434 62.617 9.62547V13.0689C62.617 13.27 62.4802 13.4068 62.2791 13.4068H60.5896C60.4528 13.4068 60.3885 13.4711 60.3885 13.6079V21.7176C60.3885 22.9325 60.7264 23.1336 61.6033 23.1336H61.9412C62.1101 23.1336 62.2791 23.1658 62.2791 23.4393L62.1745 26.8505C62.1745 27.0517 62.0699 27.1885 61.8044 27.293C61.0643 27.5666 60.1149 27.6309 59.1012 27.6309Z" fill="white" style="fill:white;fill-opacity:1;"/>
<path d="M65.897 7.01012C65.6959 7.01012 65.5591 6.87335 65.5591 6.67221V2.8185C65.5591 2.61736 65.6959 2.48059 65.897 2.48059H70.6919C70.8931 2.48059 71.0298 2.61736 71.0298 2.8185V6.67221C71.0298 6.87335 70.8931 7.01012 70.6919 7.01012H65.897ZM65.9292 27.3568C65.7281 27.3568 65.5913 27.22 65.5913 27.0189V9.61681C65.5913 9.41568 65.7281 9.2789 65.9292 9.2789H70.6598C70.8609 9.2789 70.9976 9.41568 70.9976 9.61681V27.0189C70.9976 27.22 70.8609 27.3568 70.6598 27.3568H65.9292Z" fill="white" style="fill:white;fill-opacity:1;"/>
<path fill-rule="evenodd" clip-rule="evenodd" d="M35.1196 48.9935C35.1196 49.1946 35.3932 49.2268 35.5943 49.1625L35.5862 49.1544C36.7045 48.9533 38.3618 48.7521 39.4077 48.7521C41.2339 48.7521 41.8775 49.1544 41.8775 50.675V51.383C41.8775 51.5197 41.8132 51.5519 41.6764 51.5841L38.9411 51.922C34.7898 52.4289 33.8083 53.8448 33.8083 57.5618C33.8083 61.7936 35.6667 62.8717 41.0408 62.8717C42.9958 62.8717 45.1278 62.6706 46.7851 62.3005C47.123 62.1959 47.1873 61.9948 47.1873 61.7936V49.4601C47.1873 45.3329 44.6531 44.2548 40.4294 44.2548C38.5066 44.2548 36.4471 44.5283 35.1599 44.8984C34.9185 44.9708 34.8863 45.1398 34.8863 45.3409L35.1196 48.9935ZM41.6764 54.7057C41.8132 54.7057 41.8775 54.7701 41.8775 54.939L41.8856 54.9471V59.0663C41.8856 59.1628 41.8534 59.2352 41.7488 59.2674C41.4431 59.372 41.0006 59.4042 40.5984 59.4042C39.2468 59.4042 38.7399 59.0663 38.7399 57.071C38.7399 55.0758 39.2146 54.7057 40.7673 54.7057H41.6764Z" fill="white" style="fill:white;fill-opacity:1;"/>
<path d="M38.7319 42.163C38.6675 42.332 38.8365 42.4687 39.0376 42.4687H40.4857C41.6684 42.4687 42.0465 42.4365 42.2798 41.9941L45.6587 35.8394C45.7231 35.6704 45.522 35.5015 45.3208 35.5015H41.4672C41.2661 35.5015 41.0247 35.6061 40.9604 35.8394L38.7319 42.163Z" fill="white" style="fill:white;fill-opacity:1;"/>
<path d="M23.9441 62.6146H28.5781C28.7792 62.6146 28.916 62.4778 28.916 62.2767V49.0582C28.916 48.8249 28.9482 48.7847 29.1171 48.7203C29.624 48.6157 29.9618 48.5835 30.4043 48.5835C30.9112 48.5835 31.4502 48.5835 31.9892 48.6881C32.1582 48.7203 32.1903 48.6238 32.1903 48.487L32.3271 44.6011C32.3593 44.4321 32.2949 44.4 32.1903 44.3678C31.0399 44.2632 30.8709 44.2632 29.6883 44.2632C27.3955 44.2632 25.5692 44.5689 23.9119 44.939C23.6706 44.9712 23.6062 45.1079 23.6062 45.3091V62.2767C23.6062 62.4778 23.743 62.6146 23.9441 62.6146Z" fill="white" style="fill:white;fill-opacity:1;"/>
<path d="M57.772 62.8882C52.2611 62.8882 50.6038 59.6459 50.6038 53.6923C50.6038 47.7388 52.1886 44.2632 57.6674 44.2632C59.0833 44.2632 60.0648 44.4 60.8774 44.6011C60.982 44.6333 61.0463 44.7379 61.0463 44.9068L60.8774 48.7283C60.8774 48.7927 60.7728 48.8973 60.6038 48.8651C60.5183 48.8495 60.4364 48.834 60.357 48.819C59.9061 48.7338 59.5368 48.664 59.0511 48.664C57.1927 48.664 56.3158 49.6777 56.3158 53.7326C56.3158 57.353 57.0559 58.3586 59.0511 58.3586C59.6947 58.3586 60.1694 58.2943 60.7728 58.1253C60.9096 58.0931 61.1107 58.0931 61.1107 58.2621L61.2796 62.2204C61.2796 62.3572 61.2796 62.4939 61.1107 62.5261C60.2016 62.7594 59.1477 62.8962 57.7639 62.8962L57.772 62.8882Z" fill="white" style="fill:white;fill-opacity:1;"/>
<path fill-rule="evenodd" clip-rule="evenodd" d="M70.8103 62.8882C73.3847 62.8882 75.1707 62.4135 76.289 61.094H76.2809C77.4958 59.7022 78.2761 56.83 78.2761 53.4188C78.2761 50.0076 77.4958 47.3687 76.3131 46.0171C75.1305 44.7057 73.441 44.2632 70.9068 44.2632C68.3726 44.2632 66.5866 44.6976 65.4361 46.0171C64.2213 47.3687 63.4088 50.0317 63.4088 53.4188C63.4088 56.8059 64.2213 59.7102 65.4361 61.094C66.5866 62.4135 68.2358 62.8882 70.8103 62.8882ZM70.8746 48.3904C71.7596 48.3904 72.0573 48.6559 72.3308 49.0984C72.7009 49.7421 72.8698 51.2626 72.8698 53.3222C72.8698 55.3818 72.7009 57.2081 72.3308 57.8518C72.0573 58.2862 71.7596 58.5598 70.8424 58.5598C69.9253 58.5598 69.6598 58.2943 69.3863 57.8518C69.0162 57.2081 68.8473 55.3818 68.8473 53.3222C68.8473 51.2626 68.984 49.7421 69.3863 49.0984C69.6598 48.664 69.9253 48.3904 70.8746 48.3904Z" fill="white" style="fill:white;fill-opacity:1;"/>
<path d="M91.2605 62.6134C90.9548 62.6134 90.818 62.4123 90.7859 62.3399C90.2468 60.7147 88.6539 56.7645 88.0183 55.2439C87.954 55.0428 87.8816 54.8738 87.5437 54.8738C87.238 54.8738 87.1736 55.0106 87.1736 55.2117V62.2755C87.1736 62.4767 87.0368 62.6134 86.8357 62.6134H82.1695C81.9684 62.6134 81.8638 62.4767 81.8638 62.2755V38.1073C81.8638 37.9062 81.9684 37.7694 82.1695 37.7694H86.8357C87.0368 37.7694 87.1736 37.9062 87.1736 38.1073V50.7466C87.1736 50.9477 87.2058 51.0845 87.6161 51.0845C87.954 51.0845 88.0586 50.8833 88.1229 50.7466C88.9677 48.9203 90.0457 46.4182 90.6571 44.8332C90.7215 44.6321 90.8261 44.5275 91.0996 44.5275H96.1037C96.3048 44.5275 96.4738 44.6321 96.4094 44.8332C95.8382 46.0803 93.8028 50.2397 92.588 52.5407L92.5649 52.6006C92.5075 52.7491 92.4512 52.8947 92.4512 53.0153C92.4512 53.0891 92.5032 53.2108 92.5564 53.3354C92.5787 53.3875 92.6012 53.4402 92.6201 53.49C93.5695 55.4129 96.1359 60.8274 96.7071 62.2755C96.7392 62.4767 96.6427 62.6134 96.3692 62.6134H91.2605Z" fill="white" style="fill:white;fill-opacity:1;"/>
<path d="M99.1534 62.2761C99.1534 62.4772 99.2902 62.614 99.4913 62.614H104.326C104.528 62.614 104.664 62.4772 104.664 62.2761V57.1431C104.664 56.942 104.528 56.8052 104.326 56.8052H99.4913C99.2902 56.8052 99.1534 56.942 99.1534 57.1431V62.2761Z" fill="white" style="fill:white;fill-opacity:1;"/>
<path d="M121.98 62.6134H117.282C117.081 62.6134 116.944 62.4767 116.944 62.2755V50.6178C116.944 49.0651 116.67 48.3893 115.254 48.3893C114.642 48.3893 114.372 48.4474 114.057 48.5154L114.007 48.526C113.774 48.5582 113.734 48.695 113.734 48.8318V62.2836C113.734 62.4847 113.597 62.6215 113.396 62.6215H108.77C108.569 62.6215 108.432 62.4847 108.432 62.2836V38.1073C108.432 37.9062 108.569 37.7694 108.77 37.7694H113.396C113.597 37.7694 113.734 37.9062 113.734 38.1073V44.262C113.734 44.4631 113.838 44.5677 114.04 44.5356C115.254 44.3344 116.003 44.262 116.775 44.262C120.629 44.262 122.318 45.7826 122.318 50.7546V62.2755C122.318 62.4767 122.181 62.6134 121.98 62.6134Z" fill="white" style="fill:white;fill-opacity:1;"/>
<path d="M132.792 62.8866C135.125 62.8866 138.166 62.5166 139.718 62.2108H139.727C139.895 62.1786 140 62.0741 140 61.8729V44.8731C140 44.672 139.895 44.5352 139.694 44.5352H134.932C134.763 44.5352 134.658 44.672 134.658 44.8731V58.3169C134.658 58.4537 134.586 58.5904 134.385 58.6226C134.111 58.695 133.669 58.7594 133.097 58.7594C131.714 58.7594 131.44 58.0836 131.44 56.5308V44.8731C131.44 44.672 131.335 44.5352 131.166 44.5352H126.372C126.17 44.5352 126.034 44.672 126.034 44.8731V56.1929C126.034 60.9638 127.924 62.8866 132.792 62.8866Z" fill="white" style="fill:white;fill-opacity:1;"/>
<path d="M8.5278 62.8867C6.87051 62.8867 5.38216 62.7499 4.0708 62.4844C3.93404 62.4522 3.90186 62.3798 3.90186 62.1787L4.17539 57.8905C4.17539 57.7859 4.27997 57.6894 4.4087 57.7215C5.52697 57.8905 6.20276 58.0273 7.38539 58.0273C8.9381 58.0273 9.58171 57.5848 9.58171 56.1044C9.58171 54.8172 8.90592 54.0126 7.24862 52.4197C4.94772 50.1187 4.13516 48.7671 4.13516 45.7581C4.13516 40.8585 6.70156 39.3701 10.8609 39.3701C12.6147 39.3701 14.3766 39.6034 15.3581 39.9092C15.4949 39.9735 15.5271 40.0137 15.5271 40.2149L15.157 44.3341C15.157 44.4387 15.0524 44.5352 14.9237 44.503C13.9422 44.2295 13.1296 44.133 12.1883 44.133C10.7 44.133 10.0966 44.4709 10.0966 45.8225C10.0966 47.1741 10.5391 47.5764 12.6952 49.7084C14.8915 51.9048 15.704 53.1518 15.704 56.3297C15.704 61.3661 13.0331 62.8867 8.53585 62.8867H8.5278Z" fill="white" style="fill:white;fill-opacity:1;"/>
</svg>
