<svg xmlns="http://www.w3.org/2000/svg" width="180" height="27" viewBox="0 0 180 27" fill="none">
  <path
    d="M16.666 0H1.33328C0.596931 0 0 0.596931 0 1.33328V25.3324C0 26.0687 0.596931 26.6656 1.33328 26.6656H16.666C17.4024 26.6656 17.9993 26.0687 17.9993 25.3324V1.33328C17.9993 0.596931 17.4024 0 16.666 0Z"
    fill="#F0892A" />
  <path
    d="M79.9969 0.000188828H65.3308C64.5945 0.000188828 63.9976 0.597119 63.9976 1.33347V25.3325C63.9976 26.0689 64.5945 26.6658 65.3308 26.6658H79.9969C80.7333 26.6658 81.3302 26.0689 81.3302 25.3325V1.33347C81.3302 0.597119 80.7333 0.000188828 79.9969 0.000188828Z"
    fill="#F0892A" />
  <path
    d="M9.07979 3.62651C12.1863 3.62651 14.9596 4.63313 14.9596 9.67294C14.9596 15.2194 12.353 16.6193 9.43978 16.6193H8.54648C7.84651 16.6193 7.73318 16.646 7.73318 16.8727V22.3924C7.73318 22.5591 7.61985 22.6724 7.45319 22.6724H3.50667C3.34001 22.6724 3.22668 22.5591 3.22668 22.3924V3.89983C3.22668 3.73317 3.34001 3.61984 3.50667 3.61984H9.07979V3.62651ZM8.63314 12.8928C9.83976 12.8928 10.4531 12.2462 10.4531 9.86627C10.4531 7.67968 9.83976 7.1797 8.82647 7.1797H8.01317C7.75984 7.1797 7.73318 7.3197 7.73318 7.43303V12.6728C7.73318 12.8128 7.75984 12.8995 8.01317 12.8995H8.62648L8.63314 12.8928Z"
    fill="white" />
  <path
    d="M19.326 15.2463C19.326 9.3399 21.7926 7.45997 25.4058 7.45997C29.019 7.45997 30.6989 9.22657 30.6989 13.7864C30.6989 14.4597 30.6723 15.4663 30.5589 16.113C30.5056 16.4463 30.3323 16.5063 29.9456 16.5063H23.8992C23.7859 16.5063 23.7325 16.533 23.7325 16.6196C23.7325 18.6662 24.4325 19.4195 26.4191 19.4195C27.7057 19.4195 28.7724 19.1929 29.7523 18.9729C29.919 18.9195 30.0856 18.9462 30.119 19.1129L30.4256 21.9127C30.4256 22.0261 30.399 22.1394 30.259 22.1927C29.4457 22.5861 27.7924 22.8927 26.0058 22.8927C21.4393 22.8927 19.3394 20.7395 19.3394 15.2463H19.326ZM26.9458 13.2597C26.9458 11.6931 26.8058 10.5998 25.3525 10.5998C23.7592 10.5998 23.6192 12.0265 23.6192 13.6531C23.6192 13.7664 23.7059 13.8197 23.7859 13.8197H26.6391C26.8324 13.8197 26.9458 13.7664 26.9458 13.2597Z"
    fill="white" />
  <path
    d="M36.6853 22.893C35.2587 22.893 33.9987 22.7797 33.0721 22.5597C32.9854 22.533 32.9054 22.5063 32.9321 22.3663L33.0454 19.2598C33.0454 19.1731 33.1854 19.0931 33.2987 19.1198C34.192 19.2865 35.092 19.4265 35.9053 19.4265C36.9986 19.4265 37.5319 19.1465 37.5319 18.3065C37.5319 17.5199 37.2519 17.2999 35.5187 16.1199C33.5054 14.7466 32.9721 13.9067 32.9721 11.7801C32.9721 8.44688 35.2653 7.46692 38.1252 7.46692C39.4985 7.46692 40.9851 7.63358 42.0184 7.86023C42.1051 7.8869 42.1317 7.91356 42.1317 8.05356L41.8784 11.1868C41.8784 11.2401 41.8251 11.3268 41.7118 11.3001C40.8185 11.1334 40.0318 10.9934 39.2185 10.9934C38.2119 10.9934 37.7652 11.2734 37.7652 12.0001C37.7652 12.7867 38.2986 13.1467 39.6718 14.0733C41.9117 15.5266 42.2784 16.4532 42.2784 18.4132C42.2784 22.2197 39.5585 22.893 36.7053 22.893H36.6853Z"
    fill="white" />
  <path
    d="M48.9782 22.8934C46.7383 22.8934 45.6184 22.0534 45.6184 19.6202V11.2738C45.6184 11.1605 45.565 11.1072 45.4517 11.1072H44.4184C44.2518 11.1072 44.1384 10.9938 44.1384 10.8272V7.97394C44.1384 7.80728 44.2518 7.69395 44.4184 7.69395H45.4517C45.565 7.69395 45.6184 7.64062 45.6184 7.52729V4.02743C45.6184 3.86077 45.7317 3.74744 45.8984 3.74744H49.7649C49.9315 3.74744 50.0449 3.86077 50.0449 4.02743V7.52729C50.0449 7.64062 50.0982 7.69395 50.2115 7.69395H51.6115C51.7781 7.69395 51.8915 7.80728 51.8915 7.97394V10.8272C51.8915 10.9938 51.7781 11.1072 51.6115 11.1072H50.2115C50.0982 11.1072 50.0449 11.1605 50.0449 11.2738V17.9936C50.0449 19.0002 50.3249 19.1668 51.0515 19.1668H51.3315C51.4715 19.1668 51.6115 19.1935 51.6115 19.4202L51.5248 22.2467C51.5248 22.4134 51.4381 22.5267 51.2182 22.6134C50.6048 22.84 49.8182 22.8934 48.9782 22.8934Z"
    fill="white" />
  <path
    d="M54.6047 5.80712C54.438 5.80712 54.3247 5.69379 54.3247 5.52713V2.33392C54.3247 2.16726 54.438 2.05393 54.6047 2.05393H58.5779C58.7445 2.05393 58.8579 2.16726 58.8579 2.33392V5.52713C58.8579 5.69379 58.7445 5.80712 58.5779 5.80712H54.6047ZM54.6314 22.6665C54.4647 22.6665 54.3514 22.5531 54.3514 22.3865V7.96703C54.3514 7.80037 54.4647 7.68704 54.6314 7.68704H58.5512C58.7179 7.68704 58.8312 7.80037 58.8312 7.96703V22.3865C58.8312 22.5531 58.7179 22.6665 58.5512 22.6665H54.6314Z"
    fill="white" />
  <path
    d="M71.0709 22.8922C69.6976 22.8922 68.4643 22.7789 67.3777 22.5589C67.2643 22.5322 67.2377 22.4722 67.2377 22.3056L67.4643 18.7524C67.4643 18.6657 67.551 18.5857 67.6577 18.6124C68.5843 18.7524 69.1443 18.8657 70.1242 18.8657C71.4108 18.8657 71.9442 18.4991 71.9442 17.2724C71.9442 16.2058 71.3842 15.5392 70.0109 14.2192C68.1043 12.3126 67.431 11.1927 67.431 8.69944C67.431 4.63959 69.5576 3.40631 73.0041 3.40631C74.4574 3.40631 75.9173 3.59963 76.7306 3.85296C76.844 3.90629 76.8706 3.93962 76.8706 4.10628L76.564 7.51948C76.564 7.60615 76.4773 7.68614 76.3706 7.65948C75.5573 7.43282 74.884 7.35282 74.1041 7.35282C72.8708 7.35282 72.3708 7.63281 72.3708 8.75277C72.3708 9.87273 72.7375 10.206 74.5241 11.9726C76.344 13.7926 77.0173 14.8259 77.0173 17.4591C77.0173 21.6323 74.804 22.8922 71.0775 22.8922H71.0709Z"
    fill="white" />
  <path
    d="M87.6701 22.6661H83.8369C83.6702 22.6661 83.5569 22.5527 83.5569 22.3861V8.3266C83.5569 8.15994 83.6102 8.04661 83.8102 8.01995C85.1835 7.71329 86.6968 7.45997 88.5967 7.45997C89.5767 7.45997 89.7166 7.45997 90.6699 7.54663C90.7566 7.5733 90.8099 7.59997 90.7833 7.73996L90.6699 10.9598C90.6699 11.0732 90.6433 11.1532 90.5033 11.1265C90.0566 11.0398 89.61 11.0398 89.19 11.0398C88.8233 11.0398 88.5434 11.0665 88.1234 11.1532C87.9834 11.2065 87.9567 11.2398 87.9567 11.4332V22.3861C87.9567 22.5527 87.8434 22.6661 87.6767 22.6661H87.6701Z"
    fill="white" />
  <path
    d="M93.4965 11.5203C93.3299 11.5736 93.1032 11.5469 93.1032 11.3803L92.9099 8.35372C92.9099 8.18706 92.9366 8.04707 93.1366 7.98707C94.2032 7.68041 95.9098 7.45376 97.5031 7.45376C101.003 7.45376 103.103 8.34706 103.103 11.7669V21.9865C103.103 22.1532 103.05 22.3198 102.77 22.4065C101.396 22.7132 99.6296 22.8798 98.0097 22.8798C93.5565 22.8798 92.0166 21.9865 92.0166 18.48C92.0166 15.4001 92.8299 14.2268 96.2698 13.8068L98.5363 13.5269C98.6497 13.5002 98.703 13.4735 98.703 13.3602V12.7736C98.703 11.5136 98.1697 11.1803 96.6564 11.1803C95.7898 11.1803 94.4165 11.3469 93.4899 11.5136L93.4965 11.5203ZM96.3498 5.97381C96.1831 5.97381 96.0431 5.86048 96.0964 5.72049L97.943 0.480692C97.9964 0.287366 98.1964 0.200703 98.363 0.200703H101.556C101.723 0.200703 101.89 0.340697 101.836 0.480692L99.0363 5.58049C98.843 5.94715 98.5297 5.97381 97.5497 5.97381H96.3431H96.3498ZM98.703 16.3067C98.703 16.1668 98.6497 16.1134 98.5363 16.1134H97.783C96.4964 16.1134 96.1031 16.4201 96.1031 18.0733C96.1031 19.7266 96.5231 20.0066 97.6431 20.0066C97.9764 20.0066 98.343 19.9799 98.5963 19.8933C98.683 19.8666 98.7097 19.8066 98.7097 19.7266V16.3134L98.703 16.3067Z"
    fill="white" />
  <path
    d="M111.863 22.8927C107.296 22.8927 105.923 20.2061 105.923 15.273C105.923 10.3399 107.236 7.45997 111.776 7.45997C112.949 7.45997 113.763 7.5733 114.436 7.73996C114.523 7.76663 114.576 7.85329 114.576 7.99328L114.436 11.1598C114.436 11.2132 114.349 11.2998 114.209 11.2732C113.736 11.1865 113.396 11.1065 112.923 11.1065C111.383 11.1065 110.656 11.9465 110.656 15.3063C110.656 18.3062 111.269 19.1395 112.923 19.1395C113.456 19.1395 113.849 19.0862 114.349 18.9462C114.463 18.9195 114.629 18.9195 114.629 19.0595L114.769 22.3394C114.769 22.4527 114.769 22.5661 114.629 22.5927C113.876 22.786 113.003 22.8994 111.856 22.8994L111.863 22.8927Z"
    fill="white" />
  <path
    d="M127.209 21.4061C126.282 22.4994 124.802 22.8927 122.669 22.8927C120.535 22.8927 119.169 22.4994 118.216 21.4061C117.209 20.2595 116.536 17.8529 116.536 15.0463C116.536 12.2398 117.209 10.0332 118.216 8.91325C119.169 7.81996 120.649 7.45997 122.749 7.45997C124.849 7.45997 126.249 7.82662 127.229 8.91325C128.209 10.0332 128.855 12.2198 128.855 15.0463C128.855 17.8729 128.209 20.2528 127.202 21.4061H127.209ZM123.929 11.4665C123.702 11.0998 123.455 10.8798 122.722 10.8798C121.935 10.8798 121.715 11.1065 121.489 11.4665C121.155 11.9998 121.042 13.2597 121.042 14.9663C121.042 16.6729 121.182 18.1862 121.489 18.7195C121.715 19.0862 121.935 19.3062 122.695 19.3062C123.455 19.3062 123.702 19.0795 123.929 18.7195C124.235 18.1862 124.375 16.6729 124.375 14.9663C124.375 13.2597 124.235 11.9998 123.929 11.4665Z"
    fill="white" />
  <path
    d="M143.841 22.6667H139.615C139.361 22.6667 139.248 22.5 139.221 22.4401C138.775 21.0934 137.455 17.8202 136.928 16.5603C136.875 16.3936 136.815 16.2536 136.535 16.2536C136.281 16.2536 136.228 16.367 136.228 16.5336V22.3867C136.228 22.5534 136.115 22.6667 135.948 22.6667H132.082C131.915 22.6667 131.828 22.5534 131.828 22.3867V2.36083C131.828 2.19417 131.915 2.08084 132.082 2.08084H135.948C136.115 2.08084 136.228 2.19417 136.228 2.36083V12.8338C136.228 13.0004 136.255 13.1137 136.595 13.1137C136.875 13.1137 136.961 12.9471 137.015 12.8338C137.715 11.3205 138.608 9.24723 139.115 7.93394C139.168 7.76728 139.255 7.68062 139.481 7.68062H143.628C143.794 7.68062 143.934 7.76728 143.881 7.93394C143.408 8.96724 141.721 12.4138 140.715 14.3204C140.661 14.4604 140.601 14.6004 140.601 14.7137C140.601 14.8003 140.688 14.967 140.741 15.107C141.528 16.7003 143.654 21.1868 144.128 22.3867C144.154 22.5534 144.074 22.6667 143.848 22.6667H143.841Z"
    fill="white" />
  <path
    d="M146.441 22.6668C146.274 22.6668 146.161 22.5535 146.161 22.3868V18.1337C146.161 17.967 146.274 17.8537 146.441 17.8537H150.448C150.614 17.8537 150.728 17.967 150.728 18.1337V22.3868C150.728 22.5535 150.614 22.6668 150.448 22.6668H146.441Z"
    fill="white" />
  <path
    d="M165.067 22.6667H161.174C161.007 22.6667 160.894 22.5534 160.894 22.3867V12.7271C160.894 11.4405 160.667 10.8805 159.494 10.8805C158.961 10.8805 158.741 10.9338 158.461 10.9938C158.267 11.0205 158.234 11.1338 158.234 11.2472V22.3934C158.234 22.56 158.121 22.6734 157.954 22.6734H154.121C153.954 22.6734 153.841 22.56 153.841 22.3934V2.36083C153.841 2.19417 153.954 2.08084 154.121 2.08084H157.954C158.121 2.08084 158.234 2.19417 158.234 2.36083V7.46063C158.234 7.62729 158.321 7.71395 158.487 7.68729C159.494 7.52063 160.114 7.46063 160.754 7.46063C163.947 7.46063 165.347 8.72058 165.347 12.8404V22.3867C165.347 22.5534 165.234 22.6667 165.067 22.6667Z"
    fill="white" />
  <path
    d="M179.767 22.3335C178.48 22.5868 175.96 22.8935 174.027 22.8935C169.994 22.8935 168.427 21.3002 168.427 17.347V7.96738C168.427 7.80072 168.54 7.68739 168.707 7.68739H172.68C172.82 7.68739 172.907 7.80072 172.907 7.96738V17.627C172.907 18.9136 173.134 19.4736 174.28 19.4736C174.754 19.4736 175.12 19.4203 175.347 19.3603C175.514 19.3336 175.574 19.2203 175.574 19.107V7.96738C175.574 7.80072 175.66 7.68739 175.8 7.68739H179.747C179.913 7.68739 180 7.80072 180 7.96738V22.0535C180 22.2202 179.913 22.3068 179.773 22.3335H179.767Z"
    fill="white" />
</svg>
